<svg width="71" height="80" viewBox="0 0 71 80" fill="none" xmlns="http://www.w3.org/2000/svg">
<path d="M68.454 18.6921L36.903 0.481082C35.8006 -0.160361 34.4375 -0.160361 33.325 0.481082L1.78401 18.6921C0.681533 19.3335 0 20.5061 0 21.789V58.211C0 59.4838 0.681533 60.6665 1.78401 61.3079L33.325 79.5189C34.4275 80.1604 35.7905 80.1604 36.903 79.5189L68.444 61.3079C69.5465 60.6665 70.228 59.4939 70.228 58.211V21.789C70.228 20.5162 69.5465 19.3335 68.444 18.6921H68.454ZM66.9707 56.3267C66.9707 57.5996 66.2892 58.7823 65.1867 59.4237L36.9131 75.7504C35.8106 76.3919 34.4475 76.3919 33.335 75.7504L5.06139 59.4237C3.95891 58.7823 3.27737 57.6096 3.27737 56.3267V23.6733C3.27737 22.4004 3.95891 21.2177 5.06139 20.5763L33.335 4.25958C34.4375 3.61814 35.8006 3.61814 36.9131 4.25958L65.1867 20.5863C66.2892 21.2278 66.9707 22.4004 66.9707 23.6833V56.3368V56.3267Z" fill="#5065F6"/>
<path d="M52.5682 28.1531C52.3377 27.7923 51.9769 27.5317 51.556 27.4215C51.3956 27.3814 51.2453 27.3613 51.0949 27.3613C50.8043 27.3613 50.5036 27.4415 50.233 27.5918L35.119 36.3716L20.005 27.6019C19.7444 27.4515 19.4437 27.3613 19.143 27.3613C18.9927 27.3613 18.8424 27.3814 18.692 27.4315C18.241 27.5417 17.8602 27.8324 17.6296 28.2433C17.1486 29.0852 17.4292 30.1576 18.2611 30.6387L33.3751 39.4084V56.8878C33.3751 57.8499 34.1568 58.6417 35.119 58.6417C36.0812 58.6417 36.8629 57.8499 36.8629 56.8878V39.3984L51.9669 30.6287C52.7988 30.1476 53.0894 29.0752 52.6083 28.2333L52.5682 28.1531Z" fill="#5065F6"/>
</svg>
