<svg width="12" height="12" viewBox="0 0 12 12" fill="none" xmlns="http://www.w3.org/2000/svg">
<path fillRule="evenodd" clipRule="evenodd" d="M11.7493 0.261676C11.5887 0.100986 11.3709 0.0107158 11.1438 0.0107158C10.9167 0.0107158 10.6989 0.100986 10.5383 0.261676L6.00535 4.79853L1.47241 0.261676C1.39341 0.17981 1.29891 0.114511 1.19442 0.0695887C1.08994 0.0246667 0.977558 0.00102135 0.863846 3.23632e-05C0.750133 -0.000956622 0.637363 0.0207304 0.532114 0.0638283C0.426866 0.106926 0.331245 0.170572 0.250835 0.251051C0.170425 0.331531 0.106833 0.427232 0.0637732 0.532572C0.0207119 0.637912 -0.000955582 0.75078 3.24249e-05 0.864591C0.00102043 0.978402 0.0246458 1.09088 0.0695295 1.19545C0.114412 1.30003 0.179655 1.39461 0.26145 1.47368L4.7944 6.01053L0.26145 10.5474C0.105449 10.709 0.0191278 10.9256 0.0210791 11.1503C0.0230303 11.375 0.113098 11.59 0.271883 11.7489C0.430667 11.9079 0.645464 11.998 0.87001 12C1.09456 12.0019 1.31089 11.9155 1.47241 11.7594L6.00535 7.22253L10.5383 11.7594C10.6998 11.9155 10.9162 12.0019 11.1407 12C11.3652 11.998 11.58 11.9079 11.7388 11.7489C11.8976 11.59 11.9877 11.375 11.9896 11.1503C11.9916 10.9256 11.9053 10.709 11.7493 10.5474L7.21631 6.01053L11.7493 1.47368C11.9098 1.31294 12 1.09496 12 0.867676C12 0.640392 11.9098 0.422414 11.7493 0.261676Z" fill="#737373"/>
</svg>
