<svg width="25" height="24" viewBox="0 0 25 24" fill="none" xmlns="http://www.w3.org/2000/svg">
<path d="M5.85249 9C5.38111 9 5 9.38111 5 9.85249C5 10.3239 5.38111 10.705 5.85249 10.705C6.66486 10.705 7.33681 11.397 7.33681 12.2395C7.33681 13.0819 6.67488 13.7739 5.85249 13.7739C5.03009 13.7739 5 14.155 5 14.6264C5 15.0978 5.38111 15.4789 5.85249 15.4789C7.60761 15.4789 9.04178 14.0247 9.04178 12.2395C9.04178 10.4542 7.60761 9 5.85249 9Z" fill="#0D0D0D"/>
<path d="M24.0301 12.3761C24.0301 10.7213 23.0372 9.30715 21.603 8.73548C21.7534 8.30422 21.8337 7.8529 21.8337 7.39156C21.8337 5.53614 20.56 3.97158 18.845 3.57041C18.6745 1.57459 17.0196 0 15.0138 0C13.0079 0 12.7271 0.571668 12.015 1.46427C11.313 0.571668 10.2298 0 9.0163 0C7.01045 0 5.36564 1.57459 5.18512 3.57041C3.48015 3.97158 2.19641 5.52612 2.19641 7.39156C2.19641 9.257 2.27664 8.30422 2.42707 8.73548C1.00292 9.30715 0 10.7213 0 12.3761C0 14.0309 0.892601 15.2946 2.21646 15.9264C2.03594 16.3778 1.94568 16.8692 1.94568 17.3606C1.94568 19.2863 3.32971 20.8909 5.15504 21.2219C5.67656 22.8466 7.18095 24 8.90598 24C10.631 24 11.2729 23.3982 11.995 22.4655C12.7171 23.3982 13.8404 24 15.084 24C16.3276 24 18.3134 22.8466 18.8349 21.2219C20.6603 20.8909 22.0443 19.2863 22.0443 17.3606C22.0443 15.435 21.954 16.3778 21.7735 15.9264C23.0974 15.2946 23.99 13.9306 23.99 12.3761H24.0301ZM11.1726 19.9783C11.1726 21.252 10.1697 22.295 8.93606 22.295C7.70246 22.295 6.8901 21.4526 6.7196 20.3393C6.7196 20.3393 6.7196 20.3293 6.7196 20.3193C6.69954 20.2089 6.69954 20.0986 6.69954 19.9883C6.69954 18.7146 7.70246 17.6715 8.93606 17.6715C10.1697 17.6715 9.78855 17.2904 9.78855 16.8191C9.78855 16.3477 9.40744 15.9666 8.93606 15.9666C6.95027 15.9666 5.30547 17.471 5.03468 19.4166C4.2524 19.0756 3.68073 18.2833 3.68073 17.3807C3.68073 16.4781 3.85123 16.3677 4.17217 15.9666C4.36272 15.7259 4.41287 15.3949 4.30255 15.1141C4.19223 14.8333 3.92143 14.6226 3.62056 14.5926C2.54743 14.4622 1.73507 13.5194 1.73507 12.3962C1.73507 11.2729 2.62766 10.2399 3.78102 10.1897C4.10196 10.1797 4.38278 9.97911 4.51316 9.68826C4.64354 9.39741 4.60343 9.05641 4.40284 8.80568C4.09194 8.40451 3.92143 7.92311 3.92143 7.41162C3.92143 6.41872 4.55328 5.57626 5.42582 5.29544C5.9674 6.73966 7.34141 7.75261 8.91601 7.75261C10.4906 7.75261 9.76849 7.3715 9.76849 6.90012C9.76849 6.42875 9.38738 6.04764 8.91601 6.04764C7.90305 6.04764 7.04054 5.26536 6.91016 4.23234V4.21229C6.90013 4.12202 6.89009 4.03176 6.89009 3.94149C6.89009 2.71793 7.8529 1.72503 9.02633 1.72503C10.1997 1.72503 11.1626 2.71793 11.1626 3.94149C11.1626 5.16506 11.1626 4.00167 11.1626 4.02173V19.9983L11.1726 19.9783ZM20.4396 14.5725C20.1287 14.6126 19.8679 14.8132 19.7576 15.094C19.6473 15.3748 19.6874 15.7058 19.878 15.9465C20.1989 16.3377 20.3694 16.8491 20.3694 17.3606C20.3694 18.2633 19.7977 19.0656 19.0155 19.3966C18.7447 17.4509 17.0999 15.9465 15.1141 15.9465C13.1283 15.9465 14.2616 16.3276 14.2616 16.799C14.2616 17.2704 14.6427 17.6515 15.1141 17.6515C16.3477 17.6515 17.3506 18.6945 17.3506 19.9682C17.3506 21.242 17.3506 20.1889 17.3306 20.2992C17.3306 20.3092 17.3306 20.3293 17.3306 20.3393C17.1601 21.4425 16.2173 22.275 15.1241 22.275C14.0309 22.275 12.8876 21.2319 12.8876 19.9582C12.8876 18.6845 12.8876 19.9482 12.8876 19.9382V3.98161C12.8876 3.95152 12.8876 3.93147 12.8876 3.90138C12.8876 2.67781 13.8504 1.68491 15.0238 1.68491C16.1972 1.68491 17.16 2.67781 17.16 3.90138C17.16 5.12495 17.1601 4.07188 17.14 4.16214C17.14 4.17217 17.14 4.1822 17.14 4.20226C17.0096 5.23527 16.1471 6.01755 15.1341 6.01755C14.1212 6.01755 14.2817 6.39866 14.2817 6.87004C14.2817 7.34141 14.6628 7.72252 15.1341 7.72252C16.7087 7.72252 18.0827 6.70957 18.6243 5.26536C19.4969 5.54618 20.1287 6.38863 20.1287 7.38153C20.1287 8.37442 19.9582 8.38445 19.6473 8.77559C19.4467 9.02633 19.4066 9.36732 19.537 9.65817C19.6674 9.94902 19.9582 10.1396 20.2691 10.1596C21.4124 10.2098 22.3151 11.1826 22.3151 12.3661C22.3151 13.5495 21.5027 14.4321 20.4296 14.5625L20.4396 14.5725Z" fill="#0D0D0D"/>
<path d="M18.1893 10.705C18.6607 10.705 19.0418 10.3239 19.0418 9.85249C19.0418 9.38111 18.6607 9 18.1893 9C16.4342 9 15 10.4542 15 12.2395C15 14.0247 16.4342 15.4789 18.1893 15.4789C19.9444 15.4789 19.0418 15.0978 19.0418 14.6264C19.0418 14.155 18.6607 13.7739 18.1893 13.7739C17.3769 13.7739 16.705 13.0819 16.705 12.2395C16.705 11.397 17.3669 10.705 18.1893 10.705Z" fill="#0D0D0D"/>
</svg>
