<svg width="80" height="81" viewBox="0 0 80 81" fill="none" xmlns="http://www.w3.org/2000/svg">
<path d="M79.9431 40.0029C79.9431 39.6865 79.9124 39.3598 79.8614 39.0434V38.9924C79.841 38.9005 79.8206 38.8189 79.8002 38.727C79.6266 37.9309 79.3715 37.145 79.0347 36.3999C78.3814 34.9301 77.4322 33.6033 76.2482 32.5214C75.1867 31.5517 73.9517 30.7862 72.6147 30.2453L71.298 29.7145L71.7675 28.3877C72.2472 27.02 72.482 25.6216 72.482 24.2131C72.482 21.4573 71.5532 18.7628 69.8589 16.6194C68.185 14.5066 65.8476 13.0062 63.2653 12.404L62.2242 12.159L62.1324 11.0975C61.571 4.60608 55.3449 -0.58912 48.8433 0.0539007C45.6282 0.370308 43.0663 2.09524 41.0862 4.59588L39.9226 6.04523L38.7693 4.58567C34.6968 -0.558501 26.9499 -1.38524 21.9589 2.89136C21.816 3.01384 21.6833 3.13632 21.5404 3.26901C19.3562 5.32055 18.0089 8.09677 17.7333 11.1077L17.6415 12.159L16.6004 12.404C13.3342 13.1695 10.609 15.5068 8.96577 18.3953C7.31228 21.3144 6.28141 25.3563 7.95531 28.4897C8.17985 28.9082 8.21047 28.9899 8.80246 29.6125C7.92468 29.786 6.31203 30.7148 5.93438 30.9291C3.80118 32.1131 2.04563 33.9605 0.973933 36.1549C0.361531 37.4002 -0.0467358 38.7679 0.00429758 40.1662C0.055331 41.5645 0.463598 42.8914 1.09641 44.1162C1.31075 44.5346 1.55571 44.9429 1.82109 45.3308C2.87238 46.8822 4.29111 48.1886 5.93438 49.097C6.31203 49.3114 7.92468 50.2402 8.80246 50.4137C8.20027 51.0363 8.17985 51.118 7.95531 51.5364C6.29162 54.6597 7.31228 58.7117 8.96577 61.6308C10.609 64.5193 13.3342 66.8567 16.6004 67.6222L17.6415 67.8671L17.7333 68.9184C18.0089 71.9294 19.3562 74.7056 21.5404 76.7571C21.6731 76.8796 21.816 77.0123 21.9589 77.1348C26.9602 81.4114 34.707 80.5949 38.7693 75.4405L39.9226 73.9809L41.0862 75.4303C43.0663 77.9309 45.6282 79.6456 48.8433 79.9723C55.3449 80.6255 61.571 75.4303 62.1324 68.9286L62.2242 67.8671L63.2653 67.6222C65.8476 67.02 68.185 65.5196 69.8589 63.4068C71.5532 61.2634 72.482 58.5688 72.482 55.813C72.482 54.4045 72.2472 53.0062 71.7675 51.6385L71.298 50.3116L72.6147 49.7809C74.1252 49.1685 75.5134 48.2703 76.6667 47.1067C78.4631 45.2899 79.9737 42.6668 79.9431 40.0233V40.0029ZM38.4529 67.7548C38.4529 72.7969 34.4723 76.9102 29.5731 76.9102C24.6739 76.9102 20.6932 72.7969 20.6932 67.7548C20.6932 67.3772 20.7341 67.0302 20.7749 66.6933V66.5607C21.3261 62.233 24.9392 58.9771 29.1954 58.9771C29.2362 58.9771 29.2771 58.9771 29.3281 58.9669V56.0172C29.3281 56.0172 29.2465 56.0172 29.1954 56.0172C24.4799 56.0172 20.1727 59.0588 18.4784 63.5803L17.9885 64.897L16.6412 64.4581C12.9158 63.2639 10.4049 59.7528 10.4049 55.7212C10.4049 53.639 11.0888 51.6589 12.385 49.985C12.7422 49.5461 12.8137 48.9541 12.5891 48.4336C12.3544 47.9233 11.8747 47.5864 11.3541 47.566C9.0168 47.4742 6.82236 46.3208 5.27095 44.6061C4.434 43.6773 3.68891 42.5852 3.33168 41.3706C2.92341 40.0029 3.12754 38.7781 3.80118 37.5431C3.8318 37.492 3.85222 37.441 3.88284 37.39C3.95428 37.2675 4.02573 37.145 4.09718 37.0123C4.66875 36.0223 5.42405 35.1343 6.31203 34.4096C7.74096 33.246 9.50672 32.5112 11.3541 32.4397C11.8747 32.4193 12.3544 32.0825 12.5891 31.5721C12.8137 31.0516 12.7422 30.4596 12.385 30.0207C11.0888 28.3468 10.4049 26.3667 10.4049 24.2846C10.4049 20.2529 12.9158 16.7418 16.6412 15.5477L17.9885 15.1088L18.4784 16.4254C20.1727 20.947 24.4799 23.9886 29.1954 23.9886C29.2465 23.9886 29.2771 23.9886 29.3281 23.9886V21.0388C29.3281 21.0388 29.2465 21.0286 29.1954 21.0286C24.9392 21.0286 21.3261 17.7727 20.7749 13.4451V13.3124C20.7341 12.9756 20.6932 12.6285 20.6932 12.2509C20.6932 7.20879 24.6841 3.09549 29.5731 3.09549C34.4621 3.09549 38.4529 7.20879 38.4529 12.2509V67.7651V67.7548ZM68.6034 47.6783C68.0727 47.7089 67.5624 48.0559 67.348 48.5357C67.1235 49.0562 67.1949 49.638 67.5419 50.0769C67.6848 50.2606 67.8175 50.4137 67.9502 50.5668C69.0525 51.8324 69.5322 52.7 69.5322 55.8232C69.5322 59.8549 67.0214 63.366 63.2857 64.5704L61.9487 64.999L61.4587 63.6824C59.7644 59.1608 55.4572 56.1192 50.7417 56.1192C50.5784 56.1192 50.4253 56.1498 50.2722 56.2009V59.069C50.4151 59.069 50.558 59.0792 50.7417 59.0792C52.4565 59.0792 54.1406 59.6201 55.5389 60.6C56.2431 61.0899 56.8657 61.6921 57.3965 62.3759C59.5807 65.193 59.8461 68.8776 58.2845 72.0417C56.8045 75.0322 53.7221 77.0429 50.3743 77.0429C45.4751 77.0429 41.4945 72.9398 41.4945 67.8875V12.1182C41.4945 7.06589 45.4751 2.96281 50.3743 2.96281C53.7323 2.96281 56.8045 4.98373 58.2845 7.96408C59.8461 11.1179 59.5807 14.8128 57.3965 17.6298C56.8657 18.3035 56.2431 18.9057 55.5389 19.4058C54.1406 20.3856 52.4565 20.9266 50.7417 20.9266C50.558 20.9266 50.4151 20.9266 50.2722 20.9368V23.8049C50.4151 23.8559 50.5784 23.8865 50.7417 23.8865C55.4572 23.8865 59.7644 20.8449 61.4587 16.3234L61.9487 15.0067L63.2857 15.4354C67.0214 16.6398 69.5322 20.1509 69.5322 24.1825C69.5322 27.3058 69.0525 28.1733 67.9502 29.439C67.8175 29.5921 67.6848 29.7452 67.5419 29.9289C67.1949 30.3678 67.1235 30.9495 67.348 31.4701C67.5624 31.9498 68.0727 32.2968 68.6034 32.3274C70.1651 32.4193 71.6756 32.8786 72.9923 33.7462C74.309 34.6137 75.3296 35.7671 76.0441 37.1348C76.3299 37.6962 76.5646 38.2779 76.7382 38.8801C77.2893 40.8296 76.2789 42.8505 75.0949 44.3407C74.1252 45.5655 72.829 46.5351 71.3694 47.0965C70.4815 47.4435 69.5526 47.6171 68.6034 47.6783Z" fill="#5065F6"/>
<path d="M31.2374 39.2169C31.2374 33.8379 26.9404 29.4695 21.6636 29.4695C20.847 29.4695 20.1836 30.1329 20.1836 30.9495C20.1836 31.766 20.847 32.4192 21.6636 32.4192C25.3073 32.4192 28.2775 35.471 28.2775 39.2169C28.2775 39.768 28.2979 40.3294 28.2571 40.8806C28.2163 41.3092 28.1448 41.7277 28.0325 42.136C27.808 42.9321 27.4508 43.6874 26.9608 44.361C26.4709 45.0347 25.8891 45.5858 25.2053 46.0247C24.5214 46.4636 23.7559 46.7902 22.9496 46.9535C22.5311 47.0352 22.0922 47.0862 21.6636 47.0862C20.847 47.0862 20.1836 47.7497 20.1836 48.556C20.1836 49.3623 20.847 50.036 21.6636 50.036C22.5005 50.036 23.3375 49.9237 24.1438 49.6991C24.9501 49.4746 25.6952 49.1684 26.3995 48.7499C27.1037 48.3314 27.7467 47.8517 28.3183 47.2801C28.8899 46.7086 29.4002 46.0656 29.8187 45.3715C30.2372 44.6774 30.5842 43.9017 30.819 43.1158C31.1558 41.9829 31.2681 40.7887 31.2374 39.6149C31.2374 39.4822 31.2374 39.3496 31.2374 39.2169Z" fill="#5065F6"/>
<path d="M49.8134 39.2169C49.8134 33.8379 54.1104 29.4695 59.3873 29.4695C60.2038 29.4695 60.8673 30.1329 60.8673 30.9495C60.8673 31.766 60.2038 32.4192 59.3873 32.4192C55.7435 32.4192 52.7734 35.471 52.7734 39.2169C52.7734 39.768 52.7529 40.3294 52.7938 40.8806C52.8346 41.3092 52.906 41.7277 53.0183 42.136C53.2429 42.9321 53.6001 43.6874 54.09 44.361C54.5799 45.0347 55.1617 45.5858 55.8456 46.0247C56.5294 46.4636 57.2949 46.7902 58.1012 46.9535C58.5197 47.0352 58.9586 47.0862 59.3873 47.0862C60.2038 47.0862 60.8673 47.7497 60.8673 48.556C60.8673 49.3623 60.2038 50.036 59.3873 50.036C58.5503 50.036 57.7134 49.9237 56.9071 49.6991C56.1007 49.4746 55.3557 49.1684 54.6514 48.7499C53.9471 48.3314 53.3041 47.8517 52.7325 47.2801C52.161 46.7086 51.6506 46.0656 51.2321 45.3715C50.8137 44.6774 50.4666 43.9017 50.2319 43.1158C49.8951 41.9829 49.7828 40.7887 49.8134 39.6149C49.8134 39.4822 49.8134 39.3496 49.8134 39.2169Z" fill="#5065F6"/>
</svg>
