<svg width="30" height="30" viewBox="0 0 30 30" fill="none" xmlns="http://www.w3.org/2000/svg">
<mask id="mask0_986_12847" style="mask-type:alpha" maskUnits="userSpaceOnUse" x="0" y="0" width="30" height="30">
<circle cx="15" cy="15" r="15" fill="#D9D9D9"/>
</mask>
<g mask="url(#mask0_986_12847)">
<rect x="-7" y="-1" width="43.2" height="32.4" fill="#BDD6FC"/>
</g>
<path d="M19.8966 9H9.32185C8.59181 9 8 9.59181 8 10.3218V18.2529C8 18.983 8.59181 19.5748 9.32185 19.5748H19.8966C20.6267 19.5748 21.2185 18.983 21.2185 18.2529V10.3218C21.2185 9.59181 20.6267 9 19.8966 9Z" fill="#E3E8F6"/>
<path d="M10 10H20.5748V17.9311H10V10Z" fill="#F8F7FE"/>
<path d="M11 10H20.5834V17.9311H11V10Z" fill="white"/>
<path d="M11 12H18.2702V16.6265H11V12Z" fill="#F3A845"/>
<path d="M11 16.644L14.6351 14L18.2702 16.644H11Z" fill="#FCE79C"/>
<path d="M20.2271 21H8.99139C8.72845 21 8.47629 21.1044 8.29037 21.2904C8.10445 21.4763 8 21.7285 8 21.9914V24.3046H21.2185V21.9914C21.2185 21.7285 21.114 21.4763 20.9281 21.2904C20.7422 21.1044 20.49 21 20.2271 21Z" fill="#E3E8F6"/>
<path d="M8.04358 22H6.99139C6.72845 22 6.47629 22.1044 6.29037 22.2904C6.10445 22.4763 6 22.7285 6 22.9914V24.6437H7.98277V22.3305C7.98384 22.2176 8.00441 22.1058 8.04358 22ZM22.1926 22H21.1404C21.1796 22.1058 21.2002 22.2176 21.2013 22.3305V24.6437H23.184V22.9914C23.184 22.7285 23.0796 22.4763 22.8937 22.2904C22.7077 22.1044 22.4556 22 22.1926 22Z" fill="#3079E6"/>
<path d="M20.2357 21H9.99139C9.72845 21 9.47629 21.1044 9.29037 21.2904C9.10445 21.4763 9 21.7285 9 21.9914V24.3046H21.2271V21.9914C21.2271 21.7285 21.1226 21.4763 20.9367 21.2904C20.7508 21.1044 20.4986 21 20.2357 21Z" fill="#F8F7FE"/>
<path d="M13 20H16.3046V21.3218H13V20Z" fill="#2763BB"/>
<path d="M13.6351 19.8966H16.2788V21.2185H13.6351V19.8966ZM18.592 8H10.6609C10.4856 8 10.3175 8.06963 10.1936 8.19358C10.0696 8.31753 10 8.48564 10 8.66092V9.32185H19.2529V8.66092C19.2529 8.48564 19.1833 8.31753 19.0594 8.19358C18.9354 8.06963 18.7673 8 18.592 8Z" fill="#3079E6"/>
<path d="M11 23H18.2702V24.3218H11V23Z" fill="#2763BB"/>
<path d="M11.9483 22.5662H18.2271V23.888H11.9483V22.5662ZM6.99139 11C6.72845 11 6.47629 11.1044 6.29037 11.2904C6.10445 11.4763 6 11.7285 6 11.9914V15.9569C6 16.2199 6.10445 16.472 6.29037 16.6579C6.47629 16.8439 6.72845 16.9483 6.99139 16.9483H7.98277V11H6.99139ZM22.1926 11H21.2013V16.9483H22.1926C22.4556 16.9483 22.7077 16.8439 22.8937 16.6579C23.0796 16.472 23.184 16.2199 23.184 15.9569V11.9914C23.184 11.7285 23.0796 11.4763 22.8937 11.2904C22.7077 11.1044 22.4556 11 22.1926 11Z" fill="#3079E6"/>
<path d="M11 12L14.6351 15.3043L18.2702 12H11Z" fill="#EECC61"/>
<path d="M14.6609 5.32185C15.0259 5.32185 15.3218 5.02594 15.3218 4.66092C15.3218 4.29591 15.0259 4 14.6609 4C14.2959 4 14 4.29591 14 4.66092C14 5.02594 14.2959 5.32185 14.6609 5.32185Z" fill="#2763BB"/>
<path d="M15.4957 5.27492C15.7695 5.27492 15.9914 4.98952 15.9914 4.63746C15.9914 4.2854 15.7695 4 15.4957 4C15.2219 4 15 4.2854 15 4.63746C15 4.98952 15.2219 5.27492 15.4957 5.27492Z" fill="#3079E6"/>
<path d="M20.2099 19.8663C20.6479 19.8658 21.0679 19.6915 21.3776 19.3818C21.6874 19.072 21.8617 18.652 21.8622 18.214V17.5531H22.5231C22.8737 17.5531 23.2099 17.4138 23.4578 17.1659C23.7057 16.918 23.845 16.5818 23.845 16.2312V12.2657C23.845 11.9151 23.7057 11.5789 23.4578 11.331C23.2099 11.0831 22.8737 10.9438 22.5231 10.9438H21.8622V10.2829C21.8617 9.84483 21.6874 9.42486 21.3776 9.11511C21.0679 8.80535 20.6479 8.6311 20.2099 8.63058H19.8794V8.30011C19.8794 8.03718 19.775 7.78502 19.589 7.5991C19.4031 7.41318 19.151 7.30873 18.888 7.30873H15.2529V5.92607C15.4734 5.84812 15.6593 5.69473 15.7776 5.49301C15.8959 5.29129 15.9391 5.05424 15.8996 4.82374C15.86 4.59325 15.7403 4.38415 15.5615 4.23341C15.3827 4.08267 15.1563 4 14.9225 4C14.6886 4 14.4623 4.08267 14.2835 4.23341C14.1047 4.38415 13.9849 4.59325 13.9454 4.82374C13.9058 5.05424 13.949 5.29129 14.0674 5.49301C14.1857 5.69473 14.3715 5.84812 14.592 5.92607V7.30873H10.9569C10.694 7.30873 10.4418 7.41318 10.2559 7.5991C10.07 7.78502 9.96554 8.03718 9.96554 8.30011V8.63058H9.63508C9.19702 8.6311 8.77706 8.80535 8.4673 9.11511C8.15755 9.42486 7.9833 9.84483 7.98277 10.2829V10.9438H7.32185C6.97127 10.9438 6.63505 11.0831 6.38716 11.331C6.13927 11.5789 6 11.9151 6 12.2657V16.2312C6 16.5818 6.13927 16.918 6.38716 17.1659C6.63505 17.4138 6.97127 17.5531 7.32185 17.5531H7.98277V18.214C7.9833 18.652 8.15755 19.072 8.4673 19.3818C8.77706 19.6915 9.19702 19.8658 9.63508 19.8663H12.9397V20.5272H9.30462C9.07363 20.5279 8.84689 20.5894 8.64713 20.7054C8.44738 20.8214 8.28163 20.9879 8.16651 21.1881H7.32185C6.97127 21.1881 6.63505 21.3274 6.38716 21.5753C6.13927 21.8232 6 22.1594 6 22.51V24.1623C6 24.2499 6.03482 24.334 6.09679 24.396C6.15876 24.4579 6.24282 24.4928 6.33046 24.4928H23.5145C23.6021 24.4928 23.6862 24.4579 23.7482 24.396C23.8101 24.334 23.845 24.2499 23.845 24.1623V22.51C23.845 22.1594 23.7057 21.8232 23.4578 21.5753C23.2099 21.3274 22.8737 21.1881 22.5231 21.1881H21.6784C21.5633 20.9879 21.3976 20.8214 21.1978 20.7054C20.9981 20.5894 20.7713 20.5279 20.5403 20.5272H16.9052V19.8663H20.2099ZM22.5231 11.6047C22.6984 11.6047 22.8665 11.6744 22.9904 11.7983C23.1144 11.9223 23.184 12.0904 23.184 12.2657V16.2312C23.184 16.4065 23.1144 16.5746 22.9904 16.6985C22.8665 16.8225 22.6984 16.8921 22.5231 16.8921H21.8622V11.6047H22.5231ZM14.9225 4.66503C14.9878 4.66503 15.0517 4.68441 15.1061 4.72072C15.1604 4.75704 15.2028 4.80865 15.2278 4.86903C15.2528 4.92941 15.2593 4.99586 15.2466 5.05996C15.2338 5.12407 15.2024 5.18295 15.1561 5.22916C15.1099 5.27538 15.051 5.30685 14.9869 5.31961C14.9228 5.33236 14.8564 5.32581 14.796 5.3008C14.7356 5.27579 14.684 5.23343 14.6477 5.17909C14.6114 5.12474 14.592 5.06085 14.592 4.99549C14.592 4.90785 14.6268 4.82379 14.6888 4.76182C14.7508 4.69985 14.8348 4.66503 14.9225 4.66503ZM7.32185 16.8921C7.14656 16.8921 6.97845 16.8225 6.8545 16.6985C6.73056 16.5746 6.66092 16.4065 6.66092 16.2312V12.2657C6.66092 12.0904 6.73056 11.9223 6.8545 11.7983C6.97845 11.6744 7.14656 11.6047 7.32185 11.6047H7.98277V16.8921H7.32185ZM10.6265 8.30011C10.6265 8.21247 10.6613 8.12842 10.7233 8.06644C10.7852 8.00447 10.8693 7.96965 10.9569 7.96965H18.888C18.9757 7.96965 19.0597 8.00447 19.1217 8.06644C19.1837 8.12842 19.2185 8.21247 19.2185 8.30011V8.63058H10.6265V8.30011ZM8.6437 18.214V10.2829C8.6437 10.02 8.74815 9.76779 8.93407 9.58187C9.11999 9.39595 9.37215 9.2915 9.63508 9.2915H20.2099C20.4728 9.2915 20.725 9.39595 20.9109 9.58187C21.0968 9.76779 21.2013 10.02 21.2013 10.2829V18.214C21.2013 18.4769 21.0968 18.7291 20.9109 18.915C20.725 19.1009 20.4728 19.2054 20.2099 19.2054H9.63508C9.37215 19.2054 9.11999 19.1009 8.93407 18.915C8.74815 18.7291 8.6437 18.4769 8.6437 18.214ZM7.32185 21.8491H7.98277V22.51H6.66092C6.66092 22.3347 6.73056 22.1666 6.8545 22.0426C6.97845 21.9187 7.14656 21.8491 7.32185 21.8491ZM6.66092 23.1709H7.98277V23.8318H6.66092V23.1709ZM18.2271 23.8318H11.6179V23.1709H18.2271V23.8318ZM21.8622 23.8318V23.1709H23.184V23.8318H21.8622ZM22.5231 21.8491C22.6984 21.8491 22.8665 21.9187 22.9904 22.0426C23.1144 22.1666 23.184 22.3347 23.184 22.51H21.8622V21.8491H22.5231ZM21.2013 21.8491V23.8318H18.888V22.8404C18.888 22.7528 18.8532 22.6687 18.7912 22.6068C18.7293 22.5448 18.6452 22.51 18.5576 22.51H11.2874C11.1997 22.51 11.1157 22.5448 11.0537 22.6068C10.9917 22.6687 10.9569 22.7528 10.9569 22.8404V23.8318H8.6437V21.8491C8.6437 21.6738 8.71333 21.5057 8.83728 21.3817C8.96122 21.2578 9.12933 21.1881 9.30462 21.1881H20.5403C20.7156 21.1881 20.8837 21.2578 21.0077 21.3817C21.1316 21.5057 21.2013 21.6738 21.2013 21.8491ZM16.2443 20.5272H13.6006V19.8663H16.2443V20.5272Z" fill="black"/>
<path d="M20.2357 18.2616V10.3305C20.2357 10.2428 20.2009 10.1588 20.1389 10.0968C20.0769 10.0348 19.9929 10 19.9052 10H9.33046C9.24282 10 9.15876 10.0348 9.09679 10.0968C9.03482 10.1588 9 10.2428 9 10.3305V18.2616C9 18.3492 9.03482 18.4332 9.09679 18.4952C9.15876 18.5572 9.24282 18.592 9.33046 18.592H19.9052C19.9929 18.592 20.0769 18.5572 20.1389 18.4952C20.2009 18.4332 20.2357 18.3492 20.2357 18.2616ZM19.5748 17.9311H9.66092V10.6609H19.5748V17.9311Z" fill="black"/>
<path d="M11.3305 17.2874H18.6006C18.6883 17.2874 18.7723 17.2526 18.8343 17.1906C18.8963 17.1286 18.9311 17.0446 18.9311 16.9569V12.3305C18.9311 12.2428 18.8963 12.1588 18.8343 12.0968C18.7723 12.0348 18.6883 12 18.6006 12H11.3305C11.2428 12 11.1588 12.0348 11.0968 12.0968C11.0348 12.1588 11 12.2428 11 12.3305V16.9569C11 17.0446 11.0348 17.1286 11.0968 17.1906C11.1588 17.2526 11.2428 17.2874 11.3305 17.2874ZM14.7431 15.8793C14.804 15.9347 14.8833 15.9653 14.9655 15.9653C15.0478 15.9653 15.1271 15.9347 15.1879 15.8793L15.7963 15.3261L17.5848 16.6265H12.3463L14.1348 15.3261L14.7431 15.8793ZM16.2963 14.872L18.2702 13.0773V16.3079L16.2963 14.872ZM14.9655 15.188L12.1854 12.6609H17.7457L14.9655 15.188ZM13.6354 14.872L11.6609 16.3079V13.0773L13.6354 14.872Z" fill="black"/>
</svg>
