<svg width="60" height="61" viewBox="0 0 60 61" fill="none" xmlns="http://www.w3.org/2000/svg">
<g clipPath="url(#clip0_1810_7680)">
<path d="M59.2433 25.0635L52.8878 21.25V5.06393C52.8878 3.88769 52.4301 2.78296 51.5983 1.95351C50.7677 1.12169 49.6641 0.664062 48.4879 0.664062H11.5109C10.3347 0.664062 9.22994 1.12169 8.4005 1.95351C7.56867 2.78415 7.11105 3.88888 7.11105 5.06393V21.25L0.756748 25.0635C0.28959 25.3424 0 25.8536 0 26.3971V56.263C0 58.6894 1.9735 60.6641 4.39986 60.6641H55.6001C58.0265 60.6641 60 58.6906 60 56.2642V26.3983C60 25.8548 59.7104 25.3436 59.2444 25.0647L59.2433 25.0635ZM52.889 28.1537V24.8776L55.5096 26.4507L52.889 28.1537ZM3.11161 48.6753V29.262L16.198 37.7674L3.11161 48.6753ZM11.5026 3.64219L11.5109 3.77567H48.4927C49.1994 3.77567 49.775 4.35008 49.7773 5.06512V30.1784L29.9994 43.0312L10.2215 30.1784V5.06393C10.2191 4.35604 10.7935 3.77805 11.5026 3.77567V3.64219ZM3.11161 52.7271L18.9294 39.543L29.1521 46.1893C29.4047 46.3538 29.6979 46.4408 29.9994 46.4408C30.3009 46.4408 30.5941 46.3538 30.8467 46.1893L41.0694 39.543L56.8872 52.7271V56.2642C56.8872 56.9745 56.3092 57.5536 55.5989 57.5536H4.39986C3.68959 57.5536 3.11161 56.9757 3.11161 56.2642V52.7271ZM43.802 37.7686L56.8884 29.2632V48.6765L43.802 37.7686ZM4.49044 26.4519L7.11105 24.8788V28.1549L4.49044 26.4519Z" fill="#8C8C8C"/>
<path d="M27.4779 24.6521C27.7711 24.9465 28.162 25.1085 28.5779 25.1085C28.9938 25.1085 29.3823 24.9477 29.6778 24.6521L35.3672 18.9628C35.9738 18.3562 35.9738 17.3694 35.3672 16.7629C35.074 16.4697 34.6831 16.3076 34.266 16.3076C33.8513 16.3076 33.4604 16.4697 33.1672 16.7629L28.5779 21.3522L26.832 19.6063C26.54 19.3251 26.1563 19.1701 25.7511 19.1701C25.3257 19.1701 24.9276 19.3382 24.6321 19.6445C24.0469 20.2499 24.0469 21.1997 24.6333 21.8074L27.4779 24.6521Z" fill="#5065F6"/>
<path d="M29.9991 33.6411C37.1304 33.6411 42.9329 27.8398 42.9329 20.7073C42.9329 13.5748 37.1304 7.77344 29.9991 7.77344C22.8677 7.77344 17.0664 13.5748 17.0664 20.7073C17.0664 27.8398 22.8677 33.6411 29.9991 33.6411ZM29.9991 10.8862C35.4155 10.8862 39.8213 15.2921 39.8213 20.7085C39.8213 26.1249 35.4155 30.5307 29.9991 30.5307C24.5826 30.5307 20.1768 26.1249 20.1768 20.7085C20.1768 15.2921 24.5826 10.8862 29.9991 10.8862Z" fill="#5065F6"/>
</g>
<defs>
<clipPath id="clip0_1810_7680">
<rect width="60" height="60" fill="white" transform="translate(0 0.664062)"/>
</clipPath>
</defs>
</svg>
