<svg width="31" height="31" viewBox="0 0 31 31" fill="none" xmlns="http://www.w3.org/2000/svg">
<circle cx="15.9895" cy="15.5" r="15" fill="#088A43"/>
<path d="M24.9307 16.6463C24.6959 15.9852 24.2014 14.6506 23.864 13.7504C24.6147 10.6977 23.2597 7.60647 20.713 6.04071C20.7103 6.03982 20.7085 6.03803 20.7058 6.03624C20.7049 6.03624 20.7049 6.03534 20.7041 6.03534C21.4735 7.34133 21.9163 8.87842 21.9163 10.5221C21.9163 11.4474 21.7761 12.3396 21.5155 13.1744C20.6184 16.0614 18.2957 18.2783 15.4116 18.9259C14.8484 19.0531 14.2628 19.1203 13.662 19.1203C12.6293 19.1203 11.6402 18.9224 10.7288 18.5614C10.7351 18.5873 10.7413 18.6124 10.7458 18.6384C11.1645 20.7147 9.73713 22.3745 9.65144 22.4722C9.64965 22.474 9.64876 22.4749 9.64787 22.4758H9.64697C9.64697 22.4758 12.5927 24.5637 16.2641 25.249C16.2641 25.249 17.4129 21.2092 19.1509 21.1868C20.8888 21.1626 22.0796 21.6794 22.4572 21.4018C22.8339 21.1259 23.082 17.68 23.4498 17.5716C23.8176 17.4632 25.302 17.697 24.9298 16.6463H24.9307Z" fill="white"/>
<g style="mix-blend-mode:overlay" opacity="0.68">
<path d="M22.2992 13.0427C22.1564 14.1946 21.8386 15.2785 21.3727 16.1724C20.8406 17.1918 20.1265 18.083 19.1232 18.7987C17.9913 19.6067 16.4881 20.1898 14.4592 20.48C11.3118 20.9306 9.74786 22.3826 9.65234 22.4722C9.68448 22.4354 9.91299 22.1703 10.1603 21.7412C10.1852 21.6973 10.2102 21.6526 10.2352 21.6051C10.2459 21.5863 10.2558 21.5666 10.2665 21.5469C10.2834 21.5137 10.3004 21.4806 10.3174 21.4447C10.3906 21.2978 10.462 21.1384 10.5262 20.9664C10.5387 20.9351 10.5512 20.9019 10.5619 20.8688C10.5735 20.8365 10.5851 20.8034 10.5959 20.7685C10.6039 20.747 10.611 20.7237 10.6173 20.7013C10.6289 20.6663 10.6387 20.6305 10.6494 20.5938C10.6601 20.5606 10.6682 20.5266 10.678 20.4917C10.678 20.4917 10.6783 20.4911 10.6789 20.4899C10.6842 20.4666 10.6905 20.4433 10.6958 20.4191C10.7048 20.386 10.7128 20.3519 10.7208 20.3161C10.7298 20.2767 10.7378 20.2382 10.7458 20.1979C10.7503 20.1737 10.7556 20.1486 10.7592 20.1226C10.7646 20.0913 10.7708 20.0581 10.7753 20.0259C10.7815 19.982 10.7887 19.9372 10.7931 19.8915C10.8003 19.8306 10.8065 19.7679 10.811 19.7043C10.8137 19.6757 10.8154 19.6461 10.8163 19.6165C10.8181 19.5861 10.819 19.5547 10.8199 19.5225C10.8208 19.4858 10.8217 19.4472 10.8217 19.4096C10.8217 19.3863 10.8217 19.3639 10.8208 19.3397C10.8208 19.3165 10.8199 19.2932 10.819 19.2699C10.8181 19.2466 10.8172 19.2233 10.8163 19.1991C10.8146 19.1525 10.811 19.1051 10.8056 19.0576C10.8056 19.0477 10.8047 19.0388 10.803 19.0289C10.8003 18.9976 10.7967 18.9653 10.7922 18.9331C10.786 18.8784 10.778 18.8247 10.769 18.7701C10.7574 18.7011 10.744 18.633 10.728 18.5631C10.728 18.5622 10.7271 18.5622 10.7271 18.5613C10.728 18.5605 10.7271 18.5605 10.7271 18.5605H10.728C10.728 18.5605 10.7333 18.5631 10.7369 18.564H10.7378C11.6465 18.9232 12.632 19.1194 13.6612 19.1194C14.2619 19.1194 14.8475 19.0531 15.4107 18.925C18.294 18.2774 20.6166 16.0604 21.5146 13.1735C21.7743 12.3386 21.9154 11.4465 21.9154 10.5212C21.9154 8.87661 21.4726 7.34041 20.7032 6.03442C20.7041 6.03442 20.7041 6.03532 20.705 6.03532C20.7076 6.03711 20.7094 6.0389 20.7121 6.0398C22.143 7.91996 22.6 10.6296 22.2983 13.0427H22.2992Z" fill="white"/>
</g>
<path d="M10.7308 18.5614L10.7288 18.5634C10.7308 18.5614 10.7288 18.5614 10.7288 18.5614H10.7308Z" fill="white"/>
<path d="M22.1312 11.0237C22.1312 11.7439 22.0527 12.4426 21.9027 13.1099C21.2823 15.8921 19.4488 18.1404 17.0637 19.1194C16.2291 19.4625 15.3275 19.6488 14.3867 19.6488C13.0986 19.6488 10.8322 18.6312 10.7331 18.5641C10.7314 18.5632 10.7305 18.5623 10.7305 18.5623C10.7331 18.5632 10.7358 18.5641 10.7394 18.565H10.7403C11.649 18.9241 12.6345 19.1203 13.6637 19.1203C14.2644 19.1203 14.85 19.054 15.4132 18.9259C18.2965 18.2783 20.6191 16.0614 21.5171 13.1744C21.7768 12.3396 21.9179 11.4474 21.9179 10.5221C21.9179 8.87752 21.4751 7.34133 20.7057 6.03534C20.7066 6.03534 20.7066 6.03624 20.7075 6.03624C21.6046 7.44434 22.1339 9.16506 22.1339 11.0237H22.1312Z" fill="white"/>
<path d="M9.64688 22.4778C9.64688 22.4778 13.6084 18.0833 6.9895 14.5227C8.43736 17.2511 5.90763 20.3934 9.64688 22.4769V22.4778Z" fill="white"/>
<g style="mix-blend-mode:overlay" opacity="0.5">
<path d="M9.64694 22.4778C9.64694 22.4778 10.2718 20.0405 8.125 17.0416C8.125 17.0416 9.66658 20.5878 9.64694 22.4778Z" fill="white"/>
</g>
<path d="M10.9902 18.1817C10.9902 18.1817 19.8345 19.2656 19.8345 11.4198C19.8345 11.4198 12.6193 11.5873 10.9902 18.1817Z" fill="white"/>
<g style="mix-blend-mode:overlay" opacity="0.5">
<path d="M10.9902 18.1817C10.9902 18.1817 12.8612 15.043 16.6888 13.6824C16.6888 13.6824 12.2801 16.3651 10.9902 18.1817Z" fill="white"/>
</g>
<path d="M10.7341 16.3409C10.7341 16.3409 12.3435 14.545 9.6192 13.2318C9.6192 13.2318 9.05506 15.5016 10.7341 16.3409Z" fill="white"/>
<g style="mix-blend-mode:overlay" opacity="0.5">
<path d="M10.7341 16.3409C10.7341 16.3409 10.976 15.0116 10.1003 14.0209C10.1003 14.0209 10.7877 15.1496 10.7341 16.3409Z" fill="white"/>
</g>
<path d="M19.3337 7.63885H18.741C18.6383 7.63885 18.5482 7.57257 18.5151 7.47493C18.4839 7.38356 18.4482 7.29578 18.4062 7.21069C18.3607 7.11843 18.3777 7.00825 18.45 6.9348L18.8695 6.5138C18.9632 6.41975 18.9632 6.26837 18.8695 6.17432L18.4027 5.70584C18.3098 5.61269 18.1581 5.61269 18.0652 5.70584L17.6457 6.12684C17.5725 6.20029 17.4627 6.21731 17.3699 6.17163C17.2851 6.12953 17.1976 6.0937 17.1074 6.06235C17.011 6.02921 16.9441 5.93874 16.9441 5.83573V5.24006C16.9441 5.10659 16.837 5 16.7049 5H16.0443C15.9122 5 15.8051 5.10659 15.8051 5.24006V5.83483C15.8051 5.93784 15.7399 6.02831 15.6417 6.06145C15.5516 6.0928 15.4632 6.12863 15.3793 6.17073C15.2874 6.21642 15.1767 6.1994 15.1035 6.12595L14.6839 5.70495C14.5911 5.61179 14.4393 5.61179 14.3465 5.70495L13.8797 6.17342C13.7859 6.26747 13.7859 6.41885 13.8797 6.51291L14.2992 6.9339C14.3724 7.00735 14.3885 7.11753 14.3438 7.20979C14.3019 7.29578 14.2653 7.38267 14.234 7.47403C14.201 7.57077 14.1109 7.63796 14.0082 7.63796H13.4155C13.2834 7.63796 13.1763 7.74455 13.1763 7.87712V8.54086C13.1763 8.67343 13.2834 8.78092 13.4155 8.78092H14.0082C14.1109 8.78092 14.201 8.84631 14.234 8.94394C14.2653 9.03531 14.3028 9.12309 14.3438 9.20819C14.3885 9.30045 14.3724 9.41152 14.2992 9.48408L13.8797 9.90507C13.7859 9.99913 13.7859 10.1505 13.8797 10.2446L14.3465 10.713C14.4393 10.8062 14.5911 10.8062 14.6839 10.713L15.1035 10.292C15.1767 10.2186 15.2874 10.2016 15.3793 10.2472C15.4641 10.2893 15.5516 10.3261 15.6417 10.3565C15.739 10.3897 15.8051 10.4801 15.8051 10.5831V11.1788C15.8051 11.3114 15.9122 11.418 16.0443 11.418H16.7049C16.837 11.418 16.9441 11.3114 16.9441 11.1788V10.5831C16.9441 10.4801 17.0101 10.3897 17.1074 10.3565C17.1976 10.3261 17.286 10.2893 17.3699 10.2472C17.4627 10.2016 17.5725 10.2186 17.6457 10.292L18.0652 10.713C18.1581 10.8062 18.3098 10.8062 18.4027 10.713L18.8695 10.2446C18.9632 10.1505 18.9632 9.99913 18.8695 9.90507L18.45 9.48408C18.3777 9.41152 18.3607 9.30045 18.4062 9.20819C18.4482 9.1222 18.4839 9.03531 18.5151 8.94394C18.5482 8.8472 18.6383 8.78092 18.741 8.78092H19.3337C19.4658 8.78092 19.5729 8.67343 19.5729 8.54086V7.87712C19.5729 7.74455 19.4658 7.63796 19.3337 7.63796V7.63885ZM16.3728 9.4993C15.6623 9.4993 15.0883 8.92245 15.0883 8.21033C15.0883 7.49822 15.6623 6.92047 16.3728 6.92047C17.0833 6.92047 17.6582 7.49732 17.6582 8.21033C17.6582 8.92334 17.0833 9.4993 16.3728 9.4993Z" fill="white"/>
<path d="M12.5694 10.258H12.2962C12.2489 10.258 12.2079 10.2275 12.1918 10.1827C12.1775 10.1406 12.1615 10.1012 12.1418 10.0609C12.1213 10.0188 12.1293 9.96774 12.1623 9.9337L12.356 9.74022C12.3989 9.69633 12.3989 9.62736 12.356 9.58436L12.1409 9.36849C12.0981 9.3246 12.0284 9.3246 11.9856 9.36849L11.7919 9.56286C11.7589 9.59601 11.7071 9.60407 11.6651 9.58257C11.6259 9.56376 11.5857 9.54674 11.5437 9.53241C11.4991 9.51718 11.4688 9.47508 11.4688 9.42761V9.15351C11.4688 9.0926 11.4197 9.04333 11.359 9.04333H11.0546C10.9939 9.04333 10.9448 9.0926 10.9448 9.15351V9.42761C10.9448 9.47508 10.9144 9.51718 10.8698 9.53241C10.8279 9.54674 10.7877 9.56376 10.7484 9.58257C10.7056 9.60317 10.6556 9.59601 10.6217 9.56286L10.4288 9.36849C10.3851 9.3246 10.3164 9.3246 10.2726 9.36849L10.0584 9.58436C10.0147 9.62736 10.0147 9.69633 10.0584 9.74022L10.2512 9.9337C10.2851 9.96774 10.2932 10.0197 10.2717 10.0609C10.253 10.1012 10.236 10.1406 10.2218 10.1827C10.2066 10.2275 10.1646 10.258 10.1173 10.258H9.84417C9.78347 10.258 9.73438 10.3072 9.73438 10.3681V10.6736C9.73438 10.7345 9.78347 10.7838 9.84417 10.7838H10.1173C10.1646 10.7838 10.2066 10.8142 10.2218 10.859C10.236 10.9011 10.253 10.9414 10.2717 10.9808C10.2923 11.0238 10.2851 11.0749 10.2512 11.108L10.0584 11.3024C10.0147 11.3454 10.0147 11.4153 10.0584 11.4583L10.2726 11.6741C10.3164 11.7171 10.3851 11.7171 10.4288 11.6741L10.6217 11.4797C10.6556 11.4466 10.7065 11.4385 10.7484 11.46C10.7877 11.4789 10.8279 11.4959 10.8698 11.5102C10.9144 11.5254 10.9448 11.5675 10.9448 11.6141V11.8882C10.9448 11.95 10.9939 11.9993 11.0546 11.9993H11.359C11.4197 11.9993 11.4688 11.95 11.4688 11.8882V11.6141C11.4688 11.5675 11.4991 11.5254 11.5437 11.5102C11.5857 11.4959 11.6259 11.4789 11.6651 11.46C11.708 11.4394 11.7589 11.4466 11.7919 11.4797L11.9856 11.6741C12.0284 11.7171 12.0981 11.7171 12.1409 11.6741L12.356 11.4583C12.3989 11.4153 12.3989 11.3454 12.356 11.3024L12.1623 11.108C12.1293 11.0749 12.1204 11.0229 12.1418 10.9808C12.1615 10.9414 12.1775 10.9011 12.1918 10.859C12.2079 10.8142 12.2489 10.7838 12.2962 10.7838H12.5694C12.6301 10.7838 12.6792 10.7345 12.6792 10.6736V10.3681C12.6792 10.3072 12.6301 10.258 12.5694 10.258ZM11.2063 11.1161C10.8787 11.1161 10.6145 10.85 10.6145 10.5222C10.6145 10.1944 10.8796 9.92833 11.2063 9.92833C11.533 9.92833 11.7981 10.1944 11.7981 10.5222C11.7981 10.85 11.533 11.1161 11.2063 11.1161Z" fill="white"/>
</svg>
