<svg width="80" height="80" viewBox="0 0 80 80" fill="none" xmlns="http://www.w3.org/2000/svg">
<path d="M33.3887 30.6048C33.3887 32.1984 32.0911 33.4944 30.4975 33.4944C28.9039 33.4944 27.6079 32.1984 27.6079 30.6048C27.6079 29.0112 28.9039 27.7168 30.4975 27.7168C32.0911 27.7168 33.3887 29.0128 33.3887 30.6048Z" fill="#5065F6"/>
<path d="M33.3887 30.6048C33.3887 32.1984 32.0911 33.4944 30.4975 33.4944C28.9039 33.4944 27.6079 32.1984 27.6079 30.6048C27.6079 29.0112 28.9039 27.7168 30.4975 27.7168C32.0911 27.7168 33.3887 29.0128 33.3887 30.6048Z" fill="#5065F6"/>
<path d="M19.1997 30.6048C19.1997 32.1984 17.9037 33.4944 16.3101 33.4944C14.7165 33.4944 13.4189 32.1984 13.4189 30.6048C13.4189 29.0112 14.7165 27.7168 16.3101 27.7168C17.9037 27.7168 19.1997 29.0128 19.1997 30.6048Z" fill="#5065F6"/>
<path d="M19.1997 30.6048C19.1997 32.1984 17.9037 33.4944 16.3101 33.4944C14.7165 33.4944 13.4189 32.1984 13.4189 30.6048C13.4189 29.0112 14.7165 27.7168 16.3101 27.7168C17.9037 27.7168 19.1997 29.0128 19.1997 30.6048Z" fill="#5065F6"/>
<path d="M79.5187 75.9504C79.7299 76.2912 79.7843 76.7008 79.6723 77.1024C79.5587 77.5136 79.2803 77.8576 78.9107 78.048L78.8803 78.0656C76.6259 79.3312 74.0787 80 71.5155 80C68.1283 80 64.8131 78.8624 62.1811 76.7952L61.7379 76.4464L61.2195 76.664C57.5587 78.192 53.6499 78.9664 49.5987 78.9664C42.1619 78.9664 35.0371 76.352 29.5379 71.6032C28.9235 71.072 28.8547 70.1392 29.3859 69.5248C29.6659 69.2 30.0739 69.0144 30.5027 69.0144C30.8547 69.0144 31.1971 69.1408 31.4643 69.3728C36.4259 73.6576 42.8531 76.016 49.5635 76.016C53.6659 76.016 57.7507 75.0992 61.3779 73.3664C61.5747 73.2704 61.7923 73.2208 62.0115 73.2208C62.0915 73.2208 62.1715 73.2272 62.2499 73.24C62.5475 73.2896 62.8195 73.4256 63.0355 73.6352C65.3043 75.8288 68.3139 77.0352 71.5107 77.0352C72.7427 77.0352 73.9587 76.8528 75.1267 76.4896L76.1875 76.16L75.7075 75.1584C73.3219 70.1824 73.0163 64.5648 74.8467 59.3376C74.8595 59.304 74.8723 59.272 74.8851 59.2416C76.3331 55.832 77.0643 52.1952 77.0563 48.4432C77.0403 41.8368 74.8403 35.7216 70.6931 30.76C70.1715 30.136 70.2547 29.2064 70.8787 28.6848C71.1475 28.4608 71.4723 28.3408 71.8211 28.3408C72.2595 28.3408 72.6723 28.5344 72.9539 28.8704C77.4803 34.2864 79.9827 41.2352 80.0003 48.4352C80.0099 52.5584 79.2099 56.56 77.6227 60.328L77.0611 61.6608H77.2163C75.9731 66.4112 76.7875 71.5488 79.5187 75.9504Z" fill="#5065F6"/>
<path d="M79.5187 75.9504C79.7299 76.2912 79.7843 76.7008 79.6723 77.1024C79.5587 77.5136 79.2803 77.8576 78.9107 78.048L78.8803 78.0656C76.6259 79.3312 74.0787 80 71.5155 80C68.1283 80 64.8131 78.8624 62.1811 76.7952L61.7379 76.4464L61.2195 76.664C57.5587 78.192 53.6499 78.9664 49.5987 78.9664C42.1619 78.9664 35.0371 76.352 29.5379 71.6032C28.9235 71.072 28.8547 70.1392 29.3859 69.5248C29.6659 69.2 30.0739 69.0144 30.5027 69.0144C30.8547 69.0144 31.1971 69.1408 31.4643 69.3728C36.4259 73.6576 42.8531 76.016 49.5635 76.016C53.6659 76.016 57.7507 75.0992 61.3779 73.3664C61.5747 73.2704 61.7923 73.2208 62.0115 73.2208C62.0915 73.2208 62.1715 73.2272 62.2499 73.24C62.5475 73.2896 62.8195 73.4256 63.0355 73.6352C65.3043 75.8288 68.3139 77.0352 71.5107 77.0352C72.7427 77.0352 73.9587 76.8528 75.1267 76.4896L76.1875 76.16L75.7075 75.1584C73.3219 70.1824 73.0163 64.5648 74.8467 59.3376C74.8595 59.304 74.8723 59.272 74.8851 59.2416C76.3331 55.832 77.0643 52.1952 77.0563 48.4432C77.0403 41.8368 74.8403 35.7216 70.6931 30.76C70.1715 30.136 70.2547 29.2064 70.8787 28.6848C71.1475 28.4608 71.4723 28.3408 71.8211 28.3408C72.2595 28.3408 72.6723 28.5344 72.9539 28.8704C77.4803 34.2864 79.9827 41.2352 80.0003 48.4352C80.0099 52.5584 79.2099 56.56 77.6227 60.328L77.0611 61.6608H77.2163C75.9731 66.4112 76.7875 71.5488 79.5187 75.9504Z" fill="#5065F6"/>
<path d="M47.5747 30.6048C47.5747 32.1984 46.2787 33.4944 44.6851 33.4944C43.0915 33.4944 41.7939 32.1984 41.7939 30.6048C41.7939 29.0112 43.0915 27.7168 44.6851 27.7168C46.2787 27.7168 47.5747 29.0128 47.5747 30.6048Z" fill="#5065F6"/>
<path d="M47.5747 30.6048C47.5747 32.1984 46.2787 33.4944 44.6851 33.4944C43.0915 33.4944 41.7939 32.1984 41.7939 30.6048C41.7939 29.0112 43.0915 27.7168 44.6851 27.7168C46.2787 27.7168 47.5747 29.0128 47.5747 30.6048Z" fill="#5065F6"/>
<path d="M52.2016 9.2288C46.528 3.4416 39.0432 0.1664 31.1248 0.0064C30.9264 0.0032 30.7248 0 30.528 0C22.4448 0 14.8064 3.1664 9.02085 8.9168C3.22405 14.6768 0.0208541 22.3104 5.41306e-05 30.4096C-0.00794587 33.92 0.872054 36.9344 1.80485 40.1264L1.83045 40.216C2.16965 41.3824 2.52165 42.5904 2.83525 43.848C4.00325 48.5376 3.14565 53.6688 0.484854 57.9216C0.273654 58.2624 0.219254 58.672 0.331254 59.0736C0.444854 59.4848 0.723254 59.832 1.09285 60.0224L1.12165 60.0384C3.41285 61.3232 5.89125 61.976 8.48805 61.976C11.8721 61.976 15.1872 60.8368 17.8208 58.7696L18.264 58.4224L18.784 58.64C22.4432 60.1664 26.2864 60.9408 30.2064 60.9408C38.0336 60.9408 45.848 57.7552 51.6432 52.1984C57.6768 46.4144 60.9984 38.7024 60.9984 30.4848C60.9984 22.2672 57.8736 15.016 52.2 9.2288H52.2016ZM30.272 58.0032C26.2384 58.0032 22.32 57.1072 18.6272 55.3424C18.4272 55.2464 18.2064 55.1968 17.9888 55.1968C17.9104 55.1968 17.8304 55.2032 17.7536 55.216C17.4576 55.264 17.184 55.4 16.9664 55.6096C14.6992 57.8032 11.6897 59.0112 8.49125 59.0112C7.26085 59.0112 6.04325 58.8272 4.87685 58.464L3.81445 58.1344L4.29605 57.1328C6.29605 52.9616 6.83685 48.1712 5.81925 43.648C5.49125 42.1984 5.07045 40.8048 4.66405 39.4576C3.81605 36.6496 2.93925 33.7456 2.94725 30.416C2.98405 15.2688 15.3504 2.9456 30.512 2.9456C30.6976 2.9456 30.88 2.9472 31.0656 2.952C45.9472 3.2512 58.0528 15.6032 58.0528 30.4848C58.0528 45.3664 45.5904 58.0032 30.272 58.0032Z" fill="#5065F6"/>
<path d="M52.2016 9.2288C46.528 3.4416 39.0432 0.1664 31.1248 0.0064C30.9264 0.0032 30.7248 0 30.528 0C22.4448 0 14.8064 3.1664 9.02085 8.9168C3.22405 14.6768 0.0208541 22.3104 5.41306e-05 30.4096C-0.00794587 33.92 0.872054 36.9344 1.80485 40.1264L1.83045 40.216C2.16965 41.3824 2.52165 42.5904 2.83525 43.848C4.00325 48.5376 3.14565 53.6688 0.484854 57.9216C0.273654 58.2624 0.219254 58.672 0.331254 59.0736C0.444854 59.4848 0.723254 59.832 1.09285 60.0224L1.12165 60.0384C3.41285 61.3232 5.89125 61.976 8.48805 61.976C11.8721 61.976 15.1872 60.8368 17.8208 58.7696L18.264 58.4224L18.784 58.64C22.4432 60.1664 26.2864 60.9408 30.2064 60.9408C38.0336 60.9408 45.848 57.7552 51.6432 52.1984C57.6768 46.4144 60.9984 38.7024 60.9984 30.4848C60.9984 22.2672 57.8736 15.016 52.2 9.2288H52.2016ZM30.272 58.0032C26.2384 58.0032 22.32 57.1072 18.6272 55.3424C18.4272 55.2464 18.2064 55.1968 17.9888 55.1968C17.9104 55.1968 17.8304 55.2032 17.7536 55.216C17.4576 55.264 17.184 55.4 16.9664 55.6096C14.6992 57.8032 11.6897 59.0112 8.49125 59.0112C7.26085 59.0112 6.04325 58.8272 4.87685 58.464L3.81445 58.1344L4.29605 57.1328C6.29605 52.9616 6.83685 48.1712 5.81925 43.648C5.49125 42.1984 5.07045 40.8048 4.66405 39.4576C3.81605 36.6496 2.93925 33.7456 2.94725 30.416C2.98405 15.2688 15.3504 2.9456 30.512 2.9456C30.6976 2.9456 30.88 2.9472 31.0656 2.952C45.9472 3.2512 58.0528 15.6032 58.0528 30.4848C58.0528 45.3664 45.5904 58.0032 30.272 58.0032Z" fill="#5065F6"/>
</svg>
