<svg width="604" height="604" viewBox="0 0 604 604" fill="none" xmlns="http://www.w3.org/2000/svg">
<path d="M301.98 603.96C468.759 603.96 603.96 468.759 603.96 301.98C603.96 135.201 468.759 0 301.98 0C135.201 0 0 135.201 0 301.98C0 468.759 135.201 603.96 301.98 603.96Z" fill="#6637EC"/>
<path d="M427.455 319.853C431.428 319.853 434.278 320.716 436.005 322.442C437.905 324.168 438.855 326.412 438.855 329.174C438.855 333.662 437.473 337.632 434.71 341.084C432.119 344.536 427.973 346.349 422.274 346.521C408.628 346.694 396.365 345.658 385.483 343.414C373.393 369.133 358.797 390.537 341.698 407.626C324.771 424.542 308.017 433 291.435 433C276.235 433 264.836 424.974 257.236 408.921C249.636 392.695 245.318 371.032 244.281 343.932C233.918 373.967 222.173 396.32 209.046 410.992C196.091 425.664 182.274 433 167.592 433C151.011 433 138.488 422.73 130.025 402.189C121.561 381.475 117.329 353.685 117.329 318.817C117.329 293.443 119.575 265.566 124.066 235.186C125.275 226.556 127.434 220.601 130.543 217.321C133.824 213.869 138.92 212.143 145.829 212.143C151.011 212.143 154.983 213.265 157.747 215.509C160.683 217.753 162.151 221.895 162.151 227.937C162.151 229.145 161.978 231.475 161.633 234.927C156.451 270.313 153.86 300.434 153.86 325.29C153.86 348.42 155.847 366.285 159.819 378.886C163.792 391.487 169.147 397.787 175.883 397.787C181.928 397.787 189.183 391.487 197.646 378.886C206.282 366.113 214.832 347.298 223.296 322.442C231.759 297.413 238.927 267.638 244.8 233.115C246.181 225.175 248.686 219.738 252.313 216.803C256.113 213.696 261.208 212.143 267.599 212.143C272.954 212.143 276.84 213.351 279.258 215.768C281.849 218.012 283.144 221.464 283.144 226.124C283.144 228.886 282.972 231.044 282.626 232.597C277.79 260.733 275.372 288.869 275.372 317.005C275.372 336.165 275.976 351.441 277.185 362.833C278.567 374.226 281.072 382.942 284.699 388.984C288.499 394.853 293.94 397.787 301.021 397.787C309.312 397.787 318.553 391.573 328.743 379.145C338.934 366.544 348.261 350.923 356.725 332.281C346.189 325.722 338.243 317.264 332.889 306.907C327.534 296.377 324.857 284.295 324.857 270.658C324.857 257.022 326.93 245.543 331.075 236.222C335.393 226.728 341.18 219.651 348.434 214.991C355.861 210.33 364.066 208 373.047 208C384.102 208 392.824 211.97 399.215 219.91C405.778 227.85 409.06 238.725 409.06 252.534C409.06 272.039 404.828 293.702 396.365 317.522C405.174 319.076 415.537 319.853 427.455 319.853ZM351.025 268.846C351.025 285.762 356.466 298.276 367.347 306.389C374.084 287.056 377.452 271.09 377.452 258.489C377.452 251.239 376.502 245.975 374.602 242.695C372.702 239.243 370.111 237.517 366.829 237.517C362.166 237.517 358.366 240.278 355.429 245.802C352.493 251.153 351.025 258.834 351.025 268.846Z" fill="white"/>
<path d="M513.628 336.134C513.628 350.213 502.368 361.625 488.477 361.625C474.587 361.625 463.326 350.213 463.326 336.134C463.326 322.056 474.587 310.643 488.477 310.643C502.368 310.643 513.628 322.056 513.628 336.134Z" fill="white"/>
</svg>
