<svg width="60" height="60" viewBox="0 0 60 60" fill="none" xmlns="http://www.w3.org/2000/svg">
<g filter="url(#filter0_d_4589_2372)">
<rect x="10" y="10" width="40" height="40" rx="20" fill="#E6E6E6"/>
</g>
<path d="M33.6938 21.7549C32.9755 21.7549 32.3919 21.1743 32.3859 20.462L27.738 17.8253H24.2812L16.9008 22.0901C16.3442 22.4133 16 23.0059 16 23.6494V29.0814L23.6737 29.0963L27.1454 34.8576L43.3278 34.8456V29.2939H38.8534L34.3851 26.0496H29.7372C29.6354 26.4447 29.4289 26.8068 29.1386 27.1001C28.7047 27.5341 28.13 27.7735 27.5165 27.7735C26.2475 27.7735 25.218 26.744 25.218 25.478C25.218 24.212 26.2475 23.1825 27.5135 23.1795C28.5221 23.1795 29.408 23.8379 29.7043 24.7926H34.7951L39.2635 28.0369H42.9836L43.3278 27.7526V23.6523C43.3278 23.0089 42.9836 22.4133 42.4269 22.0931L30.5662 15.2424C30.0096 14.9192 29.3212 14.9192 28.7645 15.2424L26.463 16.5712H28.0223L32.9845 19.3576C33.1969 19.2169 33.4424 19.1451 33.6908 19.1451C34.412 19.1451 34.9986 19.7317 34.9986 20.45C34.9986 20.8002 34.864 21.1264 34.6156 21.3748C34.3701 21.6232 34.0409 21.7579 33.6908 21.7579L33.6938 21.7549Z" fill="#009ECD"/>
<path d="M35.8187 40.454C35.3428 40.454 34.9029 40.1907 34.6754 39.7777L23.111 39.7866L19.1186 33.759H16.006V37.0063C16.006 37.6497 16.3502 38.2453 16.9068 38.5655L28.7675 45.4132C29.0459 45.5748 29.3571 45.6556 29.6684 45.6556C29.9796 45.6556 30.2909 45.5748 30.5692 45.4132L42.4299 38.5655C42.9866 38.2423 43.3308 37.6497 43.3308 37.0063V35.7612L26.4361 35.7732L22.9644 30.012L16 30V32.505H19.783L23.7754 38.5326L34.6664 38.5266C34.8939 38.1106 35.3338 37.8473 35.8097 37.8473C36.531 37.8473 37.1176 38.4339 37.1176 39.1521C37.1176 39.5023 36.9829 39.8285 36.7345 40.0769C36.4891 40.3253 36.1599 40.46 35.8097 40.46L35.8187 40.454Z" fill="#5065F6"/>
<path d="M26.3053 24.3083C26.1077 24.5058 26 24.7662 26 25.0415C26 25.6131 26.4669 26.08 27.0385 26.08C27.3169 26.08 27.5772 25.9723 27.7748 25.7748C27.9723 25.5772 28.08 25.3169 28.077 25.0385C28.077 24.4669 27.6102 24 27.0385 24C26.7602 24 26.4998 24.1077 26.3023 24.3053L26.3053 24.3083Z" fill="#009ECD"/>
<path d="M30 50C41.0457 50 50 41.0457 50 30C50 18.9543 41.0457 10 30 10C18.9543 10 10 18.9543 10 30C10 41.0457 18.9543 50 30 50Z" fill="white"/>
<path d="M38.3105 31.1833C38.5736 31.1833 38.7624 31.2405 38.8767 31.3548C39.0026 31.4691 39.0655 31.6178 39.0655 31.8007C39.0655 32.0979 38.974 32.3608 38.791 32.5895C38.6194 32.8181 38.3448 32.9382 37.9673 32.9496C37.0636 32.961 36.2514 32.8924 35.5307 32.7438C34.73 34.4472 33.7633 35.8648 32.6308 36.9965C31.5098 38.1169 30.4001 38.677 29.3019 38.677C28.2953 38.677 27.5403 38.1454 27.0369 37.0823C26.5336 36.0077 26.2476 34.5729 26.179 32.7781C25.4926 34.7673 24.7147 36.2477 23.8453 37.2195C22.9874 38.1912 22.0722 38.677 21.0999 38.677C20.0017 38.677 19.1723 37.9968 18.6118 36.6364C18.0513 35.2646 17.771 33.424 17.771 31.1148C17.771 29.4342 17.9197 27.588 18.2171 25.5759C18.2972 25.0043 18.4402 24.6099 18.6461 24.3927C18.8635 24.1641 19.2009 24.0498 19.6585 24.0498C20.0017 24.0498 20.2648 24.1241 20.4478 24.2727C20.6423 24.4213 20.7395 24.6957 20.7395 25.0958C20.7395 25.1758 20.7281 25.3301 20.7052 25.5588C20.362 27.9024 20.1904 29.8972 20.1904 31.5435C20.1904 33.0753 20.322 34.2586 20.5851 35.0931C20.8482 35.9276 21.2028 36.3449 21.649 36.3449C22.0493 36.3449 22.5298 35.9276 23.0903 35.0931C23.6623 34.2471 24.2286 33.001 24.7891 31.3548C25.3496 29.6972 25.8244 27.7252 26.2133 25.4388C26.3048 24.9129 26.4707 24.5528 26.7109 24.3584C26.9626 24.1526 27.3 24.0498 27.7233 24.0498C28.0779 24.0498 28.3353 24.1298 28.4955 24.2898C28.6671 24.4384 28.7529 24.6671 28.7529 24.9758C28.7529 25.1587 28.7414 25.3016 28.7185 25.4045C28.3982 27.2679 28.2381 29.1313 28.2381 30.9947C28.2381 32.2637 28.2781 33.2754 28.3582 34.0299C28.4497 34.7844 28.6156 35.3618 28.8558 35.7619C29.1075 36.1506 29.4678 36.3449 29.9368 36.3449C30.4859 36.3449 31.0979 35.9334 31.7729 35.1102C32.4478 34.2757 33.0655 33.2411 33.626 32.0065C32.9282 31.572 32.402 31.0119 32.0474 30.3259C31.6928 29.6286 31.5155 28.8283 31.5155 27.9252C31.5155 27.0221 31.6527 26.2619 31.9273 25.6445C32.2133 25.0158 32.5965 24.5471 33.077 24.2384C33.5688 23.9297 34.1122 23.7754 34.7071 23.7754C35.4392 23.7754 36.0169 24.0383 36.4401 24.5642C36.8748 25.0901 37.0922 25.8103 37.0922 26.7249C37.0922 28.0167 36.8119 29.4514 36.2514 31.029C36.8348 31.1319 37.5212 31.1833 38.3105 31.1833ZM33.2485 27.8052C33.2485 28.9255 33.6089 29.7543 34.3296 30.2916C34.7757 29.0113 34.9988 27.9538 34.9988 27.1193C34.9988 26.6391 34.9359 26.2904 34.81 26.0732C34.6842 25.8446 34.5126 25.7303 34.2953 25.7303C33.9864 25.7303 33.7347 25.9132 33.5403 26.279C33.3458 26.6334 33.2485 27.1421 33.2485 27.8052Z" fill="#6637EC"/>
<path d="M44.0175 32.2615C44.0175 33.1939 43.2717 33.9497 42.3518 33.9497C41.4318 33.9497 40.686 33.1939 40.686 32.2615C40.686 31.3291 41.4318 30.5732 42.3518 30.5732C43.2717 30.5732 44.0175 31.3291 44.0175 32.2615Z" fill="#6637EC"/>
<defs>
<filter id="filter0_d_4589_2372" x="0" y="0" width="60" height="60" filterUnits="userSpaceOnUse" color-interpolation-filters="sRGB">
<feFlood flood-opacity="0" result="BackgroundImageFix"/>
<feColorMatrix in="SourceAlpha" type="matrix" values="0 0 0 0 0 0 0 0 0 0 0 0 0 0 0 0 0 0 127 0" result="hardAlpha"/>
<feOffset/>
<feGaussianBlur stdDeviation="5"/>
<feComposite in2="hardAlpha" operator="out"/>
<feColorMatrix type="matrix" values="0 0 0 0 0 0 0 0 0 0 0 0 0 0 0 0 0 0 0.1 0"/>
<feBlend mode="normal" in2="BackgroundImageFix" result="effect1_dropShadow_4589_2372"/>
<feBlend mode="normal" in="SourceGraphic" in2="effect1_dropShadow_4589_2372" result="shape"/>
</filter>
</defs>
</svg>
