<svg width="18" height="18" viewBox="0 0 18 18" fill="none" xmlns="http://www.w3.org/2000/svg">
<path d="M14.7845 8.99996C14.4294 8.99996 14.1416 9.28777 14.1416 9.64283V16.0714C14.1416 16.4264 13.8538 16.7143 13.4988 16.7143H1.92841C1.57339 16.7143 1.28559 16.4264 1.28559 16.0714V3.21422C1.28559 2.85917 1.57339 2.57135 1.92841 2.57135H9.64205C9.99707 2.57135 10.2849 2.28353 10.2849 1.92848C10.2849 1.57342 9.99707 1.28564 9.64205 1.28564H1.92841C0.863377 1.28564 0 2.1491 0 3.21422V16.0714C0 17.1365 0.863377 18 1.92841 18H13.4989C14.5639 18 15.4273 17.1365 15.4273 16.0714V9.64279C15.4273 9.28777 15.1395 8.99996 14.7845 8.99996Z" fill="#404040"/>
<path d="M17.2793 0.720936C17.0507 0.49234 16.7794 0.311013 16.4808 0.187315C16.1822 0.0636163 15.8621 -3.05325e-05 15.5389 1.03209e-05C15.2155 -0.000929674 14.8952 0.0623483 14.5965 0.186174C14.2977 0.31 14.0266 0.491909 13.7987 0.72135L5.33114 9.18893C5.2609 9.25972 5.20789 9.34573 5.17622 9.4403L3.89054 13.2977C3.77834 13.6346 3.96045 13.9986 4.29731 14.1108C4.36266 14.1326 4.4311 14.1437 4.49995 14.1438C4.56897 14.1436 4.63753 14.1326 4.70309 14.111L8.56015 12.8252C8.65488 12.7936 8.74095 12.7403 8.81149 12.6696L17.279 4.20137C18.2401 3.24033 18.2402 1.68208 17.2793 0.720936ZM16.37 3.29292L8.01308 11.6506L5.51627 12.4844L6.34746 9.99062L14.7076 1.63296C15.1672 1.17422 15.9117 1.17497 16.3704 1.63462C16.5895 1.85419 16.713 2.15146 16.7139 2.46166C16.7143 2.61606 16.6841 2.76901 16.6251 2.91169C16.5661 3.05436 16.4794 3.18393 16.37 3.29292Z" fill="#404040"/>
</svg>
