<svg width="40" height="40" viewBox="0 0 40 40" fill="none" xmlns="http://www.w3.org/2000/svg">
<rect width="40" height="40" rx="5" fill="#5065F6"/>
<path fillRule="evenodd" clipRule="evenodd" d="M28.2791 27.4419C28.2791 28.12 28.0093 28.7712 27.5302 29.2512C27.05 29.7304 26.3994 29.9997 25.7209 30H14.5581C13.88 30 13.2288 29.7302 12.7488 29.2512C12.2696 28.771 12.0003 28.1203 12 27.4419V12.5581C12 11.88 12.2698 11.2288 12.7488 10.7488C13.229 10.2696 13.8797 10.0003 14.5581 10H22.5451C22.9767 10 23.3907 10.1712 23.6958 10.4772L27.8019 14.5833C28.1079 14.8884 28.2791 15.3023 28.2791 15.734V27.4419ZM26.8837 27.4419V15.734C26.8838 15.7034 26.8778 15.6731 26.8662 15.6449C26.8545 15.6166 26.8374 15.5909 26.8158 15.5693L22.7098 11.4633C22.6881 11.4417 22.6625 11.4246 22.6342 11.4129C22.6059 11.4013 22.5757 11.3953 22.5451 11.3953H14.5581C14.2499 11.3958 13.9544 11.5185 13.7365 11.7365C13.5185 11.9544 13.3958 12.2499 13.3953 12.5581V27.4419C13.3958 27.7501 13.5185 28.0456 13.7365 28.2635C13.9544 28.4815 14.2499 28.6042 14.5581 28.6047H25.7209C26.0292 28.6042 26.3246 28.4815 26.5426 28.2635C26.7606 28.0456 26.8832 27.7501 26.8837 27.4419Z" fill="white"/>
<path fillRule="evenodd" clipRule="evenodd" d="M22.5116 10.6977C22.5116 10.5126 22.5851 10.3352 22.716 10.2043C22.8468 10.0735 23.0243 10 23.2093 10C23.3943 10 23.5718 10.0735 23.7026 10.2043C23.8335 10.3352 23.907 10.5126 23.907 10.6977V13.9535C23.907 14.0819 24.0112 14.186 24.1395 14.186H27.3953C27.5804 14.186 27.7578 14.2596 27.8887 14.3904C28.0195 14.5212 28.093 14.6987 28.093 14.8837C28.093 15.0688 28.0195 15.2462 27.8887 15.3771C27.7578 15.5079 27.5804 15.5814 27.3953 15.5814H24.1395C23.7078 15.5814 23.2937 15.4099 22.9884 15.1046C22.6831 14.7993 22.5116 14.3852 22.5116 13.9535V10.6977ZM16.6977 18.8372C16.5126 18.8372 16.3352 18.7637 16.2043 18.6329C16.0735 18.502 16 18.3246 16 18.1395C16 17.9545 16.0735 17.777 16.2043 17.6462C16.3352 17.5154 16.5126 17.4419 16.6977 17.4419H24.1395C24.3246 17.4419 24.502 17.5154 24.6329 17.6462C24.7637 17.777 24.8372 17.9545 24.8372 18.1395C24.8372 18.3246 24.7637 18.502 24.6329 18.6329C24.502 18.7637 24.3246 18.8372 24.1395 18.8372H16.6977ZM16.6977 22.093C16.5126 22.093 16.3352 22.0195 16.2043 21.8887C16.0735 21.7578 16 21.5804 16 21.3953C16 21.2103 16.0735 21.0329 16.2043 20.902C16.3352 20.7712 16.5126 20.6977 16.6977 20.6977H24.1395C24.3246 20.6977 24.502 20.7712 24.6329 20.902C24.7637 21.0329 24.8372 21.2103 24.8372 21.3953C24.8372 21.5804 24.7637 21.7578 24.6329 21.8887C24.502 22.0195 24.3246 22.093 24.1395 22.093H16.6977ZM16.6977 25.3488C16.5126 25.3488 16.3352 25.2753 16.2043 25.1445C16.0735 25.0137 16 24.8362 16 24.6512C16 24.4661 16.0735 24.2887 16.2043 24.1578C16.3352 24.027 16.5126 23.9535 16.6977 23.9535H20.8837C21.0688 23.9535 21.2462 24.027 21.3771 24.1578C21.5079 24.2887 21.5814 24.4661 21.5814 24.6512C21.5814 24.8362 21.5079 25.0137 21.3771 25.1445C21.2462 25.2753 21.0688 25.3488 20.8837 25.3488H16.6977Z" fill="white"/>
</svg>
