<svg width="57" height="60" viewBox="0 0 57 60" fill="none" xmlns="http://www.w3.org/2000/svg">
<g clipPath="url(#clip0_1988_2329)">
<path d="M12.6 59.9999C8.50854 59.9999 5.18091 56.6723 5.18091 52.5808V33.1993C5.18091 29.1078 8.50854 25.7802 12.6 25.7802H12.971V19.342C12.971 12.5072 18.5309 6.94531 25.3678 6.94531C32.2046 6.94531 37.7605 12.5052 37.7605 19.342V25.7802H38.1316C40.9599 25.7802 43.5079 27.3611 44.777 29.9072C45.0789 30.5111 44.8322 31.2473 44.2283 31.5493C44.0566 31.6341 43.873 31.6775 43.6816 31.6775C43.2138 31.6775 42.7934 31.417 42.5862 31.0006C41.7335 29.2914 40.0263 28.2295 38.1316 28.2295H12.6C9.85854 28.2295 7.62828 30.4598 7.62828 33.2012V52.5828C7.62828 55.3243 9.85854 57.5545 12.6 57.5545H38.1296C40.871 57.5545 43.1013 55.3243 43.1013 52.5828V50.9269C43.1013 50.2519 43.65 49.7032 44.325 49.7032C45 49.7032 45.5487 50.2519 45.5487 50.9269V52.5828C45.5487 56.6743 42.221 60.0019 38.1296 60.0019H12.6V59.9999ZM35.3131 25.7782V19.34C35.3131 13.8552 30.8526 9.39268 25.3678 9.39268C19.8829 9.39268 15.4204 13.8552 15.4204 19.34V25.7782H19.5V19.34C19.5 16.1052 22.1329 13.4723 25.3678 13.4723C28.6026 13.4723 31.2316 16.1052 31.2316 19.34V25.7782H35.3112H35.3131ZM28.7842 25.7782V19.34C28.7842 17.4868 27.2191 15.9197 25.3678 15.9197C23.5164 15.9197 21.9474 17.4868 21.9474 19.34V25.7782H28.7842Z" fill="#8C8C8C"/>
<path d="M49.3441 27.902C48.9868 27.902 48.6473 27.7461 48.4145 27.4737L43.277 21.4757C43.0875 21.2546 42.9829 20.9724 42.9829 20.6803C42.9829 20.3526 43.1092 20.0447 43.3401 19.8138C43.571 19.5829 43.8789 19.4546 44.2066 19.4546H47.5145C44.8539 9.41447 35.8184 2.44737 25.3697 2.44737C12.7322 2.44737 2.4513 12.7283 2.44932 25.3638C2.44932 26.0388 1.90064 26.5875 1.22564 26.5875C0.550638 26.5875 0.00195338 26.0388 0.00195338 25.3638C-2.03024e-05 11.3783 11.3802 0 25.3677 0C31.0973 0 36.7243 1.9796 41.2145 5.57171C45.6138 9.09079 48.7381 14.0132 50.0368 19.4566H54.4776C54.7697 19.4566 55.0519 19.5612 55.273 19.7507C55.5217 19.9638 55.6717 20.2599 55.6973 20.5855C55.723 20.9112 55.6204 21.227 55.4072 21.4757L50.2737 27.4737C50.2322 27.5211 50.1868 27.5664 50.1395 27.6079C49.9184 27.7974 49.6362 27.902 49.3441 27.902ZM49.3421 24.7954L51.8171 21.9039H46.8651L49.3421 24.7954Z" fill="#5065F6"/>
<path d="M25.8592 53.0618C25.3184 53.0618 24.8782 52.6216 24.8782 52.0808V47.8335H22.4171C20.3269 47.8335 18.6256 46.1322 18.6256 44.042V37.0493C18.6256 34.9591 20.3269 33.2578 22.4171 33.2578H52.9401C55.0322 33.2578 56.7355 34.9591 56.7355 37.0493V44.042C56.7355 46.1322 55.0322 47.8335 52.9401 47.8335H31.6539L26.544 52.7854C26.3605 52.9631 26.1177 53.0618 25.8611 53.0618H25.8592ZM22.4151 35.2197C21.4065 35.2197 20.5855 36.0407 20.5855 37.0493V44.042C20.5855 45.0506 21.4065 45.8716 22.4151 45.8716H25.8592C26.4 45.8716 26.8401 46.3118 26.8401 46.8525V49.7637L30.5703 46.1479C30.7539 45.9703 30.9967 45.8716 31.2532 45.8716H52.9361C53.9467 45.8716 54.7677 45.0506 54.7677 44.042V37.0493C54.7677 36.0407 53.9467 35.2197 52.9361 35.2197H22.4151Z" fill="#5065F6"/>
<path d="M31.2079 39.641L29.55 40.5982L31.2079 41.5555C31.5395 41.7469 31.652 42.1693 31.4625 42.5008C31.3381 42.716 31.1092 42.8482 30.8625 42.8462C30.7421 42.8462 30.6217 42.8147 30.5171 42.7535L28.8592 41.7962V43.7087C28.8592 44.0916 28.5493 44.4015 28.1664 44.4015C27.7835 44.4015 27.4737 44.0916 27.4737 43.7087V41.7962L25.8158 42.7535C25.4842 42.9449 25.0618 42.8324 24.8704 42.5008C24.6789 42.1693 24.7934 41.7469 25.123 41.5555L26.7809 40.5982L25.123 39.641C24.7934 39.4456 24.6849 39.0212 24.8802 38.6936C25.0717 38.3699 25.4881 38.2594 25.8158 38.4429L27.4737 39.4002V37.4877C27.4737 37.1048 27.7835 36.7949 28.1664 36.7949C28.5493 36.7949 28.8592 37.1048 28.8592 37.4877V39.4002L30.5171 38.4429C30.8487 38.2515 31.271 38.366 31.4625 38.6956C31.6539 39.0272 31.5395 39.4495 31.2099 39.641H31.2079Z" fill="#5065F6"/>
<path d="M40.4684 39.641L38.8105 40.5982L40.4684 41.5554C40.8 41.7469 40.9125 42.1692 40.723 42.5008C40.5987 42.716 40.3697 42.8482 40.123 42.8462C40.0026 42.8462 39.8822 42.8146 39.7776 42.7535L38.1197 41.7962V43.7087C38.1158 44.0916 37.802 44.3975 37.4191 44.3916C37.0441 44.3877 36.7401 44.0837 36.7362 43.7087V41.7962L35.0783 42.7535C34.7467 42.9449 34.3243 42.8324 34.1329 42.5008C33.9414 42.1692 34.0559 41.7469 34.3855 41.5554L36.0434 40.5982L34.3855 39.641C34.0559 39.4456 33.9474 39.0212 34.1428 38.6936C34.3342 38.3699 34.7507 38.2594 35.0783 38.4429L36.7362 39.4002V37.4877C36.7401 37.1048 37.0539 36.7989 37.4368 36.8048C37.8118 36.8087 38.1158 37.1127 38.1197 37.4877V39.4002L39.7776 38.4429C40.1092 38.2515 40.5316 38.366 40.723 38.6956C40.9145 39.0252 40.8 39.4495 40.4704 39.641H40.4684Z" fill="#5065F6"/>
<path d="M49.725 39.641L48.069 40.5982L49.725 41.5555C50.0585 41.741 50.1789 42.1633 49.9914 42.4969C49.8059 42.8305 49.3835 42.9508 49.05 42.7633C49.0441 42.7594 49.0381 42.7574 49.0322 42.7535L47.3783 41.7982V43.7087C47.3783 44.0916 47.0684 44.4015 46.6855 44.4015C46.3026 44.4015 45.9927 44.0916 45.9927 43.7087V41.7962L44.3348 42.7535C44.0033 42.9449 43.5809 42.8324 43.3894 42.5008C43.198 42.1693 43.3125 41.7469 43.6421 41.5555L45.298 40.5982L43.6421 39.641C43.3085 39.4555 43.1881 39.0331 43.3756 38.6995C43.5612 38.366 43.9835 38.2456 44.3171 38.4331C44.323 38.437 44.3289 38.439 44.3348 38.4429L45.9927 39.4002V37.4877C45.9927 37.1048 46.3026 36.7949 46.6855 36.7949C47.0684 36.7949 47.3783 37.1048 47.3783 37.4877V39.3982L49.0322 38.4429C49.3638 38.2515 49.7862 38.366 49.9776 38.6956C50.169 39.0272 50.0546 39.4495 49.725 39.641Z" fill="#5065F6"/>
</g>
<defs>
<clipPath id="clip0_1988_2329">
<rect width="56.7316" height="60" fill="white"/>
</clipPath>
</defs>
</svg>
