<svg width="72" height="81" viewBox="0 0 72 81" fill="none" xmlns="http://www.w3.org/2000/svg">
<path d="M46.5127 17.7578C44.6382 17.7578 43.1152 16.2426 43.0996 14.3838L30.9701 7.50285H21.9491L2.68881 18.6326C1.23608 19.4761 0.337891 21.0226 0.337891 22.7018V36.8776L20.3636 36.9166L29.4236 51.9516L71.6542 51.9203V37.4321H59.9777L48.3169 28.9657H36.1874C35.9219 29.9967 35.3829 30.9417 34.6253 31.7071C33.4928 32.8396 31.9933 33.4645 30.3921 33.4645C27.0805 33.4645 24.3938 30.7777 24.3938 27.4739C24.3938 24.1701 27.0805 21.4834 30.3843 21.4756C33.0164 21.4756 35.3283 23.1939 36.1015 25.6854H49.3869L61.0478 34.1518H70.756L71.6542 33.4098V22.7096C71.6542 21.0304 70.756 19.4761 69.3033 18.6404L38.3509 0.762521C36.8982 -0.0809967 35.1018 -0.0809967 33.649 0.762521L27.6429 4.23032H31.7121L44.6616 11.5018C45.2162 11.1347 45.8566 10.9472 46.5049 10.9472C48.3872 10.9472 49.918 12.478 49.918 14.3525C49.918 15.2663 49.5665 16.1177 48.9183 16.7659C48.2778 17.4142 47.4187 17.7657 46.5049 17.7657L46.5127 17.7578Z" fill="#009ECD"/>
<path d="M52.058 66.556C50.8162 66.556 49.6681 65.8687 49.0745 64.7908L18.8953 64.8143L8.47628 49.0842H0.353511V57.5584C0.353511 59.2377 1.2517 60.7919 2.70443 61.6276L33.6569 79.4977C34.3832 79.9195 35.1955 80.1304 36.0078 80.1304C36.8201 80.1304 37.6323 79.9195 38.3587 79.4977L69.3111 61.6276C70.7638 60.7841 71.662 59.2377 71.662 57.5584V54.3093L27.5726 54.3406L18.5126 39.3057L0.337891 39.2744V45.8117H10.2102L20.6292 61.5417L49.0511 61.5261C49.6446 60.4405 50.7928 59.7532 52.0346 59.7532C53.9169 59.7532 55.4477 61.284 55.4477 63.1585C55.4477 64.0723 55.0963 64.9236 54.448 65.5719C53.8076 66.2201 52.9484 66.5716 52.0346 66.5716L52.058 66.556Z" fill="#5065F6"/>
<path d="M28.4242 25.6336C27.9087 26.1491 27.6276 26.8286 27.6276 27.5471C27.6276 29.0389 28.846 30.2573 30.3378 30.2573C31.0641 30.2573 31.7436 29.9761 32.2591 29.4606C32.7746 28.9452 33.0558 28.2657 33.0479 27.5393C33.0479 26.0475 31.8295 24.8291 30.3378 24.8291C29.6114 24.8291 28.9319 25.1103 28.4164 25.6258L28.4242 25.6336Z" fill="#009ECD"/>
</svg>
