<svg width="30" height="24" viewBox="0 0 30 24" fill="none" xmlns="http://www.w3.org/2000/svg">
<path fillRule="evenodd" clipRule="evenodd" d="M0 1.5C0 0.671573 0.671573 0 1.5 0H28.5C29.3284 0 30 0.671573 30 1.5C30 2.32843 29.3284 3 28.5 3H1.5C0.671573 3 0 2.32843 0 1.5ZM0 12C0 11.1716 0.671573 10.5 1.5 10.5H28.5C29.3284 10.5 30 11.1716 30 12C30 12.8284 29.3284 13.5 28.5 13.5H1.5C0.671573 13.5 0 12.8284 0 12ZM0 22.5C0 21.6716 0.671573 21 1.5 21H28.5C29.3284 21 30 21.6716 30 22.5C30 23.3284 29.3284 24 28.5 24H1.5C0.671573 24 0 23.3284 0 22.5Z" fill="black"/>
</svg>
