<svg width="80" height="80" viewBox="0 0 80 80" fill="none" xmlns="http://www.w3.org/2000/svg">
<path d="M62.473 17.527C62.1598 17.2138 61.7444 17.0418 61.303 17.0418H18.697C18.254 17.0418 17.8385 17.2138 17.527 17.527C17.2138 17.8385 17.0418 18.254 17.0418 18.697C17.0418 19.14 17.2138 19.5538 17.527 19.8653C17.8385 20.1785 18.254 20.3505 18.697 20.3505H61.303C61.7444 20.3505 62.1598 20.1785 62.473 19.8653C62.7846 19.5538 62.9566 19.1383 62.9566 18.697C62.9566 18.2556 62.7846 17.8385 62.473 17.527ZM62.473 17.527C62.1598 17.2138 61.7444 17.0418 61.303 17.0418H18.697C18.254 17.0418 17.8385 17.2138 17.527 17.527C17.2138 17.8385 17.0418 18.254 17.0418 18.697C17.0418 19.14 17.2138 19.5538 17.527 19.8653C17.8385 20.1785 18.254 20.3505 18.697 20.3505H61.303C61.7444 20.3505 62.1598 20.1785 62.473 19.8653C62.7846 19.5538 62.9566 19.1383 62.9566 18.697C62.9566 18.2556 62.7846 17.8385 62.473 17.527ZM62.473 17.527C62.1598 17.2138 61.7444 17.0418 61.303 17.0418H18.697C18.254 17.0418 17.8385 17.2138 17.527 17.527C17.2138 17.8385 17.0418 18.254 17.0418 18.697C17.0418 19.14 17.2138 19.5538 17.527 19.8653C17.8385 20.1785 18.254 20.3505 18.697 20.3505H61.303C61.7444 20.3505 62.1598 20.1785 62.473 19.8653C62.7846 19.5538 62.9566 19.1383 62.9566 18.697C62.9566 18.2556 62.7846 17.8385 62.473 17.527ZM62.473 17.527C62.1598 17.2138 61.7444 17.0418 61.303 17.0418H18.697C18.254 17.0418 17.8385 17.2138 17.527 17.527C17.2138 17.8385 17.0418 18.254 17.0418 18.697C17.0418 19.14 17.2138 19.5538 17.527 19.8653C17.8385 20.1785 18.254 20.3505 18.697 20.3505H61.303C61.7444 20.3505 62.1598 20.1785 62.473 19.8653C62.7846 19.5538 62.9566 19.1383 62.9566 18.697C62.9566 18.2556 62.7846 17.8385 62.473 17.527ZM62.473 17.527C62.1598 17.2138 61.7444 17.0418 61.303 17.0418H18.697C18.254 17.0418 17.8385 17.2138 17.527 17.527C17.2138 17.8385 17.0418 18.254 17.0418 18.697C17.0418 19.14 17.2138 19.5538 17.527 19.8653C17.8385 20.1785 18.254 20.3505 18.697 20.3505H61.303C61.7444 20.3505 62.1598 20.1785 62.473 19.8653C62.7846 19.5538 62.9566 19.1383 62.9566 18.697C62.9566 18.2556 62.7846 17.8385 62.473 17.527ZM62.473 17.527C62.1598 17.2138 61.7444 17.0418 61.303 17.0418H18.697C18.254 17.0418 17.8385 17.2138 17.527 17.527C17.2138 17.8385 17.0418 18.254 17.0418 18.697C17.0418 19.14 17.2138 19.5538 17.527 19.8653C17.8385 20.1785 18.254 20.3505 18.697 20.3505H61.303C61.7444 20.3505 62.1598 20.1785 62.473 19.8653C62.7846 19.5538 62.9566 19.1383 62.9566 18.697C62.9566 18.2556 62.7846 17.8385 62.473 17.527ZM69.8239 0H10.1744C4.56471 0 0 5.1927 0 11.5765V39.2876C0 42.1923 1.59351 44.6588 4.06166 45.5724C4.6783 45.8012 5.3144 45.9181 5.94888 45.9181C7.54726 45.9181 9.0499 45.1927 10.1809 43.8734L13.1927 40.3684C14.4779 38.8673 16.172 38.0398 17.9635 38.0398H69.8239C75.4353 38.0398 80 32.8471 80 26.4633V11.5813C80 5.19432 75.4353 0 69.8239 0ZM76.6929 26.46C76.6929 31.0183 73.6114 34.7278 69.8239 34.7278H17.9635C15.2389 34.7278 12.5858 35.9968 10.684 38.2085L7.66734 41.7201C7.03773 42.4487 6.37728 42.6012 5.9359 42.6012C5.62434 42.6012 5.39067 42.5266 5.28357 42.4941L5.243 42.4811L5.20243 42.4649C4.05193 42.0333 3.3071 40.7854 3.3071 39.2844V11.5716C3.3071 7.01339 6.38864 3.30385 10.1744 3.30385H69.8239C73.6114 3.30385 76.6929 7.01339 76.6929 11.5716V26.46ZM61.303 17.0418H18.697C18.254 17.0418 17.8385 17.2138 17.527 17.527C17.2138 17.8385 17.0418 18.254 17.0418 18.697C17.0418 19.14 17.2138 19.5538 17.527 19.8653C17.8385 20.1785 18.254 20.3505 18.697 20.3505H61.303C61.7444 20.3505 62.1598 20.1785 62.473 19.8653C62.7846 19.5538 62.9566 19.1383 62.9566 18.697C62.9566 18.2556 62.7846 17.8385 62.473 17.527C62.1598 17.2138 61.7444 17.0418 61.303 17.0418ZM62.473 17.527C62.1598 17.2138 61.7444 17.0418 61.303 17.0418H18.697C18.254 17.0418 17.8385 17.2138 17.527 17.527C17.2138 17.8385 17.0418 18.254 17.0418 18.697C17.0418 19.14 17.2138 19.5538 17.527 19.8653C17.8385 20.1785 18.254 20.3505 18.697 20.3505H61.303C61.7444 20.3505 62.1598 20.1785 62.473 19.8653C62.7846 19.5538 62.9566 19.1383 62.9566 18.697C62.9566 18.2556 62.7846 17.8385 62.473 17.527ZM62.473 17.527C62.1598 17.2138 61.7444 17.0418 61.303 17.0418H18.697C18.254 17.0418 17.8385 17.2138 17.527 17.527C17.2138 17.8385 17.0418 18.254 17.0418 18.697C17.0418 19.14 17.2138 19.5538 17.527 19.8653C17.8385 20.1785 18.254 20.3505 18.697 20.3505H61.303C61.7444 20.3505 62.1598 20.1785 62.473 19.8653C62.7846 19.5538 62.9566 19.1383 62.9566 18.697C62.9566 18.2556 62.7846 17.8385 62.473 17.527ZM62.473 17.527C62.1598 17.2138 61.7444 17.0418 61.303 17.0418H18.697C18.254 17.0418 17.8385 17.2138 17.527 17.527C17.2138 17.8385 17.0418 18.254 17.0418 18.697C17.0418 19.14 17.2138 19.5538 17.527 19.8653C17.8385 20.1785 18.254 20.3505 18.697 20.3505H61.303C61.7444 20.3505 62.1598 20.1785 62.473 19.8653C62.7846 19.5538 62.9566 19.1383 62.9566 18.697C62.9566 18.2556 62.7846 17.8385 62.473 17.527ZM62.473 17.527C62.1598 17.2138 61.7444 17.0418 61.303 17.0418H18.697C18.254 17.0418 17.8385 17.2138 17.527 17.527C17.2138 17.8385 17.0418 18.254 17.0418 18.697C17.0418 19.14 17.2138 19.5538 17.527 19.8653C17.8385 20.1785 18.254 20.3505 18.697 20.3505H61.303C61.7444 20.3505 62.1598 20.1785 62.473 19.8653C62.7846 19.5538 62.9566 19.1383 62.9566 18.697C62.9566 18.2556 62.7846 17.8385 62.473 17.527ZM62.473 17.527C62.1598 17.2138 61.7444 17.0418 61.303 17.0418H18.697C18.254 17.0418 17.8385 17.2138 17.527 17.527C17.2138 17.8385 17.0418 18.254 17.0418 18.697C17.0418 19.14 17.2138 19.5538 17.527 19.8653C17.8385 20.1785 18.254 20.3505 18.697 20.3505H61.303C61.7444 20.3505 62.1598 20.1785 62.473 19.8653C62.7846 19.5538 62.9566 19.1383 62.9566 18.697C62.9566 18.2556 62.7846 17.8385 62.473 17.527ZM62.473 64.3943C62.1598 64.0811 61.746 63.9108 61.303 63.9108H35.7387C35.2974 63.9108 34.8819 64.0811 34.5704 64.3943C34.2621 64.701 34.0852 65.1278 34.0852 65.5643C34.0852 66.0008 34.2572 66.4211 34.5704 66.7327C34.8819 67.0458 35.2974 67.2179 35.7387 67.2179H61.303C61.7444 67.2179 62.1598 67.0458 62.473 66.7327C62.7846 66.4211 62.9566 66.0057 62.9566 65.5643C62.9566 65.1229 62.7797 64.7026 62.473 64.3943ZM62.473 64.3943C62.1598 64.0811 61.746 63.9108 61.303 63.9108H35.7387C35.2974 63.9108 34.8819 64.0811 34.5704 64.3943C34.2621 64.701 34.0852 65.1278 34.0852 65.5643C34.0852 66.0008 34.2572 66.4211 34.5704 66.7327C34.8819 67.0458 35.2974 67.2179 35.7387 67.2179H61.303C61.7444 67.2179 62.1598 67.0458 62.473 66.7327C62.7846 66.4211 62.9566 66.0057 62.9566 65.5643C62.9566 65.1229 62.7797 64.7026 62.473 64.3943ZM62.473 64.3943C62.1598 64.0811 61.746 63.9108 61.303 63.9108H35.7387C35.2974 63.9108 34.8819 64.0811 34.5704 64.3943C34.2621 64.701 34.0852 65.1278 34.0852 65.5643C34.0852 66.0008 34.2572 66.4211 34.5704 66.7327C34.8819 67.0458 35.2974 67.2179 35.7387 67.2179H61.303C61.7444 67.2179 62.1598 67.0458 62.473 66.7327C62.7846 66.4211 62.9566 66.0057 62.9566 65.5643C62.9566 65.1229 62.7797 64.7026 62.473 64.3943ZM62.473 64.3943C62.1598 64.0811 61.746 63.9108 61.303 63.9108H35.7387C35.2974 63.9108 34.8819 64.0811 34.5704 64.3943C34.2621 64.701 34.0852 65.1278 34.0852 65.5643C34.0852 66.0008 34.2572 66.4211 34.5704 66.7327C34.8819 67.0458 35.2974 67.2179 35.7387 67.2179H61.303C61.7444 67.2179 62.1598 67.0458 62.473 66.7327C62.7846 66.4211 62.9566 66.0057 62.9566 65.5643C62.9566 65.1229 62.7797 64.7026 62.473 64.3943ZM62.473 64.3943C62.1598 64.0811 61.746 63.9108 61.303 63.9108H35.7387C35.2974 63.9108 34.8819 64.0811 34.5704 64.3943C34.2621 64.701 34.0852 65.1278 34.0852 65.5643C34.0852 66.0008 34.2572 66.4211 34.5704 66.7327C34.8819 67.0458 35.2974 67.2179 35.7387 67.2179H61.303C61.7444 67.2179 62.1598 67.0458 62.473 66.7327C62.7846 66.4211 62.9566 66.0057 62.9566 65.5643C62.9566 65.1229 62.7797 64.7026 62.473 64.3943ZM62.473 64.3943C62.1598 64.0811 61.746 63.9108 61.303 63.9108H35.7387C35.2974 63.9108 34.8819 64.0811 34.5704 64.3943C34.2621 64.701 34.0852 65.1278 34.0852 65.5643C34.0852 66.0008 34.2572 66.4211 34.5704 66.7327C34.8819 67.0458 35.2974 67.2179 35.7387 67.2179H61.303C61.7444 67.2179 62.1598 67.0458 62.473 66.7327C62.7846 66.4211 62.9566 66.0057 62.9566 65.5643C62.9566 65.1229 62.7797 64.7026 62.473 64.3943ZM77.0174 54.1112C75.0945 52.1899 72.5404 51.1302 69.8239 51.1286H27.2195C24.5014 51.1302 21.9473 52.1882 20.0243 54.1112C18.103 56.0325 17.045 58.5866 17.0418 61.303V69.8239C17.045 72.5404 18.103 75.0945 20.0243 77.0174C21.9473 78.9387 24.5014 79.9984 27.2178 80H69.8239C72.5404 80 75.0945 78.9387 77.0174 77.0174C78.9387 75.0945 79.9984 72.5404 80 69.8239V61.3047C79.9984 58.5866 78.9387 56.0325 77.0174 54.1112ZM76.6929 69.8239C76.6929 73.6114 73.6114 76.6913 69.8239 76.6913H27.2178C23.4304 76.6913 20.3505 73.6114 20.3505 69.8239V61.303C20.3505 57.5156 23.4304 54.4357 27.2178 54.4357H69.8239C73.6114 54.4357 76.6929 57.5156 76.6929 61.303V69.8239ZM61.303 63.9108H35.7387C35.2974 63.9108 34.8819 64.0811 34.5704 64.3943C34.2621 64.701 34.0852 65.1278 34.0852 65.5643C34.0852 66.0008 34.2572 66.4211 34.5704 66.7327C34.8819 67.0458 35.2974 67.2179 35.7387 67.2179H61.303C61.7444 67.2179 62.1598 67.0458 62.473 66.7327C62.7846 66.4211 62.9566 66.0057 62.9566 65.5643C62.9566 65.1229 62.7797 64.7026 62.473 64.3943C62.1598 64.0811 61.746 63.9108 61.303 63.9108ZM62.473 64.3943C62.1598 64.0811 61.746 63.9108 61.303 63.9108H35.7387C35.2974 63.9108 34.8819 64.0811 34.5704 64.3943C34.2621 64.701 34.0852 65.1278 34.0852 65.5643C34.0852 66.0008 34.2572 66.4211 34.5704 66.7327C34.8819 67.0458 35.2974 67.2179 35.7387 67.2179H61.303C61.7444 67.2179 62.1598 67.0458 62.473 66.7327C62.7846 66.4211 62.9566 66.0057 62.9566 65.5643C62.9566 65.1229 62.7797 64.7026 62.473 64.3943ZM62.473 64.3943C62.1598 64.0811 61.746 63.9108 61.303 63.9108H35.7387C35.2974 63.9108 34.8819 64.0811 34.5704 64.3943C34.2621 64.701 34.0852 65.1278 34.0852 65.5643C34.0852 66.0008 34.2572 66.4211 34.5704 66.7327C34.8819 67.0458 35.2974 67.2179 35.7387 67.2179H61.303C61.7444 67.2179 62.1598 67.0458 62.473 66.7327C62.7846 66.4211 62.9566 66.0057 62.9566 65.5643C62.9566 65.1229 62.7797 64.7026 62.473 64.3943ZM62.473 64.3943C62.1598 64.0811 61.746 63.9108 61.303 63.9108H35.7387C35.2974 63.9108 34.8819 64.0811 34.5704 64.3943C34.2621 64.701 34.0852 65.1278 34.0852 65.5643C34.0852 66.0008 34.2572 66.4211 34.5704 66.7327C34.8819 67.0458 35.2974 67.2179 35.7387 67.2179H61.303C61.7444 67.2179 62.1598 67.0458 62.473 66.7327C62.7846 66.4211 62.9566 66.0057 62.9566 65.5643C62.9566 65.1229 62.7797 64.7026 62.473 64.3943ZM62.473 64.3943C62.1598 64.0811 61.746 63.9108 61.303 63.9108H35.7387C35.2974 63.9108 34.8819 64.0811 34.5704 64.3943C34.2621 64.701 34.0852 65.1278 34.0852 65.5643C34.0852 66.0008 34.2572 66.4211 34.5704 66.7327C34.8819 67.0458 35.2974 67.2179 35.7387 67.2179H61.303C61.7444 67.2179 62.1598 67.0458 62.473 66.7327C62.7846 66.4211 62.9566 66.0057 62.9566 65.5643C62.9566 65.1229 62.7797 64.7026 62.473 64.3943ZM62.473 64.3943C62.1598 64.0811 61.746 63.9108 61.303 63.9108H35.7387C35.2974 63.9108 34.8819 64.0811 34.5704 64.3943C34.2621 64.701 34.0852 65.1278 34.0852 65.5643C34.0852 66.0008 34.2572 66.4211 34.5704 66.7327C34.8819 67.0458 35.2974 67.2179 35.7387 67.2179H61.303C61.7444 67.2179 62.1598 67.0458 62.473 66.7327C62.7846 66.4211 62.9566 66.0057 62.9566 65.5643C62.9566 65.1229 62.7797 64.7026 62.473 64.3943ZM62.473 17.527C62.1598 17.2138 61.7444 17.0418 61.303 17.0418H18.697C18.254 17.0418 17.8385 17.2138 17.527 17.527C17.2138 17.8385 17.0418 18.254 17.0418 18.697C17.0418 19.14 17.2138 19.5538 17.527 19.8653C17.8385 20.1785 18.254 20.3505 18.697 20.3505H61.303C61.7444 20.3505 62.1598 20.1785 62.473 19.8653C62.7846 19.5538 62.9566 19.1383 62.9566 18.697C62.9566 18.2556 62.7846 17.8385 62.473 17.527ZM62.473 64.3943C62.1598 64.0811 61.746 63.9108 61.303 63.9108H35.7387C35.2974 63.9108 34.8819 64.0811 34.5704 64.3943C34.2621 64.701 34.0852 65.1278 34.0852 65.5643C34.0852 66.0008 34.2572 66.4211 34.5704 66.7327C34.8819 67.0458 35.2974 67.2179 35.7387 67.2179H61.303C61.7444 67.2179 62.1598 67.0458 62.473 66.7327C62.7846 66.4211 62.9566 66.0057 62.9566 65.5643C62.9566 65.1229 62.7797 64.7026 62.473 64.3943Z" fill="#5065F6"/>
<path d="M62.473 64.3943C62.1598 64.0811 61.746 63.9108 61.303 63.9108H35.7387C35.2974 63.9108 34.8819 64.0811 34.5704 64.3943C34.2621 64.701 34.0852 65.1278 34.0852 65.5643C34.0852 66.0008 34.2572 66.4211 34.5704 66.7327C34.8819 67.0458 35.2974 67.2179 35.7387 67.2179H61.303C61.7444 67.2179 62.1598 67.0458 62.473 66.7327C62.7846 66.4211 62.9566 66.0057 62.9566 65.5643C62.9566 65.1229 62.7797 64.7026 62.473 64.3943ZM62.473 64.3943C62.1598 64.0811 61.746 63.9108 61.303 63.9108H35.7387C35.2974 63.9108 34.8819 64.0811 34.5704 64.3943C34.2621 64.701 34.0852 65.1278 34.0852 65.5643C34.0852 66.0008 34.2572 66.4211 34.5704 66.7327C34.8819 67.0458 35.2974 67.2179 35.7387 67.2179H61.303C61.7444 67.2179 62.1598 67.0458 62.473 66.7327C62.7846 66.4211 62.9566 66.0057 62.9566 65.5643C62.9566 65.1229 62.7797 64.7026 62.473 64.3943ZM62.473 64.3943C62.1598 64.0811 61.746 63.9108 61.303 63.9108H35.7387C35.2974 63.9108 34.8819 64.0811 34.5704 64.3943C34.2621 64.701 34.0852 65.1278 34.0852 65.5643C34.0852 66.0008 34.2572 66.4211 34.5704 66.7327C34.8819 67.0458 35.2974 67.2179 35.7387 67.2179H61.303C61.7444 67.2179 62.1598 67.0458 62.473 66.7327C62.7846 66.4211 62.9566 66.0057 62.9566 65.5643C62.9566 65.1229 62.7797 64.7026 62.473 64.3943ZM62.473 64.3943C62.1598 64.0811 61.746 63.9108 61.303 63.9108H35.7387C35.2974 63.9108 34.8819 64.0811 34.5704 64.3943C34.2621 64.701 34.0852 65.1278 34.0852 65.5643C34.0852 66.0008 34.2572 66.4211 34.5704 66.7327C34.8819 67.0458 35.2974 67.2179 35.7387 67.2179H61.303C61.7444 67.2179 62.1598 67.0458 62.473 66.7327C62.7846 66.4211 62.9566 66.0057 62.9566 65.5643C62.9566 65.1229 62.7797 64.7026 62.473 64.3943ZM62.473 64.3943C62.1598 64.0811 61.746 63.9108 61.303 63.9108H35.7387C35.2974 63.9108 34.8819 64.0811 34.5704 64.3943C34.2621 64.701 34.0852 65.1278 34.0852 65.5643C34.0852 66.0008 34.2572 66.4211 34.5704 66.7327C34.8819 67.0458 35.2974 67.2179 35.7387 67.2179H61.303C61.7444 67.2179 62.1598 67.0458 62.473 66.7327C62.7846 66.4211 62.9566 66.0057 62.9566 65.5643C62.9566 65.1229 62.7797 64.7026 62.473 64.3943ZM62.473 64.3943C62.1598 64.0811 61.746 63.9108 61.303 63.9108H35.7387C35.2974 63.9108 34.8819 64.0811 34.5704 64.3943C34.2621 64.701 34.0852 65.1278 34.0852 65.5643C34.0852 66.0008 34.2572 66.4211 34.5704 66.7327C34.8819 67.0458 35.2974 67.2179 35.7387 67.2179H61.303C61.7444 67.2179 62.1598 67.0458 62.473 66.7327C62.7846 66.4211 62.9566 66.0057 62.9566 65.5643C62.9566 65.1229 62.7797 64.7026 62.473 64.3943ZM77.0174 54.1112C75.0945 52.1899 72.5404 51.1302 69.8239 51.1286H27.2195C24.5014 51.1302 21.9473 52.1882 20.0243 54.1112C18.103 56.0325 17.045 58.5866 17.0418 61.303V69.8239C17.045 72.5404 18.103 75.0945 20.0243 77.0174C21.9473 78.9387 24.5014 79.9984 27.2178 80H69.8239C72.5404 80 75.0945 78.9387 77.0174 77.0174C78.9387 75.0945 79.9984 72.5404 80 69.8239V61.3047C79.9984 58.5866 78.9387 56.0325 77.0174 54.1112ZM76.6929 69.8239C76.6929 73.6114 73.6114 76.6913 69.8239 76.6913H27.2178C23.4304 76.6913 20.3505 73.6114 20.3505 69.8239V61.303C20.3505 57.5156 23.4304 54.4357 27.2178 54.4357H69.8239C73.6114 54.4357 76.6929 57.5156 76.6929 61.303V69.8239ZM61.303 63.9108H35.7387C35.2974 63.9108 34.8819 64.0811 34.5704 64.3943C34.2621 64.701 34.0852 65.1278 34.0852 65.5643C34.0852 66.0008 34.2572 66.4211 34.5704 66.7327C34.8819 67.0458 35.2974 67.2179 35.7387 67.2179H61.303C61.7444 67.2179 62.1598 67.0458 62.473 66.7327C62.7846 66.4211 62.9566 66.0057 62.9566 65.5643C62.9566 65.1229 62.7797 64.7026 62.473 64.3943C62.1598 64.0811 61.746 63.9108 61.303 63.9108ZM62.473 64.3943C62.1598 64.0811 61.746 63.9108 61.303 63.9108H35.7387C35.2974 63.9108 34.8819 64.0811 34.5704 64.3943C34.2621 64.701 34.0852 65.1278 34.0852 65.5643C34.0852 66.0008 34.2572 66.4211 34.5704 66.7327C34.8819 67.0458 35.2974 67.2179 35.7387 67.2179H61.303C61.7444 67.2179 62.1598 67.0458 62.473 66.7327C62.7846 66.4211 62.9566 66.0057 62.9566 65.5643C62.9566 65.1229 62.7797 64.7026 62.473 64.3943ZM62.473 64.3943C62.1598 64.0811 61.746 63.9108 61.303 63.9108H35.7387C35.2974 63.9108 34.8819 64.0811 34.5704 64.3943C34.2621 64.701 34.0852 65.1278 34.0852 65.5643C34.0852 66.0008 34.2572 66.4211 34.5704 66.7327C34.8819 67.0458 35.2974 67.2179 35.7387 67.2179H61.303C61.7444 67.2179 62.1598 67.0458 62.473 66.7327C62.7846 66.4211 62.9566 66.0057 62.9566 65.5643C62.9566 65.1229 62.7797 64.7026 62.473 64.3943ZM62.473 64.3943C62.1598 64.0811 61.746 63.9108 61.303 63.9108H35.7387C35.2974 63.9108 34.8819 64.0811 34.5704 64.3943C34.2621 64.701 34.0852 65.1278 34.0852 65.5643C34.0852 66.0008 34.2572 66.4211 34.5704 66.7327C34.8819 67.0458 35.2974 67.2179 35.7387 67.2179H61.303C61.7444 67.2179 62.1598 67.0458 62.473 66.7327C62.7846 66.4211 62.9566 66.0057 62.9566 65.5643C62.9566 65.1229 62.7797 64.7026 62.473 64.3943ZM62.473 64.3943C62.1598 64.0811 61.746 63.9108 61.303 63.9108H35.7387C35.2974 63.9108 34.8819 64.0811 34.5704 64.3943C34.2621 64.701 34.0852 65.1278 34.0852 65.5643C34.0852 66.0008 34.2572 66.4211 34.5704 66.7327C34.8819 67.0458 35.2974 67.2179 35.7387 67.2179H61.303C61.7444 67.2179 62.1598 67.0458 62.473 66.7327C62.7846 66.4211 62.9566 66.0057 62.9566 65.5643C62.9566 65.1229 62.7797 64.7026 62.473 64.3943ZM62.473 64.3943C62.1598 64.0811 61.746 63.9108 61.303 63.9108H35.7387C35.2974 63.9108 34.8819 64.0811 34.5704 64.3943C34.2621 64.701 34.0852 65.1278 34.0852 65.5643C34.0852 66.0008 34.2572 66.4211 34.5704 66.7327C34.8819 67.0458 35.2974 67.2179 35.7387 67.2179H61.303C61.7444 67.2179 62.1598 67.0458 62.473 66.7327C62.7846 66.4211 62.9566 66.0057 62.9566 65.5643C62.9566 65.1229 62.7797 64.7026 62.473 64.3943ZM62.473 64.3943C62.1598 64.0811 61.746 63.9108 61.303 63.9108H35.7387C35.2974 63.9108 34.8819 64.0811 34.5704 64.3943C34.2621 64.701 34.0852 65.1278 34.0852 65.5643C34.0852 66.0008 34.2572 66.4211 34.5704 66.7327C34.8819 67.0458 35.2974 67.2179 35.7387 67.2179H61.303C61.7444 67.2179 62.1598 67.0458 62.473 66.7327C62.7846 66.4211 62.9566 66.0057 62.9566 65.5643C62.9566 65.1229 62.7797 64.7026 62.473 64.3943ZM62.473 17.527C62.1598 17.2138 61.7444 17.0418 61.303 17.0418H18.697C18.254 17.0418 17.8385 17.2138 17.527 17.527C17.2138 17.8385 17.0418 18.254 17.0418 18.697C17.0418 19.14 17.2138 19.5538 17.527 19.8653C17.8385 20.1785 18.254 20.3505 18.697 20.3505H61.303C61.7444 20.3505 62.1598 20.1785 62.473 19.8653C62.7846 19.5538 62.9566 19.1383 62.9566 18.697C62.9566 18.2556 62.7846 17.8385 62.473 17.527ZM62.473 17.527C62.1598 17.2138 61.7444 17.0418 61.303 17.0418H18.697C18.254 17.0418 17.8385 17.2138 17.527 17.527C17.2138 17.8385 17.0418 18.254 17.0418 18.697C17.0418 19.14 17.2138 19.5538 17.527 19.8653C17.8385 20.1785 18.254 20.3505 18.697 20.3505H61.303C61.7444 20.3505 62.1598 20.1785 62.473 19.8653C62.7846 19.5538 62.9566 19.1383 62.9566 18.697C62.9566 18.2556 62.7846 17.8385 62.473 17.527ZM62.473 17.527C62.1598 17.2138 61.7444 17.0418 61.303 17.0418H18.697C18.254 17.0418 17.8385 17.2138 17.527 17.527C17.2138 17.8385 17.0418 18.254 17.0418 18.697C17.0418 19.14 17.2138 19.5538 17.527 19.8653C17.8385 20.1785 18.254 20.3505 18.697 20.3505H61.303C61.7444 20.3505 62.1598 20.1785 62.473 19.8653C62.7846 19.5538 62.9566 19.1383 62.9566 18.697C62.9566 18.2556 62.7846 17.8385 62.473 17.527ZM62.473 17.527C62.1598 17.2138 61.7444 17.0418 61.303 17.0418H18.697C18.254 17.0418 17.8385 17.2138 17.527 17.527C17.2138 17.8385 17.0418 18.254 17.0418 18.697C17.0418 19.14 17.2138 19.5538 17.527 19.8653C17.8385 20.1785 18.254 20.3505 18.697 20.3505H61.303C61.7444 20.3505 62.1598 20.1785 62.473 19.8653C62.7846 19.5538 62.9566 19.1383 62.9566 18.697C62.9566 18.2556 62.7846 17.8385 62.473 17.527ZM62.473 17.527C62.1598 17.2138 61.7444 17.0418 61.303 17.0418H18.697C18.254 17.0418 17.8385 17.2138 17.527 17.527C17.2138 17.8385 17.0418 18.254 17.0418 18.697C17.0418 19.14 17.2138 19.5538 17.527 19.8653C17.8385 20.1785 18.254 20.3505 18.697 20.3505H61.303C61.7444 20.3505 62.1598 20.1785 62.473 19.8653C62.7846 19.5538 62.9566 19.1383 62.9566 18.697C62.9566 18.2556 62.7846 17.8385 62.473 17.527ZM62.473 17.527C62.1598 17.2138 61.7444 17.0418 61.303 17.0418H18.697C18.254 17.0418 17.8385 17.2138 17.527 17.527C17.2138 17.8385 17.0418 18.254 17.0418 18.697C17.0418 19.14 17.2138 19.5538 17.527 19.8653C17.8385 20.1785 18.254 20.3505 18.697 20.3505H61.303C61.7444 20.3505 62.1598 20.1785 62.473 19.8653C62.7846 19.5538 62.9566 19.1383 62.9566 18.697C62.9566 18.2556 62.7846 17.8385 62.473 17.527ZM69.8239 0H10.1744C4.56471 0 0 5.1927 0 11.5765V39.2876C0 42.1923 1.59351 44.6588 4.06166 45.5724C4.6783 45.8012 5.3144 45.9181 5.94888 45.9181C7.54726 45.9181 9.0499 45.1927 10.1809 43.8734L13.1927 40.3684C14.4779 38.8673 16.172 38.0398 17.9635 38.0398H69.8239C75.4353 38.0398 80 32.8471 80 26.4633V11.5813C80 5.19432 75.4353 0 69.8239 0ZM76.6929 26.46C76.6929 31.0183 73.6114 34.7278 69.8239 34.7278H17.9635C15.2389 34.7278 12.5858 35.9968 10.684 38.2085L7.66734 41.7201C7.03773 42.4487 6.37728 42.6012 5.9359 42.6012C5.62434 42.6012 5.39067 42.5266 5.28357 42.4941L5.243 42.4811L5.20243 42.4649C4.05193 42.0333 3.3071 40.7854 3.3071 39.2844V11.5716C3.3071 7.01339 6.38864 3.30385 10.1744 3.30385H69.8239C73.6114 3.30385 76.6929 7.01339 76.6929 11.5716V26.46ZM61.303 17.0418H18.697C18.254 17.0418 17.8385 17.2138 17.527 17.527C17.2138 17.8385 17.0418 18.254 17.0418 18.697C17.0418 19.14 17.2138 19.5538 17.527 19.8653C17.8385 20.1785 18.254 20.3505 18.697 20.3505H61.303C61.7444 20.3505 62.1598 20.1785 62.473 19.8653C62.7846 19.5538 62.9566 19.1383 62.9566 18.697C62.9566 18.2556 62.7846 17.8385 62.473 17.527C62.1598 17.2138 61.7444 17.0418 61.303 17.0418ZM62.473 17.527C62.1598 17.2138 61.7444 17.0418 61.303 17.0418H18.697C18.254 17.0418 17.8385 17.2138 17.527 17.527C17.2138 17.8385 17.0418 18.254 17.0418 18.697C17.0418 19.14 17.2138 19.5538 17.527 19.8653C17.8385 20.1785 18.254 20.3505 18.697 20.3505H61.303C61.7444 20.3505 62.1598 20.1785 62.473 19.8653C62.7846 19.5538 62.9566 19.1383 62.9566 18.697C62.9566 18.2556 62.7846 17.8385 62.473 17.527ZM62.473 17.527C62.1598 17.2138 61.7444 17.0418 61.303 17.0418H18.697C18.254 17.0418 17.8385 17.2138 17.527 17.527C17.2138 17.8385 17.0418 18.254 17.0418 18.697C17.0418 19.14 17.2138 19.5538 17.527 19.8653C17.8385 20.1785 18.254 20.3505 18.697 20.3505H61.303C61.7444 20.3505 62.1598 20.1785 62.473 19.8653C62.7846 19.5538 62.9566 19.1383 62.9566 18.697C62.9566 18.2556 62.7846 17.8385 62.473 17.527ZM62.473 17.527C62.1598 17.2138 61.7444 17.0418 61.303 17.0418H18.697C18.254 17.0418 17.8385 17.2138 17.527 17.527C17.2138 17.8385 17.0418 18.254 17.0418 18.697C17.0418 19.14 17.2138 19.5538 17.527 19.8653C17.8385 20.1785 18.254 20.3505 18.697 20.3505H61.303C61.7444 20.3505 62.1598 20.1785 62.473 19.8653C62.7846 19.5538 62.9566 19.1383 62.9566 18.697C62.9566 18.2556 62.7846 17.8385 62.473 17.527ZM62.473 17.527C62.1598 17.2138 61.7444 17.0418 61.303 17.0418H18.697C18.254 17.0418 17.8385 17.2138 17.527 17.527C17.2138 17.8385 17.0418 18.254 17.0418 18.697C17.0418 19.14 17.2138 19.5538 17.527 19.8653C17.8385 20.1785 18.254 20.3505 18.697 20.3505H61.303C61.7444 20.3505 62.1598 20.1785 62.473 19.8653C62.7846 19.5538 62.9566 19.1383 62.9566 18.697C62.9566 18.2556 62.7846 17.8385 62.473 17.527ZM62.473 17.527C62.1598 17.2138 61.7444 17.0418 61.303 17.0418H18.697C18.254 17.0418 17.8385 17.2138 17.527 17.527C17.2138 17.8385 17.0418 18.254 17.0418 18.697C17.0418 19.14 17.2138 19.5538 17.527 19.8653C17.8385 20.1785 18.254 20.3505 18.697 20.3505H61.303C61.7444 20.3505 62.1598 20.1785 62.473 19.8653C62.7846 19.5538 62.9566 19.1383 62.9566 18.697C62.9566 18.2556 62.7846 17.8385 62.473 17.527ZM62.473 17.527C62.1598 17.2138 61.7444 17.0418 61.303 17.0418H18.697C18.254 17.0418 17.8385 17.2138 17.527 17.527C17.2138 17.8385 17.0418 18.254 17.0418 18.697C17.0418 19.14 17.2138 19.5538 17.527 19.8653C17.8385 20.1785 18.254 20.3505 18.697 20.3505H61.303C61.7444 20.3505 62.1598 20.1785 62.473 19.8653C62.7846 19.5538 62.9566 19.1383 62.9566 18.697C62.9566 18.2556 62.7846 17.8385 62.473 17.527Z" fill="#5065F6"/>
</svg>
