<svg width="80" height="80" viewBox="0 0 80 80" fill="none" xmlns="http://www.w3.org/2000/svg">
<path d="M78.8281 62.6863C79.475 62.6863 80 62.1613 80 61.5144V59.7191C80 56.4801 77.9329 53.6224 74.8548 52.6083L67.5299 50.199V47.6631C70.0799 46.1335 71.7924 43.3413 71.7924 40.157V35.1056C71.7924 30.2822 67.8674 26.3573 63.0441 26.3573C60.2035 26.3573 57.6739 27.7198 56.0755 29.8244C55.1895 28.1635 53.6896 26.8682 51.8099 26.2511L44.4866 23.8402V21.3043C47.0366 19.7746 48.7475 16.9825 48.7475 13.7982V8.74827C48.7475 3.92492 44.8226 0 39.9992 0C35.1759 0 31.2509 3.92492 31.2509 8.74827V13.7982C31.2509 16.9825 32.9619 19.7746 35.5118 21.3043V23.8402L28.1885 26.2511C26.3089 26.8682 24.8073 28.1635 23.923 29.8244C22.3246 27.7198 19.7965 26.3573 16.9544 26.3573C12.131 26.3573 8.20609 30.2822 8.20609 35.1056V40.157C8.20609 43.3413 9.91699 46.1335 12.4685 47.6631V50.199L5.14365 52.6099C2.06715 53.624 0 56.4817 0 59.7207V61.516C0 62.1628 0.52499 62.6878 1.17185 62.6878C1.81871 62.6878 2.3437 62.1628 2.3437 61.516V59.7207C2.3437 57.4958 3.76399 55.5317 5.87645 54.8349L12.7373 52.5771C13.3638 54.2989 15.0185 55.5333 16.9544 55.5333C18.8903 55.5333 20.5449 54.3005 21.1715 52.5771L28.0307 54.8349C29.5338 55.3302 30.6994 56.4723 31.2385 57.9192L28.1869 58.9238C25.1089 59.9363 23.0417 62.7941 23.0417 66.0346V67.3971H8.97482V64.4644C8.97482 63.8175 8.44983 63.2925 7.80297 63.2925C7.15611 63.2925 6.63112 63.8175 6.63112 64.4644V67.3971H2.34527V66.9924C2.34527 66.3456 1.82028 65.8206 1.17341 65.8206C0.526552 65.8206 0.00156247 66.3456 0.00156247 66.9924V68.569C0.00156247 69.2158 0.526552 69.7408 1.17341 69.7408H23.0449V78.8281C23.0449 79.475 23.5699 80 24.2167 80H55.7833C56.4301 80 56.9551 79.475 56.9551 78.8281V77.2626C56.9551 76.6157 56.4301 76.0907 55.7833 76.0907C55.1364 76.0907 54.6114 76.6157 54.6114 77.2626V77.6563H50.3256V70.7783C50.3256 70.1314 49.8006 69.6065 49.1537 69.6065C48.5069 69.6065 47.9819 70.1314 47.9819 70.7783V77.6563H32.0166V70.7783C32.0166 70.1314 31.4916 69.6065 30.8447 69.6065C30.1978 69.6065 29.6729 70.1314 29.6729 70.7783V77.6563H25.387V66.0346C25.387 63.8097 26.8073 61.8472 28.9213 61.1504L35.7821 58.8926C36.4087 60.6144 38.0633 61.8488 39.9992 61.8488C41.9351 61.8488 43.5898 60.616 44.2163 58.8926L51.0771 61.1504C53.1912 61.8457 54.6114 63.8081 54.6114 66.0346V71.7908C54.6114 72.4376 55.1364 72.9626 55.7833 72.9626C56.4301 72.9626 56.9551 72.4376 56.9551 71.7908V69.7408H78.8266C79.4734 69.7408 79.9984 69.2158 79.9984 68.569V66.9924C79.9984 66.3456 79.4734 65.8206 78.8266 65.8206C78.1797 65.8206 77.6547 66.3456 77.6547 66.9924V67.3971H73.3689V64.4644C73.3689 63.8175 72.8439 63.2925 72.197 63.2925C71.5502 63.2925 71.0252 63.8175 71.0252 64.4644V67.3971H56.9536V66.0346C56.9536 62.7941 54.8864 59.9379 51.8084 58.9254L48.7569 57.9207C49.2959 56.4739 50.46 55.3333 51.9646 54.8364L58.8254 52.5787C59.452 54.3005 61.1066 55.5349 63.0425 55.5349C64.9784 55.5349 66.6331 54.3021 67.2596 52.5787L74.1204 54.8364C76.2345 55.5333 77.6547 57.4957 77.6547 59.7223V61.5175C77.6547 62.1644 78.1797 62.6894 78.8266 62.6894L78.8281 62.6863ZM63.0441 28.701C66.5753 28.701 69.4486 31.5744 69.4486 35.1056V40.157C69.4486 43.6882 66.5753 46.5616 63.0441 46.5616C59.5129 46.5616 56.6395 43.6882 56.6395 40.157V35.1056C56.6395 31.5744 59.5129 28.701 63.0441 28.701ZM33.5962 13.7966V8.7467C33.5962 5.21552 36.4696 2.34214 40.0008 2.34214C43.532 2.34214 46.4053 5.21552 46.4053 8.7467V13.7966C46.4053 17.3278 43.532 20.2012 40.0008 20.2012C36.4696 20.2012 33.5962 17.3278 33.5962 13.7966ZM40.0008 22.5449C40.7398 22.5449 41.457 22.4511 42.1429 22.2777V24.6558C42.1429 24.6667 42.1429 24.6776 42.1429 24.6886C42.1429 25.8698 41.182 26.8292 40.0008 26.8292C38.8196 26.8292 37.8586 25.8682 37.8586 24.6886C37.8586 24.6776 37.8586 24.6667 37.8586 24.6558V22.2777C38.5446 22.4511 39.2617 22.5449 40.0008 22.5449ZM28.9244 28.476L35.7837 26.2182C36.4102 27.9401 38.0649 29.1744 40.0008 29.1744C41.9367 29.1744 43.5913 27.9416 44.2179 26.2182L51.0787 28.4776C53.038 29.1213 54.3958 30.8369 54.5864 32.8759C54.3989 33.5884 54.2974 34.3353 54.2974 35.1056V40.157C54.2974 40.4539 54.313 40.7476 54.3411 41.0367H48.7397C48.5381 36.3899 44.696 32.6712 40.0008 32.6712C35.3056 32.6712 31.4634 36.3899 31.2619 41.0367H25.6604C25.6901 40.7476 25.7042 40.4539 25.7042 40.157V35.1056C25.7042 34.3353 25.6026 33.5884 25.4151 32.8759C25.6042 30.8369 26.9635 29.1213 28.9229 28.4776L28.9244 28.476ZM40.0008 52.8724C36.4696 52.8724 33.5962 49.999 33.5962 46.4678V41.4179C33.5962 37.8868 36.4696 35.0134 40.0008 35.0134C43.532 35.0134 46.4053 37.8868 46.4053 41.4179V46.4678C46.4053 49.999 43.532 52.8724 40.0008 52.8724ZM10.5529 40.1555V35.104C10.5529 31.5728 13.4263 28.6994 16.9575 28.6994C20.4887 28.6994 23.362 31.5728 23.362 35.104V40.1555C23.362 43.6866 20.4887 46.56 16.9575 46.56C13.4263 46.56 10.5529 43.6866 10.5529 40.1555ZM16.9575 53.1896C15.7763 53.1896 14.8153 52.2287 14.8153 51.0474V48.6381C15.5013 48.8115 16.2184 48.9053 16.9575 48.9053C17.6965 48.9053 18.4137 48.8115 19.0996 48.6381V51.0474C19.0996 52.2287 18.1387 53.1896 16.9575 53.1896ZM28.7666 52.6083L21.4433 50.199V47.6631C23.0824 46.6803 24.373 45.1757 25.087 43.3804H31.2525V46.471C31.2525 49.6553 32.9634 52.4474 35.5134 53.9771V56.513L33.4665 57.1864C32.6962 55.0396 30.9853 53.3411 28.7666 52.6083ZM40.0008 59.502C38.8196 59.502 37.8586 58.541 37.8586 57.3598V57.3504C37.8586 57.3504 37.8586 57.3411 37.8586 57.3364V54.9505C38.5446 55.1239 39.2617 55.2177 40.0008 55.2177C40.7398 55.2177 41.457 55.1239 42.1429 54.9505V57.3598C42.1429 58.541 41.182 59.502 40.0008 59.502ZM51.2334 52.6083C49.0147 53.3396 47.3038 55.038 46.5335 57.1864L44.4866 56.513V53.9771C47.0366 52.4474 48.7475 49.6553 48.7475 46.471V43.3804H54.913C55.627 45.1757 56.9176 46.6803 58.5567 47.6631V50.199L51.2318 52.6083H51.2334ZM63.0441 53.1896C61.8629 53.1896 60.9019 52.2287 60.9019 51.0474V48.6381C61.5879 48.8115 62.305 48.9053 63.0441 48.9053C63.7831 48.9053 64.5003 48.8115 65.1862 48.6397V51.049C65.1862 52.2302 64.2253 53.1911 63.0441 53.1911V53.1896Z" fill="#5065F6"/>
</svg>
