<svg width="86" height="80" viewBox="0 0 86 80" fill="none" xmlns="http://www.w3.org/2000/svg">
<path fillRule="evenodd" clipRule="evenodd" d="M67.2343 58.1054C63.1852 52.0441 57.4869 47.3683 50.7577 44.581C46.2798 42.7255 41.5545 41.7854 36.7137 41.7854C34.314 41.7854 31.906 42.0245 29.5557 42.4946C22.4059 43.913 15.9076 47.3848 10.7535 52.5389C7.31471 55.9612 4.63457 59.9608 2.77909 64.4387C0.923616 68.9166 0 73.6501 0 78.4991C0 78.895 0.164931 79.2743 0.445315 79.5547C0.725698 79.8351 1.10504 80 1.50088 80H71.9184C72.3142 80 72.6935 79.8433 72.9739 79.5547C73.2626 79.2743 73.4192 78.895 73.4192 78.4991C73.4192 71.2174 71.2834 64.1583 67.2343 58.1054ZM3.01 76.9983L3.12545 75.6623C4.57685 58.3527 19.33 44.7954 36.7055 44.7954C54.081 44.7954 68.8424 58.3527 70.302 75.6541L70.4092 76.9983H3.01ZM51.8874 8.11463C49.8753 5.10463 47.0384 2.77909 43.6903 1.39367C41.472 0.470055 39.1217 0 36.7137 0C35.518 0 34.3222 0.123699 33.1512 0.354603C29.597 1.05556 26.3643 2.78734 23.8079 5.34378C21.2432 7.90846 19.5196 11.1411 18.8104 14.6871C18.1012 18.2414 18.4641 21.8864 19.8495 25.2345C21.2349 28.5826 23.5605 31.4112 26.5705 33.4234C29.5805 35.4355 33.0852 36.4993 36.7055 36.4993C41.5792 36.4993 46.1643 34.5944 49.6114 31.1473C53.0007 27.758 54.8974 23.2553 54.9634 18.4723V18.2497C54.9634 14.6294 53.8996 11.1246 51.8874 8.11463ZM50.7989 24.0882C49.6361 26.8838 47.6982 29.2506 45.183 30.9329C42.6678 32.6152 39.7402 33.4976 36.7055 33.4976C32.6399 33.4893 28.8135 31.906 25.9355 29.0279C23.0574 26.1499 21.4658 22.3235 21.4658 18.2497C21.4658 15.2232 22.3482 12.2956 24.0305 9.78043C25.7128 7.26523 28.0796 5.31904 30.8752 4.16452C32.7389 3.39759 34.7016 3.00175 36.7137 3.00175C37.7116 3.00175 38.7094 3.10071 39.6825 3.29863C42.6513 3.88414 45.3561 5.32729 47.492 7.4714C49.6361 9.60726 51.0793 12.3121 51.6648 15.2727C52.2585 18.2414 51.9534 21.2844 50.7989 24.0882Z" fill="#5065F6"/>
<path fillRule="evenodd" clipRule="evenodd" d="M85.1458 31.6506C85.1458 32.0464 84.9892 32.4257 84.7088 32.7144C84.4201 32.9948 84.0408 33.1514 83.645 33.1514H75.0933V41.7031C75.0933 42.099 74.9366 42.4783 74.6562 42.7587C74.3676 43.0473 73.9965 43.204 73.5924 43.204C73.1883 43.204 72.8172 43.0473 72.5286 42.7587C72.2399 42.4701 72.0915 42.099 72.0915 41.7031V33.1514H63.5398C63.1357 33.1514 62.7564 32.9948 62.476 32.7144C62.1956 32.4257 62.0389 32.0546 62.0389 31.6506C62.0389 31.2465 62.1956 30.8754 62.476 30.5868C62.7564 30.3064 63.1357 30.1497 63.5398 30.1497H72.0915V21.5897C72.0915 21.1939 72.2482 20.8146 72.5286 20.5259C72.8172 20.2456 73.1883 20.0889 73.5924 20.0889C73.9965 20.0889 74.3676 20.2456 74.6562 20.5342C74.9366 20.8146 75.0933 21.1939 75.0933 21.5897V30.1497H83.645C83.8511 30.1497 84.0408 30.1909 84.2222 30.2651C84.4036 30.3394 84.5686 30.4548 84.7088 30.5868C84.849 30.7269 84.9562 30.8919 85.0386 31.0815C85.1129 31.263 85.1458 31.4526 85.1458 31.6506Z" fill="#5065F6"/>
</svg>
