<svg width="60" height="61" viewBox="0 0 60 61" fill="none" xmlns="http://www.w3.org/2000/svg">
<path d="M15.001 57.1097H6.46963C5.09132 57.1097 4.25999 56.3398 3.8877 55.8819C3.24553 55.0928 2.99734 54.0663 3.20577 53.0675C5.76842 40.7554 16.7708 31.6072 29.3672 31.3145H29.3925H29.4178C29.6395 31.3229 29.8251 31.3265 30.001 31.3265C30.1769 31.3265 30.3636 31.3229 30.5889 31.3145H30.6142L30.6395 31.3133C33.7275 31.3844 36.7491 31.9663 39.6202 33.0446C39.7973 33.1109 39.9829 33.1446 40.1696 33.1446C40.819 33.1446 41.4082 32.7362 41.6359 32.1277C41.7829 31.7362 41.7696 31.3109 41.5961 30.9301C41.4226 30.5494 41.1118 30.2579 40.7214 30.1121C40.3359 29.9675 39.9419 29.8289 39.5491 29.7L38.0118 29.1952L39.307 28.2241C43.2696 25.2518 45.5431 20.7169 45.5431 15.7844C45.5431 7.21448 38.5708 0.242188 30.001 0.242188C21.4311 0.242188 14.4588 7.21448 14.4588 15.7844C14.4588 18.2711 15.0311 20.6482 16.1588 22.8494C17.2359 24.9506 18.8082 26.8121 20.7034 28.2313L21.9998 29.2012L20.4624 29.7072C16.854 30.8952 13.5479 32.7121 10.6359 35.1073C5.27445 39.5181 1.54674 45.6699 0.139508 52.4289C-0.261696 54.3554 0.217822 56.335 1.45758 57.8578C2.68891 59.3735 4.51541 60.2422 6.46963 60.2422H15.001C15.8636 60.2422 16.5672 59.5398 16.5672 58.6759C16.5672 57.8121 15.8636 57.1097 15.001 57.1097ZM17.5913 15.7844C17.5913 8.94098 23.1576 3.37472 30.001 3.37472C36.8443 3.37472 42.4106 8.94098 42.4106 15.7844C42.4106 22.6277 37.2238 27.8603 30.6046 28.1783L30.5757 28.1807H30.5467C30.3636 28.1759 30.1817 28.1735 29.9985 28.1735C29.8154 28.1735 29.6335 28.1759 29.4504 28.1795H29.3949C22.7757 27.8591 17.5913 22.4145 17.5913 15.7844Z" fill="#8C8C8C"/>
<path d="M58.2282 41.2616C57.3319 39.2567 55.3078 37.9579 53.074 37.9531H45.5427C43.1849 37.9531 41.127 39.3399 40.3017 41.4869C40.1499 41.8808 40.0054 42.282 39.8716 42.6784L39.6788 43.2543H23.2957C22.8752 43.2543 22.4656 43.4278 22.1716 43.729L18.0331 47.9929C17.4451 48.5977 17.4475 49.5796 18.0391 50.182L22.256 54.4724C22.5487 54.77 22.956 54.9411 23.3728 54.9411H31.2041C32.068 54.9411 32.7704 54.2375 32.7704 53.3748C32.7704 52.5122 32.068 51.8085 31.2041 51.8085H24.0307L21.3463 49.0772L23.9584 46.3869H40.8801C41.6041 46.3869 42.2294 45.8953 42.4017 45.1929C42.6054 44.3604 42.8596 43.564 43.227 42.6098C43.5885 41.6688 44.4776 41.0857 45.5487 41.0857H53.0704C54.0885 41.0881 54.9692 41.6447 55.3692 42.5399C56.0487 44.0616 56.8608 46.423 56.8668 49.0254C56.874 51.6447 56.0632 54.0555 55.3825 55.617C54.9873 56.523 54.0897 57.1098 53.0969 57.1098H45.4849C44.4813 57.1073 43.5451 56.4688 43.1535 55.5206C42.8548 54.7953 42.5969 53.9736 42.3668 53.0098C42.1969 52.3025 41.5716 51.8073 40.8451 51.8073C40.7222 51.8073 40.5993 51.8218 40.4788 51.8507C40.0716 51.9483 39.727 52.1989 39.5078 52.5555C39.2897 52.9122 39.2222 53.3326 39.3198 53.7387C39.5897 54.864 39.8957 55.8375 40.2584 56.7146C41.1391 58.8519 43.1909 60.2363 45.4813 60.2423H53.1054C55.3403 60.2423 57.3608 58.9182 58.2547 56.8688C59.0547 55.0326 60.0078 52.1808 59.9993 49.0182C59.9921 45.8652 59.0331 43.0604 58.2282 41.2616Z" fill="url(#paint0_linear_1795_7375)"/>
<path d="M52.6521 49.037C52.6521 48.1731 51.9484 47.4707 51.0858 47.4707C50.2231 47.4707 49.5195 48.1731 49.5195 49.037C49.5195 49.9008 50.2219 50.6032 51.0858 50.6032C51.9497 50.6032 52.6521 49.9008 52.6521 49.037Z" fill="url(#paint1_linear_1795_7375)"/>
<defs>
<linearGradient id="paint0_linear_1795_7375" x1="29" y1="41.5" x2="67" y2="70" gradientUnits="userSpaceOnUse">
<stop stop-color="#6637EC"/>
<stop offset="1" stop-color="#C5B1FF"/>
</linearGradient>
<linearGradient id="paint1_linear_1795_7375" x1="50.3621" y1="47.9692" x2="54.1583" y2="49.4657" gradientUnits="userSpaceOnUse">
<stop stop-color="#6637EC"/>
<stop offset="1" stop-color="#C5B1FF"/>
</linearGradient>
</defs>
</svg>
