<svg width="86" height="50" viewBox="0 0 86 50" fill="none" xmlns="http://www.w3.org/2000/svg">
<g clipPath="url(#clip0_2125_16324)">
<path d="M1.52316 34.6225C0.681597 34.6225 0 33.9409 0 33.0993C0 32.2578 0.681597 31.5762 1.52316 31.5762H21.6164C22.4579 31.5762 23.1395 32.2578 23.1395 33.0993C23.1395 33.9409 22.4579 34.6225 21.6164 34.6225H1.52316Z" fill="#5065F6"/>
<path d="M9.05539 25.1909C8.21382 25.1909 7.53223 24.5093 7.53223 23.6677C7.53223 22.8261 8.21382 22.1445 9.05539 22.1445H26.4848C27.3264 22.1445 28.008 22.8261 28.008 23.6677C28.008 24.5093 27.3264 25.1909 26.4848 25.1909H9.05539Z" fill="#5065F6"/>
<path d="M1.52316 15.7602C0.681597 15.7602 0 15.0786 0 14.237C0 13.3955 0.681597 12.7139 1.52316 12.7139H21.6164C22.4579 12.7139 23.1395 13.3955 23.1395 14.237C23.1395 15.0786 22.4579 15.7602 21.6164 15.7602H1.52316Z" fill="#5065F6"/>
<path d="M84.4904 1.1615C83.8296 0.445125 82.8698 0 81.7779 0H20.5593C19.4674 0 18.4381 0.445125 17.666 1.1615C16.894 1.87787 16.3724 2.87244 16.2959 3.96439L15.9968 8.10266H19.0431L19.2448 5.36931L39.4145 22.8544L16.3863 44.3664L17.1375 38.9553H14.0981L13.2287 46.0356C13.1522 47.1276 13.5208 48.1221 14.1885 48.8385C14.8562 49.5549 15.816 50 16.9079 50H78.1265C79.0863 50 79.9974 49.6522 80.7277 49.075C80.8668 49.0124 80.9989 48.922 81.1171 48.8176C81.298 48.6577 81.4301 48.4699 81.5275 48.2612C82.0074 47.6214 82.3134 46.8563 82.376 46.0356L85.4501 3.96439C85.5336 2.87244 85.158 1.87787 84.4904 1.1615ZM21.3592 3.03937H80.3104L49.6872 27.5977L21.3592 3.03937ZM17.9025 46.9606L41.6402 24.7879L48.5187 30.7484C49.0682 31.2213 49.8889 31.1935 50.4661 30.7275L57.8663 24.7879L77.3892 46.9606H17.9025ZM79.4549 44.5403L60.3284 22.8196L82.3273 5.17457L79.4549 44.5403Z" fill="#8C8C8C"/>
</g>
<defs>
<clipPath id="clip0_2125_16324">
<rect width="85.4639" height="50" fill="white"/>
</clipPath>
</defs>
</svg>
