<svg width="25" height="25" viewBox="0 0 25 25" fill="none" xmlns="http://www.w3.org/2000/svg">
<path fillRule="evenodd" clipRule="evenodd" d="M13.059 0.429407C13.3398 0.704645 13.5015 1.07901 13.5093 1.47213C13.5093 2.02662 13.2051 2.50511 12.7584 2.76583V5H16.0123V2.97399H18.0149V5H19.0235C20.6762 5 22.0273 6.35168 22.0273 8.00373V11.0075C22.2903 11.0073 22.5507 11.0591 22.7937 11.1596C23.0367 11.2602 23.2575 11.4077 23.4435 11.5936C23.6294 11.7796 23.777 12.0004 23.8776 12.2433C23.9782 12.4863 24.0299 12.7468 24.0299 13.0098V17.0149C24.0299 17.2779 23.9781 17.5383 23.8774 17.7812C23.7768 18.0242 23.6293 18.2449 23.4433 18.4309C23.2573 18.6168 23.0366 18.7643 22.7936 18.8649C22.5506 18.9655 22.2902 19.0173 22.0273 19.0172V21.0198C22.0273 22.6722 20.6762 24.0235 19.0235 24.0235H5.00602C3.35427 24.0235 2.00229 22.6722 2.00229 21.0198V19.0172C1.73933 19.0173 1.47895 18.9655 1.236 18.8649C0.993052 18.7643 0.772306 18.6168 0.586369 18.4308C0.400431 18.2449 0.252945 18.0242 0.152335 17.7812C0.0517244 17.5383 -3.94111e-05 17.2779 2.25133e-08 17.0149V13.0098C-3.94111e-05 12.7468 0.0517244 12.4864 0.152335 12.2435C0.252945 12.0005 0.400431 11.7798 0.586369 11.5938C0.772306 11.4079 0.993052 11.2604 1.236 11.1598C1.47895 11.0592 1.73933 11.0074 2.00229 11.0075V8.00373C2.00229 6.35168 3.35427 5 5.00602 5H6V2.97399H8.00229V5H11.2565V2.76583C10.8096 2.50511 10.5056 2.02662 10.5056 1.47213C10.5135 1.07901 10.6751 0.704645 10.9559 0.429407C11.2367 0.154168 11.6143 0 12.0075 0C12.4007 0 12.7782 0.154168 13.059 0.429407ZM15.7192 19.702C15.5314 19.8897 15.2768 19.9952 15.0112 19.9952H9.00373C8.74118 19.9907 8.49091 19.8832 8.30684 19.6959C8.12277 19.5086 8.01963 19.2565 8.01963 18.9939C8.01963 18.7314 8.12277 18.4793 8.30684 18.292C8.49091 18.1047 8.74118 17.9972 9.00373 17.9927H15.0112C15.2768 17.9927 15.5314 18.0981 15.7192 18.2859C15.907 18.4737 16.0125 18.7284 16.0125 18.9939C16.0125 19.2595 15.907 19.5142 15.7192 19.702ZM17.5042 12.7521C17.5042 13.7197 16.7197 14.5042 15.7521 14.5042C14.7844 14.5042 14 13.7197 14 12.7521C14 11.7844 14.7844 11 15.7521 11C16.7197 11 17.5042 11.7844 17.5042 12.7521ZM8.75238 14.5048C9.72019 14.5048 10.5048 13.7202 10.5048 12.7524C10.5048 11.7846 9.72019 11 8.75238 11C7.78457 11 7 11.7846 7 12.7524C7 13.7202 7.78457 14.5048 8.75238 14.5048ZM19.0235 22.0209C19.5663 22.0209 20.025 21.5626 20.025 21.0198V8.00373C20.025 7.46096 19.5663 7.00229 19.0235 7.00229H5.00602C4.46325 7.00229 4.00518 7.46096 4.00518 8.00373V21.0198C4.00518 21.5626 4.46325 22.0209 5.00602 22.0209H19.0235Z" fill="#0D0D0D"/>
</svg>
