<svg width="49" height="65" viewBox="0 0 49 65" fill="none" xmlns="http://www.w3.org/2000/svg">
<path d="M15 56.8675H6.46865C5.09034 56.8675 4.25901 56.0976 3.88672 55.6398C3.24456 54.8506 2.99636 53.8241 3.2048 52.8253C5.76745 40.5133 16.7699 31.3651 29.3662 31.0723H29.3915H29.4168C29.6385 31.0807 29.8241 31.0843 30 31.0843C30.1759 31.0843 30.3626 31.0807 30.5879 31.0723H30.6132L30.6385 31.0711C33.7265 31.1422 36.7482 31.7241 39.6193 32.8024C39.7964 32.8687 39.9819 32.9024 40.1687 32.9024C40.8181 32.9024 41.4072 32.494 41.6349 31.8855C41.7819 31.494 41.7687 31.0687 41.5952 30.688C41.4217 30.3072 41.1108 30.0157 40.7205 29.8699C40.3349 29.7253 39.9409 29.5867 39.5482 29.4578L38.0108 28.953L39.306 27.9819C43.2687 25.0096 45.5421 20.4747 45.5421 15.5422C45.5421 6.97229 38.5699 0 30 0C21.4301 0 14.4578 6.97229 14.4578 15.5422C14.4578 18.0289 15.0301 20.406 16.1578 22.6072C17.2349 24.7084 18.8072 26.5699 20.7024 27.9892L21.9988 28.959L20.4614 29.4651C16.853 30.653 13.547 32.4699 10.6349 34.8651C5.27347 39.2759 1.54576 45.4277 0.138532 52.1867C-0.262673 54.1133 0.216845 56.0928 1.4566 57.6157C2.68793 59.1313 4.51444 60 6.46865 60H15C15.8626 60 16.5662 59.2976 16.5662 58.4337C16.5662 57.5699 15.8626 56.8675 15 56.8675ZM17.5903 15.5422C17.5903 8.6988 23.1566 3.13253 30 3.13253C36.8434 3.13253 42.4096 8.6988 42.4096 15.5422C42.4096 22.3855 37.2229 27.6181 30.6036 27.9361L30.5747 27.9386H30.5458C30.3626 27.9337 30.1807 27.9313 29.9976 27.9313C29.8144 27.9313 29.6325 27.9337 29.4494 27.9374H29.394C22.7747 27.6169 17.5903 22.1723 17.5903 15.5422Z" fill="#8C8C8C"/>
<circle cx="35.5" cy="51.5" r="12" stroke="url(#paint0_linear_4645_2270)" stroke-width="3"/>
<path d="M31 51.5H40M35.5 56V47" stroke="url(#paint1_linear_4645_2270)" stroke-width="3" stroke-linecap="round"/>
<defs>
<linearGradient id="paint0_linear_4645_2270" x1="26.86" y1="40.16" x2="43.06" y2="61.76" gradientUnits="userSpaceOnUse">
<stop stop-color="#6637EC"/>
<stop offset="1" stop-color="#C5B1FF"/>
</linearGradient>
<linearGradient id="paint1_linear_4645_2270" x1="35.5" y1="56.8182" x2="37.5455" y2="47" gradientUnits="userSpaceOnUse">
<stop stop-color="#6637EC"/>
<stop offset="1" stop-color="#C5B1FF"/>
</linearGradient>
</defs>
</svg>
