<svg width="6" height="11" viewBox="0 0 6 11" fill="none" xmlns="http://www.w3.org/2000/svg">
<path fillRule="evenodd" clipRule="evenodd" d="M4.38837 5.3323L0.187393 1.13133C0.0657911 1.00542 -0.0014954 0.836795 2.52434e-05 0.661762C0.00154636 0.486729 0.071753 0.319296 0.195525 0.195525C0.319296 0.0717531 0.48673 0.00154598 0.661763 2.50022e-05C0.836796 -0.00149598 1.00542 0.0657909 1.13133 0.187393L5.80427 4.86034C5.86632 4.92228 5.91554 4.99585 5.94913 5.07683C5.98271 5.15782 6 5.24463 6 5.3323C6 5.41998 5.98271 5.50679 5.94913 5.58777C5.91554 5.66876 5.86632 5.74233 5.80427 5.80427L1.13133 10.4772C1.00542 10.5988 0.836795 10.6661 0.661762 10.6646C0.486729 10.6631 0.319296 10.5929 0.195524 10.4691C0.0717526 10.3453 0.00154594 10.1779 2.48351e-05 10.0028C-0.00149579 9.82781 0.0657907 9.65918 0.187393 9.53328L4.38837 5.3323Z" fill="black"/>
</svg>
