<svg width="60" height="61" viewBox="0 0 60 61" fill="none" xmlns="http://www.w3.org/2000/svg">
<path d="M58.7526 2.4081C58.7003 2.20524 58.5946 2.02012 58.4464 1.87199C58.2983 1.72386 58.1132 1.61816 57.9103 1.56587C48.3389 -0.902446 38.2737 0.317475 29.5688 4.99993C27.6706 6.02067 25.8594 7.1956 24.1536 8.51286C19.3086 6.78481 13.9192 7.97731 10.2499 11.6467L2.91603 18.98C2.45865 19.4378 2.45865 20.1798 2.91603 20.6377L11.0761 28.7973C11.0761 28.7976 11.0766 28.7976 11.0766 28.7981L12.129 29.8501L11.1608 36.9637C11.1363 37.1427 11.1536 37.325 11.2112 37.4962C11.2689 37.6674 11.3653 37.8229 11.4931 37.9507L12.3455 38.803L5.34439 45.8462C4.88806 46.3053 4.89029 47.0474 5.34943 47.5032C5.80857 47.9597 6.5506 47.9574 7.00658 47.4987L14.0027 40.4601L19.8588 46.3168L9.99122 56.1409C9.53255 56.5977 9.53068 57.3397 9.98712 57.7984C10.096 57.9078 10.2255 57.9947 10.3681 58.0539C10.5107 58.1132 10.6636 58.1436 10.818 58.1435C11.1168 58.1435 11.4158 58.0296 11.6446 57.802L21.5163 47.9738L22.3677 48.8258C22.4955 48.9535 22.6511 49.0499 22.8223 49.1075C22.9935 49.1652 23.1757 49.1825 23.3547 49.1581L30.4683 48.1899L31.5207 49.2423C31.5207 49.2423 31.5207 49.2428 31.5211 49.2428L39.6809 57.4029C39.7896 57.5118 39.9187 57.5982 40.0609 57.657C40.2031 57.7159 40.3555 57.746 40.5094 57.7458C40.6634 57.7461 40.8159 57.7159 40.9581 57.6571C41.1004 57.5982 41.2296 57.5118 41.3384 57.4029L48.6717 50.069C52.3412 46.3997 53.5341 41.0105 51.8056 36.1655C53.1227 34.4595 54.2977 32.6483 55.3185 30.7501C60.0013 22.0447 61.2209 11.9795 58.7526 2.4081ZM11.417 25.824L5.40228 19.809L11.907 13.3043C14.5845 10.6263 18.3729 9.54786 21.9779 10.3233C17.2822 14.526 13.6511 19.8228 11.4173 25.824H11.417ZM23.6143 46.7572L13.5613 36.7042L14.2109 31.9321L28.3864 46.1075L23.6143 46.7572ZM47.0146 48.4115L40.5094 54.9163L34.4948 48.9013C40.496 46.6674 45.7924 43.0364 49.9951 38.3407C50.7706 41.9456 49.6921 45.7336 47.0146 48.4115ZM32.8002 47.0194L32.6605 47.0674L13.2509 27.6579L13.299 27.5182C19.4321 9.69247 38.3766 -0.676743 56.6501 3.66821C60.9947 21.9412 50.6265 40.8864 32.8002 47.0194Z" fill="#8C8C8C"/>
<path d="M45.683 13.1991L30.3021 17.3204C30.1035 17.3737 29.9223 17.4784 29.7769 17.6239C29.6315 17.7694 29.5269 17.9506 29.4737 18.1493C29.4205 18.348 29.4204 18.5572 29.4736 18.7559C29.5268 18.9546 29.6313 19.1358 29.7766 19.2814L32.0618 21.5661L27.4572 26.1704C26.9998 26.6281 26.9998 27.3701 27.4572 27.8279C27.9149 28.2851 28.6569 28.2851 29.1147 27.8279L34.5475 22.3947C35.0052 21.9373 35.0052 21.1953 34.5475 20.7376L32.8693 19.0594L44.3293 15.9888L41.2587 27.4484L39.5805 25.7703C39.3608 25.5505 39.0628 25.4274 38.752 25.4274C38.4412 25.4274 38.1427 25.5505 37.9229 25.7702L28.5717 35.1219C28.114 35.5796 28.114 36.3216 28.5717 36.7795C28.6804 36.8884 28.8096 36.9747 28.9518 37.0336C29.094 37.0924 29.2464 37.1225 29.4002 37.1222C29.5541 37.1225 29.7066 37.0924 29.8488 37.0336C29.991 36.9748 30.1202 36.8884 30.2289 36.7795L38.7516 28.2564L41.0362 30.541C41.1817 30.6864 41.3629 30.791 41.5616 30.8443C41.7603 30.8976 41.9695 30.8976 42.1683 30.8445C42.367 30.7913 42.5481 30.6868 42.6936 30.5413C42.839 30.3959 42.9436 30.2147 42.9968 30.016L47.118 14.6347C47.1714 14.436 47.1714 14.2267 47.1182 14.028C47.0651 13.8292 46.9605 13.648 46.815 13.5025C46.6696 13.357 46.4884 13.2524 46.2896 13.1991C46.0909 13.1459 45.8817 13.1459 45.683 13.1991ZM11.2486 49.069C10.7913 48.6112 10.0493 48.6112 9.59158 49.069L0.343388 58.3172C-0.114463 58.7745 -0.114463 59.5165 0.343388 59.9743C0.572255 60.2031 0.871904 60.3176 1.1719 60.3176C1.4719 60.3176 1.77202 60.2031 2.00042 59.9743L11.2486 50.7261C11.7065 50.2688 11.7065 49.5268 11.2486 49.069ZM2.94987 51.069C3.25796 51.069 3.56007 50.945 3.77839 50.7256C3.99635 50.5077 4.12175 50.2065 4.12175 49.8971C4.12066 49.5866 3.9973 49.2891 3.77839 49.069C3.55821 48.8499 3.26052 48.7263 2.94987 48.7252C2.6405 48.7252 2.33921 48.8506 2.12136 49.069C1.90244 49.2891 1.77908 49.5866 1.778 49.8971C1.778 50.2065 1.90339 50.5077 2.12136 50.7256C2.34124 50.9451 2.63915 51.0686 2.94987 51.069ZM23.6051 30.0223L23.595 30.0311C23.1129 30.4637 23.0732 31.2047 23.5057 31.6864C23.6155 31.809 23.75 31.9071 23.9004 31.9741C24.0507 32.0412 24.2135 32.0757 24.3782 32.0754C24.6672 32.0758 24.946 31.9688 25.1605 31.7751L25.1706 31.7664C25.6522 31.3339 25.6924 30.5933 25.2599 30.1117C24.8272 29.6296 24.0866 29.5898 23.6051 30.0223Z" fill="#5065F6"/>
</svg>
