<svg width="93" height="80" viewBox="0 0 93 80" fill="none" xmlns="http://www.w3.org/2000/svg">
<path fillRule="evenodd" clipRule="evenodd" d="M40 80C17.9353 80 0 62.0626 0 40C0 17.9374 17.9353 0 40 0C51.1069 0 61.4623 4.42742 69.1188 12.5309C69.2846 12.6981 69.3853 12.919 69.4029 13.1539C69.4204 13.3888 69.3537 13.6222 69.2146 13.8123L71.5624 16.8817C72.0094 16.6518 72.5926 16.7007 72.9459 17.2605C77.599 23.9378 80 31.8199 80 39.9979C80 62.0626 62.0647 80 40 80ZM40 71.7433C22.5138 71.7433 8.25458 57.484 8.25458 40C8.25458 22.516 22.5138 8.25245 40 8.25245C48.3291 8.25245 56.209 11.4794 62.1371 17.2563C62.2363 17.3425 62.3176 17.4475 62.376 17.5653C62.4345 17.683 62.4691 17.8112 62.4778 17.9424C62.4865 18.0736 62.4692 18.2052 62.4268 18.3297C62.3844 18.4541 62.3177 18.5689 62.2307 18.6675L65.2022 22.3563C65.6556 22.0903 66.2835 22.1158 66.6411 22.6607C80.132 43.1928 65.4917 71.7433 40 71.7433Z" fill="#D9D9D9"/>
<path fillRule="evenodd" clipRule="evenodd" d="M41.0505 60.5619C40.8391 60.5587 40.6335 60.4929 40.4596 60.3727C40.2857 60.2526 40.1513 60.0837 40.0734 59.8872C39.9989 59.7382 33.5451 43.0758 23.5643 36.771C21.6124 35.5704 20.1118 34.2954 20.712 31.4432C21.3123 28.6675 23.1875 27.0902 26.5656 26.341C32.5681 25.0638 39.0241 34.3699 41.423 38.1971C49.8308 25.9664 66.6401 6.75393 91.1058 4.50191C92.285 4.36355 92.7235 6.11323 91.6316 6.6028C91.2569 6.7518 56.2846 22.7373 42.0998 59.9617C41.9938 60.1458 41.8408 60.2984 41.6564 60.4038C41.472 60.5093 41.2629 60.5639 41.0505 60.5619Z" fill="#40BD7E"/>
</svg>
