<svg width="94" height="80" viewBox="0 0 94 80" fill="none" xmlns="http://www.w3.org/2000/svg">
<path d="M88.8283 0H5.12262C2.29973 0 0 2.29755 0 5.12262V74.8774C0 77.7025 2.29973 80 5.12262 80H88.8283C91.6534 80 93.951 77.7025 93.951 74.8774V5.12262C93.951 2.29755 91.6534 0 88.8283 0ZM90.6812 74.7357C90.6812 75.8365 89.7875 76.7302 88.6867 76.7302H5.26649C4.16567 76.7302 3.26975 75.8365 3.26975 74.7357V5.26431C3.26975 4.16567 4.16567 3.26975 5.26649 3.26975H31.5357C32.0698 3.26975 32.5711 3.47902 32.9482 3.85613L45.8049 16.7455C46.1166 17.0572 46.5221 17.2207 46.9755 17.2207H88.6867C89.7875 17.2207 90.6812 18.1166 90.6812 19.2153V74.7357ZM90.6812 11.9564C90.6812 13.0572 89.7875 13.951 88.6867 13.951H48.4643C47.9324 13.951 47.4311 13.7439 47.054 13.3668L40.3619 6.67684C39.782 6.09482 39.6163 5.26213 39.9302 4.50136C40.2441 3.74278 40.9504 3.26975 41.7722 3.26975H88.6867C89.7875 3.26975 90.6812 4.16567 90.6812 5.26431V11.9564Z" fill="#5065F6"/>
<path d="M17.6476 15.5853C17.6476 14.2142 16.4029 13.1287 14.9817 13.399C14.1163 13.5646 13.4144 14.2578 13.2378 15.1232C12.9501 16.551 14.04 17.8131 15.4198 17.8131C16.6492 17.8131 17.6476 16.8126 17.6476 15.5853Z" fill="#5065F6"/>
<path d="M78.3059 55.8037H36.573C35.7359 55.8037 35.0144 56.3988 34.8967 57.1879C34.8247 57.6631 34.9621 58.1427 35.2738 58.5045C35.5855 58.8664 36.0367 59.0735 36.5119 59.0735H78.3648C78.84 59.0735 79.2934 58.8664 79.6051 58.5045C79.9146 58.1427 80.052 57.6631 79.9822 57.1879C79.8645 56.3988 79.143 55.8037 78.3059 55.8037Z" fill="#5065F6"/>
<path d="M29.0989 13.399C28.2335 13.5646 27.5316 14.2578 27.355 15.1232C27.0673 16.551 28.1572 17.8131 29.537 17.8131C30.7664 17.8131 31.7648 16.8126 31.7648 15.5853C31.7648 14.2142 30.5201 13.1287 29.0989 13.399Z" fill="#5065F6"/>
<path d="M30.518 45.6671L16.5671 35.2039C16.2859 34.9903 15.9458 34.877 15.5883 34.877C15.0674 34.877 14.59 35.1146 14.2783 35.5309C13.7398 36.2524 13.8859 37.2791 14.6052 37.8197L26.7992 46.975L14.6052 56.1304C14.2586 56.3919 14.0319 56.7734 13.9665 57.205C13.9055 57.6366 14.0167 58.0682 14.2783 58.4192C14.5856 58.829 15.0739 59.0731 15.5862 59.0731C15.9371 59.0731 16.2859 58.9576 16.5671 58.7462L30.518 48.2829C31.2396 47.7423 31.3856 46.7156 30.845 45.9941C30.7556 45.872 30.6467 45.7631 30.518 45.6671Z" fill="#5065F6"/>
</svg>
