<svg width="17" height="16" viewBox="0 0 17 16" fill="none" xmlns="http://www.w3.org/2000/svg">
<path d="M16.2785 7.49225C16.4985 7.28225 16.6385 6.99225 16.6885 6.69225C16.7385 6.32225 16.6485 5.95225 16.4285 5.65225C16.2085 5.35225 15.8785 5.16225 15.5085 5.10225L11.6485 4.54225C11.6485 4.54225 11.5985 4.52225 11.5785 4.49225L9.84854 0.992249C9.71854 0.722249 9.48854 0.492249 9.21854 0.352249C8.52854 0.0122491 7.68854 0.292249 7.34854 0.982249L5.61854 4.48225C5.61854 4.48225 5.57854 4.52225 5.55854 4.53225L1.69854 5.09225C1.39854 5.13225 1.10854 5.28225 0.898535 5.50225C0.638535 5.78225 0.498535 6.13225 0.498535 6.51225C0.498535 6.88225 0.648535 7.23225 0.918535 7.49225L3.70854 10.2222C3.70854 10.2222 3.73854 10.2722 3.73854 10.3022L3.07854 14.1522C3.02854 14.4522 3.07854 14.7722 3.21854 15.0422C3.57854 15.7222 4.41853 15.9822 5.09854 15.6322L8.54854 13.8122C8.54854 13.8122 8.59854 13.8022 8.62854 13.8122L12.0785 15.6322C12.2785 15.7422 12.4985 15.7922 12.7285 15.7922H12.8885V15.7822C12.9085 15.7822 12.9385 15.7822 12.9585 15.7722C13.7185 15.6422 14.2285 14.9222 14.0985 14.1622L13.4385 10.3222C13.4385 10.3222 13.4385 10.2622 13.4685 10.2422L16.2585 7.52225L16.2785 7.49225Z" fill="#0D0D0D"/>
</svg>
