<svg width="17" height="16" viewBox="0 0 17 16" fill="none" xmlns="http://www.w3.org/2000/svg">
<path d="M16.4834 7.47871C16.7093 7.26311 16.853 6.96538 16.9044 6.65738C16.9557 6.27752 16.8633 5.89766 16.6374 5.58966C16.4116 5.28166 16.0728 5.08659 15.6929 5.02499L11.73 4.45006C11.73 4.45006 11.6787 4.42953 11.6581 4.39873L9.882 0.805416C9.74853 0.528218 9.5124 0.292086 9.2352 0.148353C8.5268 -0.200711 7.66441 0.0867536 7.31534 0.79515L5.53922 4.38846C5.53922 4.38846 5.49815 4.42953 5.47762 4.4398L1.51471 5.01473C1.20671 5.05579 0.908978 5.20979 0.693379 5.43566C0.426447 5.72312 0.282715 6.08245 0.282715 6.47259C0.282715 6.85245 0.436714 7.21178 0.713912 7.47871L3.5783 10.2815C3.5783 10.2815 3.6091 10.3328 3.6091 10.3636L2.9315 14.3163C2.88017 14.6243 2.9315 14.9528 3.07523 15.23C3.44483 15.9281 4.30723 16.1951 5.00536 15.8357L8.54734 13.9672C8.54734 13.9672 8.59867 13.9569 8.62947 13.9672L12.1714 15.8357C12.3768 15.9487 12.6026 16 12.8388 16H13.003V15.9897C13.0236 15.9897 13.0544 15.9897 13.0749 15.9795C13.8552 15.846 14.3788 15.1068 14.2453 14.3265L13.5677 10.3842C13.5677 10.3842 13.5677 10.3226 13.5985 10.302L16.4629 7.50951L16.4834 7.47871ZM12.2638 10.5792L12.9414 14.5319C12.9414 14.5319 12.9414 14.5935 12.9004 14.614C12.8798 14.6345 12.8388 14.6345 12.808 14.614L9.266 12.7558C9.06067 12.6428 8.8348 12.5915 8.59867 12.5915C8.36254 12.5915 8.13667 12.6531 7.93134 12.7558L4.38936 14.6243C4.38936 14.6243 4.34829 14.6345 4.32776 14.6243C4.27643 14.6243 4.24563 14.5729 4.25589 14.5216L4.93349 10.569C5.01562 10.107 4.86162 9.6347 4.52283 9.2959L1.65844 6.50339C1.65844 6.50339 1.63791 6.47259 1.62764 6.45205C1.62764 6.43152 1.62764 6.40072 1.64817 6.39045C1.65844 6.36992 1.67897 6.35965 1.70977 6.35965L5.67269 5.78472C6.14495 5.71286 6.54535 5.42539 6.75068 5.00446L8.51654 1.41115C8.51654 1.41115 8.53707 1.38035 8.5576 1.37008C8.59867 1.34955 8.66027 1.37008 8.6808 1.41115L10.4569 5.00446C10.6623 5.42539 11.0729 5.72312 11.5349 5.78472L15.4978 6.35965C15.4978 6.35965 15.5389 6.36992 15.5492 6.39045C15.5697 6.41099 15.58 6.43152 15.5697 6.45205C15.5697 6.47259 15.5697 6.49312 15.5389 6.51365L12.6745 9.30617C12.3357 9.6347 12.1817 10.107 12.2638 10.5792Z" fill="#0D0D0D"/>
</svg>
