<svg width="1920" height="1036" viewBox="0 0 1920 1036" fill="none" xmlns="http://www.w3.org/2000/svg">
<g opacity="0.15">
<path d="M1298.29 56.1666C1298.47 58.699 1299.88 60.4175 1302.68 62.4977C1306.48 58.4729 1309.19 56.5284 1314.03 54.3577C1312.04 52.7297 1311.27 50.966 1310.32 47.2578C1305.44 49.4737 1302.14 52.1418 1298.29 56.1214V56.1666Z" fill="url(#paint0_linear_143_26)"/>
<path d="M431.202 680.413C432.513 678.151 432.604 676.343 431.519 673.674C428.85 672.86 426.861 672.634 424.826 673.358C424.147 676.252 422.881 677.971 420.484 680.639C424.509 679.96 427.042 679.644 431.202 680.413Z" fill="url(#paint1_linear_143_26)"/>
<path d="M158.512 306.924C158.828 312.079 159.597 315.245 161.18 319.269C164.3 317.822 165.973 316.33 167.24 314.566C165.702 312.35 165.521 310.27 165.476 307.014C162.717 308.1 160.999 307.919 158.512 306.924Z" fill="url(#paint2_linear_143_26)"/>
<path d="M1339.62 0C1340.76 5.15533 1342.47 10.6724 1347.09 14.7424C1351.52 14.8329 1354.5 15.1042 1358.89 16.4157C1357.13 12.8883 1357.85 10.2654 1360.83 5.56233C1354.1 5.33622 1347.95 3.07511 1339.62 0Z" fill="url(#paint3_linear_143_26)"/>
<path d="M1615.89 206.982C1608.43 206.394 1604.13 205.399 1597.21 202.369C1595.67 205.716 1594.95 208.881 1595.58 212.273C1600.02 214.76 1606.08 216.614 1614.4 218.287C1612.86 213.042 1612.95 210.147 1615.84 207.027L1615.89 206.982Z" fill="url(#paint4_linear_143_26)"/>
<path d="M165.385 185.593C167.511 187.809 168.324 189.708 167.782 193.326C171.626 192.015 173.796 190.251 177.595 186.814C177.912 183.965 177.188 182.473 174.927 180.121C171.626 183.061 169.048 184.915 165.34 185.593H165.385Z" fill="url(#paint5_linear_143_26)"/>
<path d="M476.514 47.6633C478.639 49.8792 479.453 51.7785 478.911 55.3963C482.755 54.0849 484.925 52.3212 488.724 48.8843C489.041 46.0353 488.317 44.543 486.056 42.1914C482.755 45.1309 480.177 46.985 476.469 47.6633H476.514Z" fill="url(#paint6_linear_143_26)"/>
<path d="M1920.01 130.919C1917.93 127.211 1917.11 125.176 1917.11 121.558C1915.48 121.92 1914.4 121.92 1913.45 121.332C1913.18 125.221 1913.9 127.889 1915.71 132.05C1917.29 132.05 1918.65 131.688 1919.96 130.964L1920.01 130.919Z" fill="url(#paint7_linear_143_26)"/>
<path d="M534.574 345.457C531.816 344.733 529.329 342.924 525.62 337C523.359 338.99 521.957 341.341 521.008 344.959C524.354 348.984 526.661 351.064 531.273 353.19C531.499 350.114 532.404 348.396 534.574 345.411V345.457Z" fill="url(#paint8_linear_143_26)"/>
<path d="M1337.23 311.175C1336.28 317.053 1336.69 320.762 1339.31 327.002C1345.91 323.475 1350.39 322.661 1355.59 323.158C1356.9 317.687 1356.85 313.797 1356.04 307.828C1349.71 310.315 1344.83 310.994 1337.18 311.22L1337.23 311.175Z" fill="url(#paint9_linear_143_26)"/>
<path d="M1674.9 60.5984C1673.95 66.4773 1674.36 70.1855 1676.98 76.4262C1683.59 72.8988 1688.06 72.0848 1693.26 72.5823C1694.58 67.1104 1694.53 63.2213 1693.72 57.252C1687.39 59.7392 1682.5 60.4175 1674.86 60.6436L1674.9 60.5984Z" fill="url(#paint10_linear_143_26)"/>
<path d="M78.2423 595.848C76.3882 596.707 75.6194 598.109 74.3984 600.46C79.599 602.902 84.3926 607.063 89.5027 612.399C90.588 610.545 91.6733 609.686 93.7535 608.646C88.6887 602.676 85.3422 599.827 78.2423 595.893V595.848Z" fill="url(#paint11_linear_143_26)"/>
<path d="M98.1406 364.807C101.035 359.561 102.03 356.396 100.628 350.11C91.0407 347.397 85.5236 345.136 76.8861 340.613C76.4339 344.186 75.3486 346.537 74.0371 348.346C84.1217 353.23 89.7292 357.481 98.1406 364.807Z" fill="url(#paint12_linear_143_26)"/>
<path d="M1215.76 24.918C1212.78 27.8574 1212.14 31.3847 1212.51 37.1732C1221.6 37.6254 1226.89 38.9369 1234.71 42.7355C1234.71 38.5299 1235.98 35.6809 1239.64 30.5707C1231.68 26.7721 1224.85 25.5059 1215.76 24.918Z" fill="url(#paint13_linear_143_26)"/>
<path d="M0.956803 412.02C-0.0833082 417.13 -0.218975 420.431 0.27847 424.772C3.71536 424.184 5.75036 423.189 7.4688 421.788C6.56436 419.21 6.92614 417.13 7.74014 413.964C4.75547 414.281 3.12747 413.693 0.956803 412.02Z" fill="url(#paint14_linear_143_26)"/>
<path d="M336.506 427.847C339.084 431.419 340.576 435.037 341.752 440.237C350.299 433.228 356.404 428.977 364.046 425.45C364.273 419.661 362.871 416.722 360.293 413.014C354.595 415.32 345.777 420.701 336.461 427.847H336.506Z" fill="url(#paint15_linear_143_26)"/>
<path d="M57.3948 786.551C53.9127 787.907 50.2497 789.716 47.9434 793.334C48.3956 796.409 48.486 798.535 48.079 801.745C50.3401 800.163 52.2395 800.344 55.8572 801.926C55.2694 797.178 56.1738 792.656 57.44 786.551H57.3948Z" fill="url(#paint16_linear_143_26)"/>
<path d="M1675.4 615.43C1672.87 616.786 1670.97 617.058 1667.8 615.701C1668.03 619.5 1669.07 621.896 1671.29 626.193C1673.82 627.187 1675.31 626.871 1678.02 625.424C1676.17 621.716 1675.13 618.957 1675.45 615.43H1675.4Z" fill="url(#paint17_linear_143_26)"/>
<path d="M63.0022 901.143C62.143 903.992 60.9672 905.575 57.666 906.886C60.6055 909.464 63.1379 910.459 67.841 911.996C70.3735 910.866 71.2779 909.554 72.1823 906.524C68.1576 905.168 65.3538 903.901 63.0022 901.098V901.143Z" fill="url(#paint18_linear_143_26)"/>
<path d="M1671.42 437.163C1672.69 437.57 1673.68 438.203 1674.54 439.831C1677.71 436.756 1679.29 434.359 1681.46 430.741C1679.97 428.661 1678.66 427.892 1677.66 427.395C1676.26 431.691 1674.45 433.952 1671.42 437.163Z" fill="url(#paint19_linear_143_26)"/>
<path d="M119.575 1002.4C117.631 999.502 116.862 995.749 118.354 987.383C114.646 987.383 111.435 988.332 107.591 990.865C107.365 997.286 107.772 1001.09 110.214 1006.78C112.928 1004.16 115.144 1003.35 119.575 1002.4Z" fill="url(#paint20_linear_143_26)"/>
<path d="M1727.54 191.742C1729.04 196.717 1730.71 199.475 1735.1 203.364C1738.94 198.119 1742.15 195.812 1746.45 194.23C1745.41 189.481 1743.91 186.451 1741.06 182.02C1737.04 186.316 1733.47 188.712 1727.54 191.742Z" fill="url(#paint21_linear_143_26)"/>
<path d="M332.707 223.08C337.591 221.091 340.214 219.101 343.742 214.217C338.044 210.825 335.375 207.795 333.34 203.635C328.592 205.172 325.653 206.981 321.492 210.328C326.286 213.991 329.044 217.382 332.707 223.08Z" fill="url(#paint22_linear_143_26)"/>
<path d="M388.105 317.777C386.115 315.29 383.673 314.657 379.648 313.707C377.93 322.525 373.453 331.389 367.348 341.202C370.558 342.107 372.277 343.463 374.674 346.222C381.774 336.273 384.849 330.077 388.059 317.822L388.105 317.777Z" fill="url(#paint23_linear_143_26)"/>
<path d="M395.25 594.626C397.421 593.631 398.326 592.003 399.773 589.29C393.713 586.396 388.151 581.557 382.226 575.316C380.96 577.442 379.694 578.482 377.252 579.658C383.131 586.622 387.02 590.014 395.25 594.581V594.626Z" fill="url(#paint24_linear_143_26)"/>
<path d="M1012.22 363.089C1013.76 360.149 1014.25 358.34 1013.35 354.904C1007.97 353.547 1004.89 352.371 1000.01 350.02C999.829 352.009 999.241 353.321 998.562 354.361C1004.26 356.893 1007.43 359.2 1012.22 363.089Z" fill="url(#paint25_linear_143_26)"/>
<path d="M1331.62 216.615C1337.45 217.926 1340.8 218.017 1346.5 214.896C1346.41 204.902 1347.09 198.933 1349.03 189.3C1345.46 189.843 1342.88 189.481 1340.8 188.758C1338.95 199.837 1336.37 206.44 1331.67 216.615H1331.62Z" fill="url(#paint26_linear_143_26)"/>
<path d="M667.307 18.3594C664.956 23.786 664.051 26.9968 664.685 33.0566C671.377 34.7298 675.176 36.403 681.1 39.9756C681.643 36.4483 682.547 34.0063 683.588 32.1069C676.669 28.3535 672.915 24.7357 667.307 18.4046V18.3594Z" fill="url(#paint27_linear_143_26)"/>
<path d="M1866.69 107.221C1870.63 111.065 1874.24 112.196 1880.21 111.336C1883.2 106.362 1884.69 102.382 1884.33 97.9507C1878.81 95.1017 1876.01 91.6648 1871.76 85.3789C1871.08 93.9259 1870.4 99.1717 1866.74 107.176L1866.69 107.221Z" fill="url(#paint28_linear_143_26)"/>
<path d="M131.061 692.984C126.087 694.929 123.238 696.693 119.801 699.542C122.243 702.119 124.233 703.295 126.358 704.019C128.031 701.803 130.021 700.943 133.187 699.858C131.242 697.461 130.88 695.788 131.061 692.984Z" fill="url(#paint29_linear_143_26)"/>
<path d="M50.8826 270.474C48.6215 269.072 46.9935 267.354 45.1394 264.686C41.8834 270.564 39.4414 274.318 35.9141 277.981C37.0898 281.282 38.537 282.594 40.7981 284.131C43.4662 281.553 47.2196 276.534 50.8374 270.429L50.8826 270.474Z" fill="url(#paint30_linear_143_26)"/>
<path d="M209.025 907.294C212.462 908.515 215.221 910.278 218.567 913.263C221.055 904.354 223.225 898.566 226.752 892.461C224.13 888.391 221.778 887.079 218.251 885.723C215.447 890.019 212.01 897.933 209.025 907.248V907.294Z" fill="url(#paint31_linear_143_26)"/>
<path d="M363.912 277.573C360.158 276.94 356.043 276.578 352.109 278.523C350.842 281.462 349.847 283.362 347.812 285.894C350.616 285.713 352.154 286.844 354.505 290.145C356.495 285.713 359.615 282.276 363.912 277.573Z" fill="url(#paint32_linear_143_26)"/>
<path d="M382.905 74.4803C385.031 71.36 386.523 69.6867 389.643 67.4256C388.558 65.8881 387.337 64.8027 385.709 64.2148C383.493 65.5263 381.187 67.7422 378.338 70.9982C381.006 71.6313 382.272 72.4001 382.951 74.4803H382.905Z" fill="url(#paint33_linear_143_26)"/>
<path d="M1791.89 378.871C1788.82 380.318 1786.96 380.861 1783.57 381.223C1783.71 382.896 1784.11 384.298 1785.15 385.474C1787.46 385.474 1790.22 384.84 1793.84 383.619C1792.07 381.901 1791.44 380.77 1791.89 378.871Z" fill="url(#paint34_linear_143_26)"/>
<path d="M648.633 267.128C646.779 261.294 647.005 257.224 651.075 251.21C643.116 250.215 637.644 251.39 627.876 254.239C624.846 259.078 624.846 262.334 626.79 268.53C635.202 266.178 641.397 265.093 648.633 267.128Z" fill="url(#paint35_linear_143_26)"/>
<path d="M144.131 103.784C146.935 107.764 147.749 110.929 146.075 116.537C152.407 115.406 156.25 113.145 163.079 108.623C164.255 104.191 163.441 101.704 160.456 97.4531C154.577 101.297 150.145 103.603 144.131 103.784Z" fill="url(#paint36_linear_143_26)"/>
<path d="M1773.17 831.003C1778.19 833.806 1782.49 835.525 1787.28 835.434C1789.32 832.224 1789.95 829.782 1789.81 826.842C1784.03 826.48 1780.81 825.44 1775.98 822.365C1776.2 826.3 1775.7 828.651 1773.17 831.003Z" fill="url(#paint37_linear_143_26)"/>
<path d="M1402.76 601.139C1405.56 598.606 1407.91 598.019 1411.44 597.657C1408.23 592.366 1404.43 587.437 1402.03 585.809C1399.45 587.256 1397.6 589.065 1395.43 591.914C1398.14 593.723 1399.91 596.436 1402.71 601.139H1402.76Z" fill="url(#paint38_linear_143_26)"/>
<path d="M1865.29 230.408C1870.71 225.343 1875.24 224.122 1882.24 223.308C1875.78 213.043 1868.14 203.501 1863.43 200.426C1858.41 203.365 1854.89 206.983 1850.68 212.591C1856.06 216.027 1859.63 221.273 1865.29 230.408Z" fill="url(#paint39_linear_143_26)"/>
<path d="M875.375 177.226C873.295 175.101 872.029 172.749 872.074 168.725C862.623 171.438 856.97 174.332 848.875 179.126C849.599 184.778 851.317 187.718 852.764 189.662C860.045 182.743 865.969 180.211 875.375 177.272V177.226Z" fill="url(#paint40_linear_143_26)"/>
<path d="M1477.37 204.043C1478.82 201.51 1480.76 199.656 1484.56 198.616C1479.45 190.341 1475.16 185.728 1468.46 179.352C1463.26 181.567 1460.96 183.964 1459.46 185.864C1468.01 190.928 1472.04 195.903 1477.33 204.043H1477.37Z" fill="url(#paint41_linear_143_26)"/>
<path d="M1428.44 35.3646C1432.38 37.3544 1434.28 38.6206 1436.4 41.6957C1437.58 40.4295 1438.53 39.7964 1439.66 39.7512C1437.62 36.2691 1435.45 34.415 1431.47 31.9277C1430.11 32.8322 1429.21 33.9627 1428.49 35.3646H1428.44Z" fill="url(#paint42_linear_143_26)"/>
<path d="M715.286 122.915C709.995 124.588 703.98 124.09 691.861 118.121C690.142 123.729 690.233 129.02 692.403 136.029C702.036 139.24 708.005 140.325 717.818 139.149C715.015 133.813 714.788 130.105 715.331 122.96L715.286 122.915Z" fill="url(#paint43_linear_143_26)"/>
<path d="M1586.4 588.16C1587.44 592.23 1586.81 596.753 1581.75 605.616C1585.91 607.154 1589.93 607.335 1595.27 605.978C1598.12 598.833 1599.2 594.356 1598.7 586.939C1594.59 588.794 1591.74 588.839 1586.36 588.115L1586.4 588.16Z" fill="url(#paint44_linear_143_26)"/>
<path d="M1738.44 710.848C1734.69 715.822 1733.24 719.395 1732.61 726.404C1740.39 726.404 1744.91 727.851 1749.48 730.836C1753.37 726.449 1755.22 722.832 1757.39 716.953C1750.38 716.139 1745.54 714.375 1738.4 710.848H1738.44Z" fill="url(#paint45_linear_143_26)"/>
<path d="M114.645 26.5914C120.434 28.3551 124.142 28.4908 130.79 26.6819C128.167 19.582 127.986 14.9693 129.207 9.81399C123.916 7.73377 120.027 7.28155 113.922 7.23633C115.55 13.9292 115.55 18.9037 114.691 26.5914H114.645Z" fill="url(#paint46_linear_143_26)"/>
<path d="M1812.29 143.491C1815.27 143.129 1816.99 141.501 1819.7 138.788C1813.55 133.045 1808.67 125.131 1803.92 115.453C1801.62 117.533 1799.72 118.257 1796.32 118.8C1800.76 129.336 1804.15 134.853 1812.29 143.491Z" fill="url(#paint47_linear_143_26)"/>
<path d="M440.02 191.606C440.517 193.731 441.919 194.952 444.587 196.354C447.255 192.42 449.245 190.385 453.044 187.943C451.144 186.812 450.24 185.455 448.929 182.471C445.085 185.003 442.688 187.716 439.975 191.606H440.02Z" fill="url(#paint48_linear_143_26)"/>
<path d="M256.055 754.261C256.236 759.009 255.377 763.215 253.297 768.597C265.281 767.466 273.33 767.33 282.375 768.777C286.083 763.667 286.58 760.185 286.535 755.301C279.978 753.899 268.808 753.447 256.055 754.261Z" fill="url(#paint49_linear_143_26)"/>
<path d="M1669.07 305.023C1672.14 305.295 1674.72 306.154 1678.02 307.963C1678.25 300.185 1678.79 295.029 1680.46 289.376C1677.48 286.618 1675.31 285.985 1672.14 285.623C1670.74 289.693 1669.57 296.838 1669.02 305.069L1669.07 305.023Z" fill="url(#paint50_linear_143_26)"/>
<path d="M197.223 960.114C199.665 962.285 202.514 964.455 206.267 964.862C208.528 963.325 210.111 962.375 212.824 961.471C210.699 960.34 210.111 958.757 209.885 955.32C206.403 957.627 202.514 958.712 197.223 960.159V960.114Z" fill="url(#paint51_linear_143_26)"/>
<path d="M154.623 463.167C149.92 457.514 147.659 453.851 145.036 446.887C141.599 448.108 138.886 449.736 136.986 452.539C138.298 457.378 141.147 462.85 145.714 469.86C148.337 465.202 150.417 463.257 154.623 463.167Z" fill="url(#paint52_linear_143_26)"/>
<path d="M1040.3 59.0153C1047.4 62.407 1051.24 64.9394 1056.94 70.547C1059.75 67.8336 1061.65 64.9846 1062.23 61.4121C1058.8 57.2968 1053.55 53.2268 1045.95 48.4785C1045.5 54.1765 1044.33 57.0255 1040.3 59.0153Z" fill="url(#paint53_linear_143_26)"/>
<path d="M1353.33 761.994C1353.24 765.205 1352.38 767.195 1349.3 769.456C1353.06 771.355 1356 771.717 1361.33 772.079C1363.69 770.225 1364.27 768.597 1364.41 765.205C1359.84 764.888 1356.54 764.346 1353.37 762.039L1353.33 761.994Z" fill="url(#paint54_linear_143_26)"/>
<path d="M6.74609 529.689C8.46454 533.894 10.2734 537.105 13.2581 539.457C16.1071 538.462 17.7351 537.286 19.0918 535.387C15.7001 532.266 14.253 530.05 12.7606 525.709C10.9065 528.241 9.45943 529.462 6.74609 529.689Z" fill="url(#paint55_linear_143_26)"/>
<path d="M1747.53 1018.09C1744.54 1021.07 1742.01 1021.84 1738.03 1022.43C1741.88 1028.13 1746.4 1033.42 1749.11 1035.09C1751.91 1033.33 1753.86 1031.2 1756.12 1027.95C1753 1026.09 1750.87 1023.15 1747.48 1018.13L1747.53 1018.09Z" fill="url(#paint56_linear_143_26)"/>
<path d="M48.9373 127.119C48.8017 130.556 47.7616 132.456 45.7266 135.033C51.2437 136.3 56.8965 136.887 59.4289 136.345C60.1072 133.722 60.1072 131.37 59.6098 128.114C56.7156 128.747 53.8213 128.205 48.9373 127.074V127.119Z" fill="url(#paint57_linear_143_26)"/>
<path d="M1520.65 683.896C1513.73 685.162 1510.07 685.388 1504.42 683.443C1504.15 686.247 1503.56 687.92 1502.16 689.051C1508.13 691.538 1512.65 691.809 1520.15 691.131C1521.01 688.644 1521.1 686.338 1520.7 683.896H1520.65Z" fill="url(#paint58_linear_143_26)"/>
<path d="M1867.46 403.879C1866.92 406.457 1865.29 408.808 1859.95 412.426C1861.85 414.461 1864.07 415.682 1867.46 416.451C1871.08 413.24 1872.93 411.024 1874.74 406.728C1871.89 406.637 1870.31 405.823 1867.46 403.924V403.879Z" fill="url(#paint59_linear_143_26)"/>
<path d="M1790.13 20.4414C1789.59 23.0191 1787.96 25.3706 1782.62 28.9884C1784.52 31.0234 1786.74 32.2444 1790.13 33.0132C1793.75 29.8024 1795.6 27.5865 1797.41 23.2904C1794.56 23.2 1792.98 22.386 1790.13 20.4866V20.4414Z" fill="url(#paint60_linear_143_26)"/>
<path d="M92.7584 229.502C96.4214 227.874 100.763 227.784 109.943 231.13C110.757 226.97 110.305 223.171 108.179 218.333C101.034 216.795 96.6475 216.433 89.7285 218.061C92.1253 221.679 92.5775 224.347 92.7584 229.502Z" fill="url(#paint61_linear_143_26)"/>
<path d="M589.208 704.652C587.354 706.145 586.811 708.134 586.676 711.39C591.786 712.159 594.725 713.199 598.931 715.777C599.157 713.38 600.062 711.843 602.413 709.175C598.117 706.597 594.318 705.466 589.208 704.652Z" fill="url(#paint62_linear_143_26)"/>
<path d="M257.367 21.9771C257.458 25.5045 258.588 27.6299 261.709 29.9363C265.326 29.0318 267.768 27.856 269.577 25.6401C268.356 21.8867 268.582 19.0377 269.487 14.2441C265.326 17.8619 262.658 19.9421 257.367 21.9771Z" fill="url(#paint63_linear_143_26)"/>
<path d="M1855.93 311.175C1858.46 305.748 1859.46 302.13 1860.04 297.11C1856.07 296.884 1853.53 297.472 1851.27 298.558C1851.59 301.633 1850.64 303.894 1848.88 307.195C1852.27 307.647 1853.94 308.733 1855.93 311.175Z" fill="url(#paint64_linear_143_26)"/>
<path d="M1356.9 99.0368C1367.3 104.011 1374.26 105.956 1383.85 107.267C1384.35 99.5794 1383.31 94.6954 1381.27 90.3089C1375.3 90.8968 1371.05 89.0427 1364.68 85.5605C1363.73 92.1178 1361.65 95.2381 1356.9 99.0368Z" fill="url(#paint65_linear_143_26)"/>
<path d="M582.017 132.592C577.72 129.743 572.791 127.074 566.867 127.301C563.702 130.24 561.44 132.049 557.461 134.084C561.033 135.35 562.345 137.656 563.43 142.993C568.314 138.606 574.103 136.028 582.017 132.592Z" fill="url(#paint66_linear_143_26)"/>
<path d="M1173.84 209.108C1169.77 205.49 1164.98 201.963 1158.74 201.375C1155.03 203.998 1152.36 205.581 1147.93 207.118C1151.5 208.972 1152.5 211.595 1152.86 217.293C1158.6 213.404 1165.07 211.55 1173.84 209.063V209.108Z" fill="url(#paint67_linear_143_26)"/>
<path d="M845.031 57.523C846.026 54.2217 846.84 52.3676 848.92 49.5638C847.563 48.5237 846.207 47.8906 844.624 47.8906C843.086 49.6543 841.684 52.232 840.102 55.8045C842.589 55.6236 843.9 55.9402 845.031 57.523Z" fill="url(#paint68_linear_143_26)"/>
<path d="M228.877 359.607C231.409 362.004 232.404 364.129 231.997 368.245C236.248 366.571 238.69 364.446 242.805 360.331C242.986 357.075 242.082 355.447 239.414 352.869C235.841 356.351 233.037 358.612 228.877 359.562V359.607Z" fill="url(#paint69_linear_143_26)"/>
<path d="M275.411 342.65C274.597 339.122 273.602 336.409 271.522 334.238C269.17 334.645 267.768 335.369 266.457 336.68C268.718 339.529 269.577 341.474 270.21 345.001C271.974 343.237 273.24 342.469 275.411 342.65Z" fill="url(#paint70_linear_143_26)"/>
<path d="M1574.6 735.765C1572.47 729.073 1573.24 724.731 1575.37 718.445C1564.02 719.802 1552.76 722.47 1548.23 725.229C1548.69 730.701 1550.36 735.178 1553.48 741.056C1558.59 737.846 1564.51 736.941 1574.6 735.765Z" fill="url(#paint71_linear_143_26)"/>
<path d="M1802.16 507.664C1798.77 506.262 1797.32 504.498 1795.51 501.514C1792.26 506.488 1789.54 511.87 1789.09 514.583C1791.44 516.256 1793.75 517.07 1797.14 517.794C1797.59 514.673 1799.22 512.005 1802.11 507.619L1802.16 507.664Z" fill="url(#paint72_linear_143_26)"/>
<path d="M1824.27 630.172C1821.56 631.936 1818.71 632.75 1814.46 631.8C1815.27 642.518 1817.13 649.21 1820.48 658.888C1826.72 659.34 1830.2 658.164 1832.59 657.079C1826.81 647.763 1825.4 640.844 1824.27 630.172Z" fill="url(#paint73_linear_143_26)"/>
<path d="M236.883 418.576C235.345 420.566 233.536 421.923 230.145 422.375C233.581 429.972 236.702 434.314 241.676 440.509C246.334 439.198 248.55 437.434 249.997 435.987C243.304 430.741 240.455 426.083 236.837 418.576H236.883Z" fill="url(#paint74_linear_143_26)"/>
<path d="M1521.06 522.135C1516.44 521.773 1514.09 521.321 1510.79 519.15C1510.16 520.869 1509.48 521.864 1508.39 522.361C1511.79 524.939 1514.64 525.888 1519.47 526.702C1520.47 525.255 1520.88 523.808 1521.01 522.18L1521.06 522.135Z" fill="url(#paint75_linear_143_26)"/>
<path d="M1555.52 19.2191C1560.72 17.772 1566.55 18.4051 1578.13 24.6006C1579.94 19.2191 1580.07 14.0186 1578.13 7.19003C1568.86 3.79837 1563.07 2.53215 1553.53 3.39137C1556.06 8.63715 1556.2 12.3001 1555.47 19.2191H1555.52Z" fill="url(#paint76_linear_143_26)"/>
<path d="M1795.83 938.18C1792.57 935.467 1790.4 931.352 1789.27 921.041C1784.93 922.262 1781.54 924.478 1777.92 928.774C1779.82 936.326 1781.58 940.667 1786.38 946.501C1788.68 942.522 1790.99 940.803 1795.83 938.18Z" fill="url(#paint77_linear_143_26)"/>
<path d="M295.536 132.591C295.038 135.576 295.219 137.475 296.531 140.641C299.922 138.877 302.184 138.47 304.852 138.741C305.53 135.983 305.53 133.993 305.168 130.918C301.957 132.139 299.425 132.501 295.536 132.546V132.591Z" fill="url(#paint78_linear_143_26)"/>
<path d="M1724.51 952.11C1728.27 952.245 1730.75 950.572 1734.64 947.723C1728.08 939.402 1723.61 928.594 1719.58 915.615C1716.33 917.741 1713.75 918.283 1709.45 918.283C1712.89 932.257 1716.01 939.809 1724.47 952.11H1724.51Z" fill="url(#paint79_linear_143_26)"/>
<path d="M1627.87 810.338C1624.3 807.941 1622.08 806.991 1617.51 807.579C1614.94 814.272 1612.95 818.071 1609.15 823.995C1611.68 824.538 1613.31 825.487 1614.48 826.528C1618.65 819.609 1622.04 815.9 1627.83 810.338H1627.87Z" fill="url(#paint80_linear_143_26)"/>
</g>
<defs>
<linearGradient id="paint0_linear_143_26" x1="1309.48" y1="45.6245" x2="1302.41" y2="36.1596" gradientUnits="userSpaceOnUse">
<stop stop-color="#FF5C5C"/>
<stop offset="0.3" stop-color="#F34444"/>
<stop offset="0.93" stop-color="#D60606"/>
<stop offset="1" stop-color="#D30000"/>
</linearGradient>
<linearGradient id="paint1_linear_143_26" x1="339.786" y1="587.396" x2="340.143" y2="577.761" gradientUnits="userSpaceOnUse">
<stop stop-color="#FF5C5C"/>
<stop offset="0.3" stop-color="#F34444"/>
<stop offset="0.93" stop-color="#D60606"/>
<stop offset="1" stop-color="#D30000"/>
</linearGradient>
<linearGradient id="paint2_linear_143_26" x1="161.406" y1="354.846" x2="170.292" y2="352.214" gradientUnits="userSpaceOnUse">
<stop stop-color="#FF5C5C"/>
<stop offset="0.3" stop-color="#F34444"/>
<stop offset="0.93" stop-color="#D60606"/>
<stop offset="1" stop-color="#D30000"/>
</linearGradient>
<linearGradient id="paint3_linear_143_26" x1="1367.13" y1="-9.78169" x2="1365.4" y2="6.08029" gradientUnits="userSpaceOnUse">
<stop stop-color="#FF5C5C"/>
<stop offset="0.3" stop-color="#F34444"/>
<stop offset="0.93" stop-color="#D60606"/>
<stop offset="1" stop-color="#D30000"/>
</linearGradient>
<linearGradient id="paint4_linear_143_26" x1="1558.38" y1="196.191" x2="1555.19" y2="210.017" gradientUnits="userSpaceOnUse">
<stop stop-color="#FF5C5C"/>
<stop offset="0.3" stop-color="#F34444"/>
<stop offset="0.93" stop-color="#D60606"/>
<stop offset="1" stop-color="#D30000"/>
</linearGradient>
<linearGradient id="paint5_linear_143_26" x1="166.522" y1="202.325" x2="171.43" y2="211.552" gradientUnits="userSpaceOnUse">
<stop stop-color="#FF5C5C"/>
<stop offset="0.3" stop-color="#F34444"/>
<stop offset="0.93" stop-color="#D60606"/>
<stop offset="1" stop-color="#D30000"/>
</linearGradient>
<linearGradient id="paint6_linear_143_26" x1="478.634" y1="63.941" x2="483.542" y2="73.1685" gradientUnits="userSpaceOnUse">
<stop stop-color="#FF5C5C"/>
<stop offset="0.3" stop-color="#F34444"/>
<stop offset="0.93" stop-color="#D60606"/>
<stop offset="1" stop-color="#D30000"/>
</linearGradient>
<linearGradient id="paint7_linear_143_26" x1="1861.59" y1="35.8286" x2="1868.58" y2="33.853" gradientUnits="userSpaceOnUse">
<stop stop-color="#FF5C5C"/>
<stop offset="0.3" stop-color="#F34444"/>
<stop offset="0.93" stop-color="#D60606"/>
<stop offset="1" stop-color="#D30000"/>
</linearGradient>
<linearGradient id="paint8_linear_143_26" x1="450.197" y1="309.256" x2="441.512" y2="320.181" gradientUnits="userSpaceOnUse">
<stop stop-color="#FF5C5C"/>
<stop offset="0.3" stop-color="#F34444"/>
<stop offset="0.93" stop-color="#D60606"/>
<stop offset="1" stop-color="#D30000"/>
</linearGradient>
<linearGradient id="paint9_linear_143_26" x1="1344.9" y1="307.594" x2="1348.05" y2="325.953" gradientUnits="userSpaceOnUse">
<stop stop-color="#FF5C5C"/>
<stop offset="0.3" stop-color="#F34444"/>
<stop offset="0.93" stop-color="#D60606"/>
<stop offset="1" stop-color="#D30000"/>
</linearGradient>
<linearGradient id="paint10_linear_143_26" x1="1682.77" y1="56.9194" x2="1685.92" y2="75.2145" gradientUnits="userSpaceOnUse">
<stop stop-color="#FF5C5C"/>
<stop offset="0.3" stop-color="#F34444"/>
<stop offset="0.93" stop-color="#D60606"/>
<stop offset="1" stop-color="#D30000"/>
</linearGradient>
<linearGradient id="paint11_linear_143_26" x1="60.0354" y1="604.031" x2="52.951" y2="610.971" gradientUnits="userSpaceOnUse">
<stop stop-color="#FF5C5C"/>
<stop offset="0.3" stop-color="#F34444"/>
<stop offset="0.93" stop-color="#D60606"/>
<stop offset="1" stop-color="#D30000"/>
</linearGradient>
<linearGradient id="paint12_linear_143_26" x1="67.5769" y1="301.654" x2="62.1255" y2="317.085" gradientUnits="userSpaceOnUse">
<stop stop-color="#FF5C5C"/>
<stop offset="0.3" stop-color="#F34444"/>
<stop offset="0.93" stop-color="#D60606"/>
<stop offset="1" stop-color="#D30000"/>
</linearGradient>
<linearGradient id="paint13_linear_143_26" x1="1223.09" y1="43.6829" x2="1227.49" y2="24.775" gradientUnits="userSpaceOnUse">
<stop stop-color="#4D8EFF"/>
<stop offset="0.43" stop-color="#3E76FF"/>
<stop offset="1" stop-color="#2850FF"/>
</linearGradient>
<linearGradient id="paint14_linear_143_26" x1="-4.08822" y1="408.676" x2="5.17725" y2="408.472" gradientUnits="userSpaceOnUse">
<stop stop-color="#4D8EFF"/>
<stop offset="0.43" stop-color="#3E76FF"/>
<stop offset="1" stop-color="#2850FF"/>
</linearGradient>
<linearGradient id="paint15_linear_143_26" x1="343.15" y1="446.831" x2="332.041" y2="428.368" gradientUnits="userSpaceOnUse">
<stop stop-color="#4D8EFF"/>
<stop offset="0.43" stop-color="#3E76FF"/>
<stop offset="1" stop-color="#2850FF"/>
</linearGradient>
<linearGradient id="paint16_linear_143_26" x1="-36.3652" y1="762.366" x2="-47.5078" y2="762.889" gradientUnits="userSpaceOnUse">
<stop stop-color="#4D8EFF"/>
<stop offset="0.43" stop-color="#3E76FF"/>
<stop offset="1" stop-color="#2850FF"/>
</linearGradient>
<linearGradient id="paint17_linear_143_26" x1="1682.3" y1="620.997" x2="1672.75" y2="623.163" gradientUnits="userSpaceOnUse">
<stop stop-color="#4D8EFF"/>
<stop offset="0.43" stop-color="#3E76FF"/>
<stop offset="1" stop-color="#2850FF"/>
</linearGradient>
<linearGradient id="paint18_linear_143_26" x1="59.697" y1="901.945" x2="54.3061" y2="910.436" gradientUnits="userSpaceOnUse">
<stop stop-color="#4D8EFF"/>
<stop offset="0.43" stop-color="#3E76FF"/>
<stop offset="1" stop-color="#2850FF"/>
</linearGradient>
<linearGradient id="paint19_linear_143_26" x1="1670.81" y1="391.658" x2="1676.33" y2="395.524" gradientUnits="userSpaceOnUse">
<stop stop-color="#4D8EFF"/>
<stop offset="0.43" stop-color="#3E76FF"/>
<stop offset="1" stop-color="#2850FF"/>
</linearGradient>
<linearGradient id="paint20_linear_143_26" x1="100.727" y1="977.532" x2="83.7755" y2="980.4" gradientUnits="userSpaceOnUse">
<stop stop-color="#4D8EFF"/>
<stop offset="0.43" stop-color="#3E76FF"/>
<stop offset="1" stop-color="#2850FF"/>
</linearGradient>
<linearGradient id="paint21_linear_143_26" x1="1752.24" y1="171.755" x2="1761.48" y2="184.888" gradientUnits="userSpaceOnUse">
<stop stop-color="#4D8EFF"/>
<stop offset="0.43" stop-color="#3E76FF"/>
<stop offset="1" stop-color="#2850FF"/>
</linearGradient>
<linearGradient id="paint22_linear_143_26" x1="329.035" y1="222.724" x2="341.52" y2="211.915" gradientUnits="userSpaceOnUse">
<stop stop-color="#4D8EFF"/>
<stop offset="0.43" stop-color="#3E76FF"/>
<stop offset="1" stop-color="#2850FF"/>
</linearGradient>
<linearGradient id="paint23_linear_143_26" x1="375.208" y1="330.396" x2="361.87" y2="322.251" gradientUnits="userSpaceOnUse">
<stop stop-color="#4D8EFF"/>
<stop offset="0.43" stop-color="#3E76FF"/>
<stop offset="1" stop-color="#2850FF"/>
</linearGradient>
<linearGradient id="paint24_linear_143_26" x1="342.211" y1="482.537" x2="350.482" y2="474.502" gradientUnits="userSpaceOnUse">
<stop stop-color="#4D8EFF"/>
<stop offset="0.43" stop-color="#3E76FF"/>
<stop offset="1" stop-color="#2850FF"/>
</linearGradient>
<linearGradient id="paint25_linear_143_26" x1="1058.46" y1="422.415" x2="1055.66" y2="431.127" gradientUnits="userSpaceOnUse">
<stop stop-color="#4D8EFF"/>
<stop offset="0.43" stop-color="#3E76FF"/>
<stop offset="1" stop-color="#2850FF"/>
</linearGradient>
<linearGradient id="paint26_linear_143_26" x1="1346.48" y1="220.814" x2="1330" y2="219.927" gradientUnits="userSpaceOnUse">
<stop stop-color="#4D8EFF"/>
<stop offset="0.43" stop-color="#3E76FF"/>
<stop offset="1" stop-color="#2850FF"/>
</linearGradient>
<linearGradient id="paint27_linear_143_26" x1="-838.267" y1="-1092.77" x2="-832.873" y2="-1107.4" gradientUnits="userSpaceOnUse">
<stop stop-color="#4D8EFF"/>
<stop offset="0.43" stop-color="#3E76FF"/>
<stop offset="1" stop-color="#2850FF"/>
</linearGradient>
<linearGradient id="paint28_linear_143_26" x1="1867.84" y1="95.7314" x2="1887.33" y2="101.489" gradientUnits="userSpaceOnUse">
<stop stop-color="#FC9512"/>
<stop offset="0.68" stop-color="#FED319"/>
<stop offset="1" stop-color="#FFEB1C"/>
</linearGradient>
<linearGradient id="paint29_linear_143_26" x1="159.447" y1="698.771" x2="164.84" y2="706.603" gradientUnits="userSpaceOnUse">
<stop stop-color="#FC9512"/>
<stop offset="0.68" stop-color="#FED319"/>
<stop offset="1" stop-color="#FFEB1C"/>
</linearGradient>
<linearGradient id="paint30_linear_143_26" x1="71.9786" y1="287.82" x2="82.3676" y2="295.69" gradientUnits="userSpaceOnUse">
<stop stop-color="#FC9512"/>
<stop offset="0.68" stop-color="#FED319"/>
<stop offset="1" stop-color="#FFEB1C"/>
</linearGradient>
<linearGradient id="paint31_linear_143_26" x1="236.363" y1="876.908" x2="220.011" y2="869.63" gradientUnits="userSpaceOnUse">
<stop stop-color="#FC9512"/>
<stop offset="0.68" stop-color="#FED319"/>
<stop offset="1" stop-color="#FFEB1C"/>
</linearGradient>
<linearGradient id="paint32_linear_143_26" x1="427.342" y1="323.982" x2="417.28" y2="318.544" gradientUnits="userSpaceOnUse">
<stop stop-color="#FC9512"/>
<stop offset="0.68" stop-color="#FED319"/>
<stop offset="1" stop-color="#FFEB1C"/>
</linearGradient>
<linearGradient id="paint33_linear_143_26" x1="419.16" y1="155.441" x2="413.861" y2="150.514" gradientUnits="userSpaceOnUse">
<stop stop-color="#FC9512"/>
<stop offset="0.68" stop-color="#FED319"/>
<stop offset="1" stop-color="#FFEB1C"/>
</linearGradient>
<linearGradient id="paint34_linear_143_26" x1="1868.74" y1="402.545" x2="1870.55" y2="408.718" gradientUnits="userSpaceOnUse">
<stop stop-color="#FC9512"/>
<stop offset="0.68" stop-color="#FED319"/>
<stop offset="1" stop-color="#FFEB1C"/>
</linearGradient>
<linearGradient id="paint35_linear_143_26" x1="581.194" y1="217.673" x2="580.48" y2="197.048" gradientUnits="userSpaceOnUse">
<stop stop-color="#FC9512"/>
<stop offset="0.68" stop-color="#FED319"/>
<stop offset="1" stop-color="#FFEB1C"/>
</linearGradient>
<linearGradient id="paint36_linear_143_26" x1="159.032" y1="95.1066" x2="164.526" y2="110.644" gradientUnits="userSpaceOnUse">
<stop stop-color="#FC9512"/>
<stop offset="0.68" stop-color="#FED319"/>
<stop offset="1" stop-color="#FFEB1C"/>
</linearGradient>
<linearGradient id="paint37_linear_143_26" x1="1774.35" y1="875.665" x2="1777.15" y2="865.662" gradientUnits="userSpaceOnUse">
<stop stop-color="#FC9512"/>
<stop offset="0.68" stop-color="#FED319"/>
<stop offset="1" stop-color="#FFEB1C"/>
</linearGradient>
<linearGradient id="paint38_linear_143_26" x1="1380.99" y1="545.667" x2="1391.45" y2="538.146" gradientUnits="userSpaceOnUse">
<stop stop-color="#FC9512"/>
<stop offset="0.68" stop-color="#FED319"/>
<stop offset="1" stop-color="#FFEB1C"/>
</linearGradient>
<linearGradient id="paint39_linear_143_26" x1="1845.26" y1="150.63" x2="1865.45" y2="135.563" gradientUnits="userSpaceOnUse">
<stop stop-color="#FC9512"/>
<stop offset="0.68" stop-color="#FED319"/>
<stop offset="1" stop-color="#FFEB1C"/>
</linearGradient>
<linearGradient id="paint40_linear_143_26" x1="848.491" y1="171.539" x2="841.784" y2="158.059" gradientUnits="userSpaceOnUse">
<stop stop-color="#FC9512"/>
<stop offset="0.68" stop-color="#FED319"/>
<stop offset="1" stop-color="#FFEB1C"/>
</linearGradient>
<linearGradient id="paint41_linear_143_26" x1="1455.1" y1="122.183" x2="1466.1" y2="112.212" gradientUnits="userSpaceOnUse">
<stop stop-color="#FC9512"/>
<stop offset="0.68" stop-color="#FED319"/>
<stop offset="1" stop-color="#FFEB1C"/>
</linearGradient>
<linearGradient id="paint42_linear_143_26" x1="1441.27" y1="38.8798" x2="1436.38" y2="44.7282" gradientUnits="userSpaceOnUse">
<stop stop-color="#FC9512"/>
<stop offset="0.68" stop-color="#FED319"/>
<stop offset="1" stop-color="#FFEB1C"/>
</linearGradient>
<linearGradient id="paint43_linear_143_26" x1="713.54" y1="116.277" x2="710.342" y2="143.396" gradientUnits="userSpaceOnUse">
<stop stop-color="#FC9512"/>
<stop offset="0.68" stop-color="#FED319"/>
<stop offset="1" stop-color="#FFEB1C"/>
</linearGradient>
<linearGradient id="paint44_linear_143_26" x1="1581.04" y1="594.821" x2="1601.36" y2="598.402" gradientUnits="userSpaceOnUse">
<stop stop-color="#FC9512"/>
<stop offset="0.68" stop-color="#FED319"/>
<stop offset="1" stop-color="#FFEB1C"/>
</linearGradient>
<linearGradient id="paint45_linear_143_26" x1="1751.77" y1="706.082" x2="1745.71" y2="724.462" gradientUnits="userSpaceOnUse">
<stop stop-color="#FC9512"/>
<stop offset="0.68" stop-color="#FED319"/>
<stop offset="1" stop-color="#FFEB1C"/>
</linearGradient>
<linearGradient id="paint46_linear_143_26" x1="101.433" y1="75.8692" x2="120.316" y2="75.2706" gradientUnits="userSpaceOnUse">
<stop stop-color="#FC9512"/>
<stop offset="0.68" stop-color="#FED319"/>
<stop offset="1" stop-color="#FFEB1C"/>
</linearGradient>
<linearGradient id="paint47_linear_143_26" x1="1790.98" y1="79.0058" x2="1804" y2="72.4402" gradientUnits="userSpaceOnUse">
<stop stop-color="#FC9512"/>
<stop offset="0.68" stop-color="#FED319"/>
<stop offset="1" stop-color="#FFEB1C"/>
</linearGradient>
<linearGradient id="paint48_linear_143_26" x1="454.046" y1="239.608" x2="446.717" y2="232.485" gradientUnits="userSpaceOnUse">
<stop stop-color="#FF3EB9"/>
<stop offset="0.04" stop-color="#FF43BB"/>
<stop offset="0.7" stop-color="#FF97E2"/>
<stop offset="1" stop-color="#FFB9F2"/>
</linearGradient>
<linearGradient id="paint49_linear_143_26" x1="272.41" y1="783.216" x2="273.57" y2="759.959" gradientUnits="userSpaceOnUse">
<stop stop-color="#FF3EB9"/>
<stop offset="0.04" stop-color="#FF43BB"/>
<stop offset="0.7" stop-color="#FF97E2"/>
<stop offset="1" stop-color="#FFB9F2"/>
</linearGradient>
<linearGradient id="paint50_linear_143_26" x1="1688.5" y1="337.508" x2="1673.61" y2="334.9" gradientUnits="userSpaceOnUse">
<stop stop-color="#FF3EB9"/>
<stop offset="0.04" stop-color="#FF43BB"/>
<stop offset="0.7" stop-color="#FF97E2"/>
<stop offset="1" stop-color="#FFB9F2"/>
</linearGradient>
<linearGradient id="paint51_linear_143_26" x1="214.279" y1="976.818" x2="219.136" y2="985.426" gradientUnits="userSpaceOnUse">
<stop stop-color="#FF3EB9"/>
<stop offset="0.04" stop-color="#FF43BB"/>
<stop offset="0.7" stop-color="#FF97E2"/>
<stop offset="1" stop-color="#FFB9F2"/>
</linearGradient>
<linearGradient id="paint52_linear_143_26" x1="196.756" y1="489.022" x2="184.819" y2="496.314" gradientUnits="userSpaceOnUse">
<stop stop-color="#FF3EB9"/>
<stop offset="0.04" stop-color="#FF43BB"/>
<stop offset="0.7" stop-color="#FF97E2"/>
<stop offset="1" stop-color="#FFB9F2"/>
</linearGradient>
<linearGradient id="paint53_linear_143_26" x1="1031.32" y1="78.522" x2="1039.67" y2="66.0666" gradientUnits="userSpaceOnUse">
<stop stop-color="#FF3EB9"/>
<stop offset="0.04" stop-color="#FF43BB"/>
<stop offset="0.7" stop-color="#FF97E2"/>
<stop offset="1" stop-color="#FFB9F2"/>
</linearGradient>
<linearGradient id="paint54_linear_143_26" x1="1347.15" y1="760.4" x2="1343.86" y2="770.736" gradientUnits="userSpaceOnUse">
<stop stop-color="#FF3EB9"/>
<stop offset="0.04" stop-color="#FF43BB"/>
<stop offset="0.7" stop-color="#FF97E2"/>
<stop offset="1" stop-color="#FFB9F2"/>
</linearGradient>
<linearGradient id="paint55_linear_143_26" x1="16.3703" y1="495.635" x2="23.018" y2="490.888" gradientUnits="userSpaceOnUse">
<stop stop-color="#FF3EB9"/>
<stop offset="0.04" stop-color="#FF43BB"/>
<stop offset="0.7" stop-color="#FF97E2"/>
<stop offset="1" stop-color="#FFB9F2"/>
</linearGradient>
<linearGradient id="paint56_linear_143_26" x1="1766.16" y1="1020.67" x2="1754.95" y2="1029.67" gradientUnits="userSpaceOnUse">
<stop stop-color="#FF3EB9"/>
<stop offset="0.04" stop-color="#FF43BB"/>
<stop offset="0.7" stop-color="#FF97E2"/>
<stop offset="1" stop-color="#FFB9F2"/>
</linearGradient>
<linearGradient id="paint57_linear_143_26" x1="78.9276" y1="133.037" x2="77.2772" y2="144.76" gradientUnits="userSpaceOnUse">
<stop stop-color="#FF3EB9"/>
<stop offset="0.04" stop-color="#FF43BB"/>
<stop offset="0.7" stop-color="#FF97E2"/>
<stop offset="1" stop-color="#FFB9F2"/>
</linearGradient>
<linearGradient id="paint58_linear_143_26" x1="1464.18" y1="667.801" x2="1464.8" y2="655.726" gradientUnits="userSpaceOnUse">
<stop stop-color="#FF3EB9"/>
<stop offset="0.04" stop-color="#FF43BB"/>
<stop offset="0.7" stop-color="#FF97E2"/>
<stop offset="1" stop-color="#FFB9F2"/>
</linearGradient>
<linearGradient id="paint59_linear_143_26" x1="1848.68" y1="402.173" x2="1859.08" y2="409.881" gradientUnits="userSpaceOnUse">
<stop stop-color="#FF3EB9"/>
<stop offset="0.04" stop-color="#FF43BB"/>
<stop offset="0.7" stop-color="#FF97E2"/>
<stop offset="1" stop-color="#FFB9F2"/>
</linearGradient>
<linearGradient id="paint60_linear_143_26" x1="1771.56" y1="19.6571" x2="1781.96" y2="27.3651" gradientUnits="userSpaceOnUse">
<stop stop-color="#FF3EB9"/>
<stop offset="0.04" stop-color="#FF43BB"/>
<stop offset="0.7" stop-color="#FF97E2"/>
<stop offset="1" stop-color="#FFB9F2"/>
</linearGradient>
<linearGradient id="paint61_linear_143_26" x1="96.4389" y1="174.444" x2="96.6424" y2="154.825" gradientUnits="userSpaceOnUse">
<stop stop-color="#FF3EB9"/>
<stop offset="0.04" stop-color="#FF43BB"/>
<stop offset="0.7" stop-color="#FF97E2"/>
<stop offset="1" stop-color="#FFB9F2"/>
</linearGradient>
<linearGradient id="paint62_linear_143_26" x1="580.913" y1="710.515" x2="584.45" y2="700.066" gradientUnits="userSpaceOnUse">
<stop stop-color="#00EE98"/>
<stop offset="0.28" stop-color="#00D685"/>
<stop offset="0.87" stop-color="#009854"/>
<stop offset="1" stop-color="#008A49"/>
</linearGradient>
<linearGradient id="paint63_linear_143_26" x1="260.171" y1="27.1549" x2="266.492" y2="38.5308" gradientUnits="userSpaceOnUse">
<stop stop-color="#00EE98"/>
<stop offset="0.28" stop-color="#00D685"/>
<stop offset="0.87" stop-color="#009854"/>
<stop offset="1" stop-color="#008A49"/>
</linearGradient>
<linearGradient id="paint64_linear_143_26" x1="1830.65" y1="280.113" x2="1820.29" y2="277.902" gradientUnits="userSpaceOnUse">
<stop stop-color="#00EE98"/>
<stop offset="0.28" stop-color="#00D685"/>
<stop offset="0.87" stop-color="#009854"/>
<stop offset="1" stop-color="#008A49"/>
</linearGradient>
<linearGradient id="paint65_linear_143_26" x1="1357.96" y1="161.905" x2="1362.43" y2="141.887" gradientUnits="userSpaceOnUse">
<stop stop-color="#00EE98"/>
<stop offset="0.28" stop-color="#00D685"/>
<stop offset="0.87" stop-color="#009854"/>
<stop offset="1" stop-color="#008A49"/>
</linearGradient>
<linearGradient id="paint66_linear_143_26" x1="508.62" y1="89.3141" x2="499.202" y2="77.1411" gradientUnits="userSpaceOnUse">
<stop stop-color="#00EE98"/>
<stop offset="0.28" stop-color="#00D685"/>
<stop offset="0.87" stop-color="#009854"/>
<stop offset="1" stop-color="#008A49"/>
</linearGradient>
<linearGradient id="paint67_linear_143_26" x1="1208.26" y1="256.097" x2="1200.09" y2="241.896" gradientUnits="userSpaceOnUse">
<stop stop-color="#00EE98"/>
<stop offset="0.28" stop-color="#00D685"/>
<stop offset="0.87" stop-color="#009854"/>
<stop offset="1" stop-color="#008A49"/>
</linearGradient>
<linearGradient id="paint68_linear_143_26" x1="824.722" y1="21.7929" x2="818.791" y2="19.0338" gradientUnits="userSpaceOnUse">
<stop stop-color="#00EE98"/>
<stop offset="0.28" stop-color="#00D685"/>
<stop offset="0.87" stop-color="#009854"/>
<stop offset="1" stop-color="#008A49"/>
</linearGradient>
<linearGradient id="paint69_linear_143_26" x1="243.107" y1="323.003" x2="249.088" y2="333.15" gradientUnits="userSpaceOnUse">
<stop stop-color="#00EE98"/>
<stop offset="0.28" stop-color="#00D685"/>
<stop offset="0.87" stop-color="#009854"/>
<stop offset="1" stop-color="#008A49"/>
</linearGradient>
<linearGradient id="paint70_linear_143_26" x1="176.772" y1="263.757" x2="171" y2="266.644" gradientUnits="userSpaceOnUse">
<stop stop-color="#00EE98"/>
<stop offset="0.28" stop-color="#00D685"/>
<stop offset="0.87" stop-color="#009854"/>
<stop offset="1" stop-color="#008A49"/>
</linearGradient>
<linearGradient id="paint71_linear_143_26" x1="1537.22" y1="717.489" x2="1532.44" y2="694.123" gradientUnits="userSpaceOnUse">
<stop stop-color="#00EE98"/>
<stop offset="0.28" stop-color="#00D685"/>
<stop offset="0.87" stop-color="#009854"/>
<stop offset="1" stop-color="#008A49"/>
</linearGradient>
<linearGradient id="paint72_linear_143_26" x1="1900.1" y1="558.828" x2="1889.11" y2="552.789" gradientUnits="userSpaceOnUse">
<stop stop-color="#00EE98"/>
<stop offset="0.28" stop-color="#00D685"/>
<stop offset="0.87" stop-color="#009854"/>
<stop offset="1" stop-color="#008A49"/>
</linearGradient>
<linearGradient id="paint73_linear_143_26" x1="1786.21" y1="654.057" x2="1770.32" y2="658.188" gradientUnits="userSpaceOnUse">
<stop stop-color="#00EE98"/>
<stop offset="0.28" stop-color="#00D685"/>
<stop offset="0.87" stop-color="#009854"/>
<stop offset="1" stop-color="#008A49"/>
</linearGradient>
<linearGradient id="paint74_linear_143_26" x1="235.739" y1="430.279" x2="225.253" y2="437.497" gradientUnits="userSpaceOnUse">
<stop stop-color="#00EE98"/>
<stop offset="0.28" stop-color="#00D685"/>
<stop offset="0.87" stop-color="#009854"/>
<stop offset="1" stop-color="#008A49"/>
</linearGradient>
<linearGradient id="paint75_linear_143_26" x1="1607.73" y1="603.876" x2="1610.17" y2="596.232" gradientUnits="userSpaceOnUse">
<stop stop-color="#00EE98"/>
<stop offset="0.28" stop-color="#00D685"/>
<stop offset="0.87" stop-color="#009854"/>
<stop offset="1" stop-color="#008A49"/>
</linearGradient>
<linearGradient id="paint76_linear_143_26" x1="1569.28" y1="-6.47276" x2="1573.19" y2="-32.6198" gradientUnits="userSpaceOnUse">
<stop stop-color="#00EE98"/>
<stop offset="0.28" stop-color="#00D685"/>
<stop offset="0.87" stop-color="#009854"/>
<stop offset="1" stop-color="#008A49"/>
</linearGradient>
<linearGradient id="paint77_linear_143_26" x1="1881.27" y1="975.138" x2="1862.35" y2="984.315" gradientUnits="userSpaceOnUse">
<stop stop-color="#00EE98"/>
<stop offset="0.28" stop-color="#00D685"/>
<stop offset="0.87" stop-color="#009854"/>
<stop offset="1" stop-color="#008A49"/>
</linearGradient>
<linearGradient id="paint78_linear_143_26" x1="304.77" y1="139.777" x2="306.259" y2="149.134" gradientUnits="userSpaceOnUse">
<stop stop-color="#00EE98"/>
<stop offset="0.28" stop-color="#00D685"/>
<stop offset="0.87" stop-color="#009854"/>
<stop offset="1" stop-color="#008A49"/>
</linearGradient>
<linearGradient id="paint79_linear_143_26" x1="1713.7" y1="919.161" x2="1731.23" y2="913.534" gradientUnits="userSpaceOnUse">
<stop stop-color="#00EE98"/>
<stop offset="0.28" stop-color="#00D685"/>
<stop offset="0.87" stop-color="#009854"/>
<stop offset="1" stop-color="#008A49"/>
</linearGradient>
<linearGradient id="paint80_linear_143_26" x1="1693.92" y1="846.881" x2="1704.72" y2="851.795" gradientUnits="userSpaceOnUse">
<stop stop-color="#00EE98"/>
<stop offset="0.28" stop-color="#00D685"/>
<stop offset="0.87" stop-color="#009854"/>
<stop offset="1" stop-color="#008A49"/>
</linearGradient>
</defs>
</svg>
