<svg width="43" height="60" viewBox="0 0 43 60" fill="none" xmlns="http://www.w3.org/2000/svg">
<g clipPath="url(#clip0_1802_7422)">
<path d="M42.8506 13.7801C42.8506 12.001 41.5939 10.4767 39.8796 10.1141V3.83032C39.8796 1.71874 38.1618 0.000976562 36.0491 0.000976562H25.0417C24.3711 0.000976562 23.8255 0.546536 23.8255 1.21719C23.8255 1.88785 24.3711 2.43341 25.0417 2.43341H36.0491C36.8194 2.43341 37.4472 3.06005 37.4472 3.83032V3.94268H16.6927V3.83032C16.6927 3.06005 17.3194 2.43341 18.0908 2.43341H20.2962C20.9668 2.43341 21.5124 1.88785 21.5124 1.21719C21.5124 0.546536 20.9668 0.000976562 20.2962 0.000976562H18.0908C15.9792 0.000976562 14.2603 1.71874 14.2603 3.83032V15.9705C13.7611 15.7504 13.2213 15.6357 12.6699 15.6357C10.4796 15.6357 8.69812 17.423 8.69812 19.6203V39.8477L7.34059 41.2122C6.73596 40.9643 6.09426 40.8392 5.43055 40.8392C4.0765 40.8392 2.80468 41.3685 1.84793 42.3288C-0.121184 44.306 -0.121184 47.5238 1.84793 49.501L7.22476 54.9021C7.4541 55.1326 7.76105 55.26 8.08654 55.26C8.41202 55.26 8.7155 55.1338 8.94484 54.9056C9.41974 54.433 9.42206 53.6604 8.94831 53.1855L3.57148 47.7844C2.54523 46.7535 2.54523 45.0751 3.57148 44.0442C4.06839 43.545 4.72862 43.2705 5.43055 43.2705C5.95179 43.2705 6.45333 43.4222 6.88538 43.7106C6.89349 43.7164 6.9016 43.7222 6.90275 43.7222C7.04059 43.8172 7.17148 43.9249 7.28963 44.0431L16.2572 53.0523C17.2834 54.0832 17.2834 55.7616 16.2572 56.7925C15.7603 57.2917 15.1001 57.5662 14.3981 57.5662C13.6962 57.5662 13.036 57.2917 12.539 56.7925L12.1985 56.4508C11.9692 56.2203 11.6622 56.0929 11.3367 56.0929C11.0112 56.0929 10.7078 56.2191 10.4784 56.4473C10.2479 56.6767 10.1205 56.9813 10.1205 57.3068C10.1205 57.6311 10.2456 57.9369 10.475 58.1674L10.8155 58.5091C11.7723 59.4705 13.0441 59.9987 14.3981 59.9987C15.7522 59.9987 17.024 59.4693 17.9807 58.5091C19.6186 56.8643 19.9221 54.3079 18.7499 52.3295L20.0112 51.0624L20.712 51.0948C20.7306 51.0948 20.7491 51.096 20.7676 51.096C23.075 51.096 25.3186 50.4392 27.2553 49.1975C29.0321 48.0577 30.4823 46.4709 31.4599 44.5979H36.0491C38.1607 44.5979 39.8784 42.8801 39.8784 40.7674V32.6836C41.5916 32.3211 42.8495 30.7909 42.8495 29.006C42.8495 28.0666 42.4939 27.162 41.8614 26.4739C42.4927 25.7848 42.8495 24.8813 42.8495 23.9419V23.9303C42.8495 22.9909 42.4939 22.0875 41.8614 21.3983C42.4927 20.7091 42.8495 19.8056 42.8495 18.8662V18.8546C42.8495 17.9153 42.4939 17.0106 41.8614 16.3226C42.4927 15.6334 42.8495 14.7299 42.8495 13.7906V13.779L42.8506 13.7801ZM11.1317 40.3492V19.6191C11.1317 18.7631 11.8221 18.067 12.6711 18.067C13.5201 18.067 14.2105 18.7631 14.2105 19.6191V30.1295C14.2105 30.6149 14.4977 31.0527 14.9437 31.2462C16.9163 32.0998 18.378 33.8755 19.0603 36.2454C19.834 38.9361 19.4251 41.9025 17.9923 43.9863C17.8082 44.2539 17.7398 44.577 17.7989 44.8967C17.858 45.2164 18.0375 45.4933 18.3062 45.6774C18.5101 45.8176 18.7487 45.8917 18.9943 45.8917C19.395 45.8917 19.7703 45.6948 19.9973 45.3647C20.163 45.1238 20.3217 44.8678 20.4711 44.599H28.6232C26.829 47.1473 23.9483 48.6554 20.7977 48.6647L19.5873 48.6079C19.5699 48.6079 19.5526 48.6079 19.5363 48.6079C19.2085 48.6079 18.9004 48.7353 18.6711 48.9658L17.1468 50.4971L9.33982 42.6543L10.7796 41.2075C11.0078 40.9782 11.134 40.6736 11.134 40.3492H11.1317ZM40.4182 13.7801V13.7917C40.4182 14.5168 39.8275 15.1075 39.1024 15.1075H37.585C36.8599 15.1075 36.2692 14.5168 36.2692 13.7917V13.7801C36.2692 13.055 36.8599 12.4643 37.585 12.4643H39.1024C39.8275 12.4643 40.4182 13.055 40.4182 13.7801ZM33.8367 13.7801V13.7917C33.8367 14.7311 34.1923 15.6357 34.8248 16.3238C34.1935 17.0129 33.8367 17.9164 33.8367 18.8558V18.8674C33.8367 19.8068 34.1923 20.7102 34.8248 21.3994C34.1935 22.0886 33.8367 22.9921 33.8367 23.9315V23.9431C33.8367 24.8824 34.1923 25.7871 34.8248 26.4751C34.1935 27.1643 33.8367 28.0689 33.8367 29.0187C33.8367 31.04 35.4433 32.6917 37.4472 32.7647V36.4238H21.6062C21.5448 36.133 21.4753 35.8469 21.3954 35.5724C20.6055 32.8249 18.9398 30.6415 16.6916 29.3998V6.37395H37.446V10.033C35.4433 10.106 33.8356 11.7577 33.8356 13.779L33.8367 13.7801ZM39.1024 25.2589H37.585C36.8599 25.2589 36.2692 24.6682 36.2692 23.9431V23.9315C36.2692 23.2064 36.8599 22.6156 37.585 22.6156H39.1024C39.8275 22.6156 40.4182 23.2064 40.4182 23.9315V23.9431C40.4182 24.6682 39.8275 25.2589 39.1024 25.2589ZM39.1024 20.1832H37.585C36.8599 20.1832 36.2692 19.5925 36.2692 18.8674V18.8558C36.2692 18.1307 36.8599 17.54 37.585 17.54H39.1024C39.8275 17.54 40.4182 18.1307 40.4182 18.8558V18.8674C40.4182 19.5925 39.8275 20.1832 39.1024 20.1832ZM21.8715 38.8573H37.4472V40.7697C37.4472 41.54 36.8205 42.1678 36.0502 42.1678H21.4522C21.7383 41.1102 21.8819 39.9809 21.8715 38.8585V38.8573ZM36.2692 29.0072C36.2692 28.2821 36.8599 27.6913 37.585 27.6913H39.1024C39.8275 27.6913 40.4182 28.2867 40.4182 29.0187C40.4182 29.7508 39.8275 30.3346 39.1024 30.3346H37.585C36.8599 30.3346 36.2692 29.7438 36.2692 29.0072Z" fill="#8C8C8C"/>
<path d="M18.6668 20.1894C18.6668 23.9535 21.7298 27.0164 25.4939 27.0164C29.1094 27.0164 32.1032 24.1887 32.3098 20.5787C32.3384 20.0713 31.9482 19.6349 31.4408 19.6063C31.4232 19.6054 31.4057 19.6045 31.3882 19.6045C30.8992 19.6045 30.4951 19.9874 30.4675 20.4754C30.3263 23.1204 28.1417 25.1916 25.4929 25.1916H25.4717C22.7243 25.1805 20.4991 22.9359 20.5101 20.1885C20.5101 19.4458 20.6817 18.7004 21.0028 18.0315C21.8285 16.3146 23.5943 15.2047 25.5012 15.2047C26.2522 15.2047 26.9783 15.3708 27.6527 15.6955C27.6748 15.7075 27.697 15.7186 27.72 15.7278C27.8363 15.7786 27.9599 15.8044 28.0863 15.8044C28.4544 15.8044 28.7865 15.5858 28.9332 15.2481C29.1353 14.7813 28.9203 14.237 28.4599 14.0377C27.5447 13.5976 26.5235 13.3642 25.5077 13.3633H25.4985C21.7353 13.3633 18.6696 16.4253 18.6641 20.1885L18.6668 20.1894Z" fill="#5065F6"/>
<path d="M23.9272 19.0924C23.7538 18.9254 23.5268 18.8331 23.286 18.8331C23.0452 18.8331 22.8183 18.9254 22.6448 19.0924C22.4677 19.264 22.3681 19.4937 22.3634 19.74C22.3588 19.9864 22.4511 20.2198 22.6245 20.3997L24.8387 22.6138C25.0131 22.7873 25.2456 22.8832 25.491 22.8832H25.4937C25.7354 22.8832 25.9716 22.7845 26.1414 22.6138L31.3096 17.4456C31.6565 17.0858 31.6565 16.523 31.3096 16.1632C31.1343 15.9815 30.8982 15.8818 30.6463 15.8818C30.3944 15.8818 30.1786 15.9741 30.0033 16.1429L25.49 20.6561L23.9263 19.0924H23.9272Z" fill="#5065F6"/>
</g>
<defs>
<clipPath id="clip0_1802_7422">
<rect width="42.4784" height="60" fill="white" transform="translate(0.373047)"/>
</clipPath>
</defs>
</svg>
