<svg width="44" height="14" viewBox="0 0 44 14" fill="none" xmlns="http://www.w3.org/2000/svg">
<g clipPath="url(#clip0_2984_19875)">
<path d="M18.7064 13.7647H15.1865L17.386 0.242188H20.9059L18.7064 13.7647Z" fill="#0066B3"/>
<path d="M12.2238 0.242387L8.86667 9.54316L8.46873 7.53903L7.28217 1.45789C7.28217 1.45789 7.13747 0.23877 5.61085 0.23877H0.0651163L0 0.466677C0 0.466677 1.69664 0.821199 3.68269 2.01138L6.74315 13.7613H10.4114L16.0114 0.242387H12.2202H12.2238Z" fill="#0066B3"/>
<path d="M39.9164 13.7647H43.1505L40.3324 0.242188H37.4998C36.1939 0.242188 35.8756 1.25149 35.8756 1.25149L30.6265 13.7683H34.2947L35.029 11.7605H39.504L39.9164 13.7683V13.7647ZM36.042 8.98224L37.8905 3.92126L38.9324 8.98224H36.042Z" fill="#0066B3"/>
<path d="M30.8978 3.49457L31.4007 0.589664C31.4007 0.589664 29.8487 0 28.2353 0C26.488 0 22.3387 0.763307 22.3387 4.47855C22.3387 7.97313 27.2079 8.01654 27.2079 9.85065C27.2079 11.6848 22.8415 11.3556 21.3981 10.2016L20.8735 13.2367C20.8735 13.2367 22.4472 14 24.8492 14C27.2513 14 30.8761 12.7556 30.8761 9.36951C30.8761 5.98346 25.9635 5.52765 25.9635 3.99742C25.9635 2.46718 29.3929 2.66615 30.8978 3.49457Z" fill="#0066B3"/>
<path d="M8.46873 7.54245L7.28217 1.46131C7.28217 1.46131 7.13747 0.242188 5.61085 0.242188H0.0651163L0 0.470094C0 0.470094 2.66615 1.02358 5.22739 3.09283C7.67287 5.07164 8.46873 7.53883 8.46873 7.53883V7.54245Z" fill="#FAA634"/>
</g>
<defs>
<clipPath id="clip0_2984_19875">
<rect width="43.1504" height="14" fill="white"/>
</clipPath>
</defs>
</svg>
