<svg width="29" height="18" viewBox="0 0 29 18" fill="none" xmlns="http://www.w3.org/2000/svg">
<mask id="mask0_101_115" style="mask-type:luminance" maskUnits="userSpaceOnUse" x="0" y="0" width="29" height="18">
<path d="M28.2587 0H0V18H28.2587V0Z" fill="white"/>
</mask>
<g mask="url(#mask0_101_115)">
<path d="M17.5688 2.86011C16.0441 2.86011 14.8008 4.10343 14.8008 5.62816C14.8008 7.15289 16.0441 8.39621 17.5688 8.39621C19.0936 8.39621 20.3369 7.15289 20.3369 5.62816C20.3369 4.10343 19.0936 2.86011 17.5688 2.86011ZM18.7814 5.62304C18.7814 6.29331 18.2391 6.83566 17.5688 6.83566C16.8986 6.83566 16.3562 6.29331 16.3562 5.62304C16.3562 4.95277 16.8986 4.41042 17.5688 4.41042C18.2391 4.41042 18.7814 4.95277 18.7814 5.62304Z" fill="#8C8C8C"/>
<path d="M13.456 5.62303C13.456 4.0983 12.2127 2.85498 10.688 2.85498C9.1632 2.85498 7.91992 4.0983 7.91992 5.62303C7.91992 7.14776 9.1632 8.39108 10.688 8.39108C12.2127 8.39108 13.456 7.14776 13.456 5.62303ZM9.4753 5.62303C9.4753 4.95276 10.0177 4.41041 10.688 4.41041C11.3582 4.41041 11.9006 4.95276 11.9006 5.62303C11.9006 6.2933 11.3582 6.83565 10.688 6.83565C10.0177 6.83565 9.4753 6.2933 9.4753 5.62303Z" fill="#8C8C8C"/>
<path d="M18.0707 10.1204H10.1912C8.94277 10.1204 7.92969 11.246 7.92969 12.6326C7.92969 14.0192 8.94277 15.1448 10.1912 15.1448H18.0707C19.314 15.1448 20.3322 14.0192 20.3322 12.6326C20.3322 11.246 19.3191 10.1204 18.0707 10.1204ZM18.9302 12.6326C18.9302 13.1596 18.5414 13.5894 18.0656 13.5894H10.1861C9.71021 13.5894 9.32141 13.1596 9.32141 12.6326C9.32141 12.1056 9.71021 11.6707 10.1861 11.6707H18.0656C18.5414 11.6707 18.9302 12.1005 18.9302 12.6326Z" fill="#8C8C8C"/>
<path d="M25.7413 5.28539H24.7794V2.78852C24.7743 1.25355 23.5259 0 21.9909 0H14.9045H13.3491H6.26265C4.72769 0 3.47925 1.25355 3.47925 2.78852V5.28539H2.51734C1.13076 5.28539 0 6.41615 0 7.80273V10.2075C0 11.5941 1.13076 12.7248 2.51734 12.7248H3.47925V15.2217C3.47925 16.7567 4.72769 18.0051 6.26265 18.0051H21.9909C23.5259 18.0051 24.7743 16.7567 24.7743 15.2217V12.7248H25.7362C27.1228 12.7248 28.2535 11.5941 28.2535 10.2075V7.80273C28.2535 6.41615 27.1228 5.28539 25.7362 5.28539H25.7413ZM3.47925 11.1643H2.51734C1.98522 11.1643 1.55543 10.7345 1.55543 10.2024V7.79761C1.55543 7.26549 1.98522 6.8357 2.51734 6.8357H3.47925V11.1643ZM23.224 15.2166C23.224 15.8971 22.6714 16.4446 21.996 16.4446H6.26265C5.58215 16.4446 5.03468 15.892 5.03468 15.2166V2.78852C5.03468 2.10802 5.58727 1.56055 6.26265 1.56055H21.9909C22.6714 1.56055 23.2189 2.11313 23.2189 2.78852V15.2166H23.224ZM26.7032 10.2024C26.7032 10.7345 26.2734 11.1643 25.7413 11.1643H24.7794V6.8357H25.7413C26.2734 6.8357 26.7032 7.26549 26.7032 7.79761V10.2024Z" fill="#8C8C8C"/>
</g>
</svg>
