<svg width="22" height="24" viewBox="0 0 22 24" fill="none" xmlns="http://www.w3.org/2000/svg">
<path d="M21.2092 12.0564C21.2092 11.5807 21.2135 11.105 21.2178 10.6293C21.2295 9.40063 21.2412 8.13033 21.173 6.88243C21.1453 6.37154 20.7943 5.6292 20.3155 5.33802C17.5733 3.67522 14.6615 1.98682 11.4148 0.178964C10.9946 -0.0556837 10.2682 -0.0599501 9.85868 0.168298C6.62801 1.97295 3.68531 3.68055 0.865264 5.38922C0.439698 5.64306 0.0567955 6.32354 0.0471962 6.8451C-0.0157321 10.2752 -0.0157321 13.7544 0.0471962 17.1845C0.0567955 17.6965 0.442898 18.3738 0.873797 18.6351C3.75037 20.3779 6.7432 22.1175 9.76802 23.8059C10.0005 23.9349 10.3184 24 10.6309 24C10.9253 24 11.2143 23.9424 11.4223 23.8261C14.6018 22.0546 17.5114 20.364 20.3165 18.6554C20.7922 18.3684 21.1442 17.6293 21.174 17.1173C21.2423 15.8972 21.2306 14.6546 21.2188 13.4526C21.2146 12.9865 21.2103 12.5214 21.2103 12.0554L21.2092 12.0564ZM2.01291 11.8047C2.01291 11.4773 2.00864 11.1498 2.00544 10.8224C1.99584 9.83793 1.98624 8.82041 2.04384 7.82529C2.0673 7.45412 2.31582 6.90376 2.61339 6.72244C4.89588 5.33375 7.35861 3.90667 10.1403 2.35799C10.3898 2.21934 10.8943 2.23 11.1588 2.37826C13.8178 3.8672 16.2464 5.28042 18.5855 6.69791C18.8777 6.87496 19.1689 7.35919 19.1753 7.6749C19.2286 10.5397 19.2286 13.4451 19.1753 16.3099C19.1699 16.6385 18.8884 17.1291 18.6079 17.2997C16.2102 18.7535 13.7112 20.2051 11.1791 21.6151C10.8954 21.773 10.344 21.7751 10.0645 21.6194C7.37995 20.1283 4.95027 18.7183 2.63472 17.3093C2.35101 17.1365 2.07263 16.6182 2.04917 16.2204C1.98944 15.2007 2.00011 14.1576 2.00971 13.1486C2.01397 12.754 2.01717 12.3604 2.01717 11.9658V11.8058H2.01291V11.8047Z" fill="black"/>
<path d="M16.3057 8.52677C16.166 8.28253 15.9388 8.10867 15.6679 8.03615C15.397 7.96362 15.1154 8.00095 14.8733 8.14174L10.7211 10.5511L6.57315 8.14387C6.33104 8.00308 6.0484 7.96575 5.77749 8.03828C5.50657 8.11081 5.28046 8.28466 5.13967 8.52891C4.85169 9.0302 5.02341 9.67441 5.52257 9.96346L9.67371 12.3729V17.1736C9.67371 17.7527 10.1441 18.2252 10.7222 18.2252C11.3002 18.2252 11.7706 17.7538 11.7706 17.1736V12.3707L15.9217 9.96133C16.4209 9.67122 16.5926 9.02807 16.3046 8.52677H16.3057Z" fill="black"/>
</svg>
